<svg width="200" height="213" viewBox="0 0 200 213" fill="none" xmlns="http://www.w3.org/2000/svg">
<path d="M82.7051 3.26562H85.7051V0.265625H82.7051V3.26562ZM84.3164 189.154L81.4544 190.054L81.4582 190.066L81.4621 190.078L84.3164 189.154ZM112.002 200.58H115.002V197.58H112.002V200.58ZM112.002 206V209H115.002V206H112.002ZM7.41211 206H4.41211V209H7.41211V206ZM7.41211 200.58V197.58H4.41211V200.58H7.41211ZM38.7598 45.5996L35.9508 46.653L35.9583 46.6729L35.966 46.6928L38.7598 45.5996ZM33.7793 39.7402L32.0452 42.1883L32.1028 42.229L32.1621 42.267L33.7793 39.7402ZM7.41211 41.9375L4.72883 43.2791L6.00435 45.8302L8.61654 44.6851L7.41211 41.9375ZM4.77539 36.6641L3.52863 33.9354L0.702587 35.2267L2.09211 38.0057L4.77539 36.6641ZM77.8711 3.26562V0.265625H77.2182L76.6243 0.536964L77.8711 3.26562ZM79.7051 3.26562V165.717H85.7051V3.26562H79.7051ZM79.7051 165.717C79.7051 171.856 79.8399 176.936 80.115 180.937C80.3853 184.869 80.8032 187.982 81.4544 190.054L87.1784 188.255C86.7554 186.909 86.3676 184.406 86.1008 180.526C85.8388 176.715 85.7051 171.785 85.7051 165.717H79.7051ZM81.4621 190.078C82.7863 194.171 85.5429 197.436 89.4582 199.897L92.6512 194.818C89.7306 192.982 87.995 190.778 87.1707 188.231L81.4621 190.078ZM89.4582 199.897C93.6134 202.509 99.7908 203.58 107.461 203.58V197.58C100.092 197.58 95.3319 196.503 92.6512 194.818L89.4582 199.897ZM107.461 203.58H112.002V197.58H107.461V203.58ZM109.002 200.58V206H115.002V200.58H109.002ZM112.002 203H7.41211V209H112.002V203ZM10.4121 206V200.58H4.41211V206H10.4121ZM7.41211 203.58H12.6855V197.58H7.41211V203.58ZM12.6855 203.58C21.2548 203.58 27.9615 202.622 32.2762 200.29L29.4231 195.011C26.5111 196.585 21.1085 197.58 12.6855 197.58V203.58ZM32.2762 200.29C36.4428 198.037 39.431 194.825 40.9861 190.638L35.3616 188.549C34.3776 191.198 32.483 193.357 29.4231 195.011L32.2762 200.29ZM40.9861 190.638C41.7763 188.511 42.2729 185.308 42.5926 181.3C42.9188 177.21 43.0781 172.007 43.0781 165.717H37.0781C37.0781 171.926 36.9201 176.954 36.6115 180.823C36.2964 184.774 35.8409 187.259 35.3616 188.549L40.9861 190.638ZM43.0781 165.717V62.7383H37.0781V165.717H43.0781ZM43.0781 62.7383C43.0781 58.1113 42.9677 54.3031 42.7397 51.3388C42.5199 48.481 42.1723 46.0878 41.5535 44.5064L35.966 46.6928C36.2261 47.3575 36.5378 48.9438 36.7574 51.7989C36.9688 54.5475 37.0781 58.1855 37.0781 62.7383H43.0781ZM41.5688 44.5462C40.4275 41.5028 38.2942 39.068 35.3965 37.2134L32.1621 42.267C34.1472 43.5375 35.3343 45.0089 35.9508 46.653L41.5688 44.5462ZM35.5133 37.2922C32.6177 35.2411 29.2649 34.25 25.5762 34.25V40.25C28.1375 40.25 30.2534 40.9191 32.0452 42.1883L35.5133 37.2922ZM25.5762 34.25C20.0138 34.25 13.5253 35.9822 6.20768 39.1899L8.61654 44.6851C15.5567 41.6428 21.1776 40.25 25.5762 40.25V34.25ZM10.0954 40.5959L7.45867 35.3224L2.09211 38.0057L4.72883 43.2791L10.0954 40.5959ZM6.02215 39.3927L79.1179 5.99429L76.6243 0.536964L3.52863 33.9354L6.02215 39.3927ZM77.8711 6.26562H82.7051V0.265625H77.8711V6.26562ZM189.785 168.061L187.642 170.16L187.653 170.171L187.664 170.182L189.785 168.061ZM189.785 202.631L191.884 204.774L191.896 204.763L191.906 204.752L189.785 202.631ZM155.215 202.631L153.072 204.73L153.093 204.752L153.116 204.774L155.215 202.631ZM155.215 168.061L153.094 165.939L153.083 165.95L153.072 165.961L155.215 168.061ZM172.5 163.883C178.548 163.883 183.532 165.964 187.642 170.16L191.928 165.961C186.664 160.587 180.124 157.883 172.5 157.883V163.883ZM187.664 170.182C191.889 174.407 193.963 179.407 193.963 185.346H199.963C199.963 177.808 197.252 171.284 191.906 165.939L187.664 170.182ZM193.963 185.346C193.963 191.284 191.889 196.284 187.664 200.51L191.906 204.752C197.252 199.407 199.963 192.883 199.963 185.346H193.963ZM187.686 200.488C183.465 204.622 178.459 206.662 172.5 206.662V212.662C180.018 212.662 186.535 210.014 191.884 204.774L187.686 200.488ZM172.5 206.662C166.541 206.662 161.535 204.622 157.314 200.488L153.116 204.774C158.465 210.014 164.982 212.662 172.5 212.662V206.662ZM157.358 200.532C153.223 196.311 151.184 191.304 151.184 185.346H145.184C145.184 192.864 147.831 199.381 153.072 204.73L157.358 200.532ZM151.184 185.346C151.184 179.387 153.223 174.381 157.358 170.16L153.072 165.961C147.831 171.311 145.184 177.828 145.184 185.346H151.184ZM157.336 170.182C161.561 165.957 166.561 163.883 172.5 163.883V157.883C164.962 157.883 158.439 160.594 153.094 165.939L157.336 170.182Z" fill="#4449DB" fill-opacity="0.12"/>
</svg>
