<svg width="211" height="213" viewBox="0 0 211 213" fill="none" xmlns="http://www.w3.org/2000/svg">
<path d="M120.219 206V209H122.693L123.164 206.571L120.219 206ZM3.32428 206H0.32428V209H3.32428V206ZM3.32428 202.777L1.02696 200.848L0.32428 201.685V202.777H3.32428ZM68.5098 116.645L65.8516 115.254L65.848 115.261L65.8444 115.268L68.5098 116.645ZM70.5606 47.9434L68.3622 49.9847L68.3696 49.9926L68.3769 50.0004L70.5606 47.9434ZM12.2598 60.248L11.2654 63.0784L13.6599 63.9197L14.8863 61.6977L12.2598 60.248ZM6.8399 58.3438L3.95195 57.5315L3.18988 60.2411L5.84545 61.1741L6.8399 58.3438ZM115.092 29.6328L112.487 31.1212L112.491 31.128L112.495 31.1347L115.092 29.6328ZM111.283 92.0352L113.916 93.4727L113.923 93.4609L111.283 92.0352ZM46.6837 167.621L44.591 165.472L39.3014 170.621H46.6837V167.621ZM110.111 166.303L109.322 163.408L109.311 163.412L109.299 163.415L110.111 166.303ZM118.022 161.908L120.143 164.03L120.168 164.005L120.192 163.98L118.022 161.908ZM126.078 148.578V145.578H124.212L123.387 147.252L126.078 148.578ZM131.352 148.578L134.297 149.149L134.989 145.578H131.352V148.578ZM120.219 203H3.32428V209H120.219V203ZM6.32428 206V202.777H0.32428V206H6.32428ZM5.6216 204.707C41.4065 162.096 63.3751 133.122 71.1752 118.021L65.8444 115.268C58.4102 129.66 36.9217 158.107 1.02696 200.848L5.6216 204.707ZM71.168 118.035C79.0663 102.938 83.0821 88.06 83.0821 73.4316H77.0821C77.0821 86.9283 73.383 100.858 65.8516 115.254L71.168 118.035ZM83.0821 73.4316C83.0821 62.5025 79.6745 53.243 72.7443 45.8863L68.3769 50.0004C74.142 56.1203 77.0821 63.853 77.0821 73.4316H83.0821ZM72.759 45.902C65.8542 38.466 57.2987 34.6895 47.2696 34.6895V40.6895C55.5998 40.6895 62.5717 43.7488 68.3622 49.9847L72.759 45.902ZM47.2696 34.6895C30.9622 34.6895 18.3712 42.9674 9.63334 58.7984L14.8863 61.6977C22.75 47.4506 33.4988 40.6895 47.2696 40.6895V34.6895ZM13.2543 57.4177L7.83436 55.5134L5.84545 61.1741L11.2654 63.0784L13.2543 57.4177ZM9.72786 59.156C14.8995 40.7678 22.6586 27.5153 32.788 19.0434L28.9387 14.441C17.5837 23.9379 9.32715 38.4197 3.95195 57.5315L9.72786 59.156ZM32.788 19.0434C42.988 10.5125 54.7083 6.26562 68.0704 6.26562V0.265625C53.3074 0.265625 40.2231 5.00309 28.9387 14.441L32.788 19.0434ZM68.0704 6.26562C77.6416 6.26562 86.3087 8.48996 94.1343 12.9091L97.0846 7.68462C88.3086 2.72879 78.6163 0.265625 68.0704 0.265625V6.26562ZM94.1343 12.9091C101.969 17.3332 108.07 23.3921 112.487 31.1212L117.697 28.1444C112.738 19.4673 105.852 12.6355 97.0846 7.68462L94.1343 12.9091ZM112.495 31.1347C116.999 38.9227 119.123 46.0231 119.123 52.4844H125.123C125.123 44.6879 122.56 36.5538 117.689 28.1309L112.495 31.1347ZM119.123 52.4844C119.123 64.8961 115.674 77.5935 108.644 90.6094L113.923 93.4609C121.345 79.719 125.123 66.0492 125.123 52.4844H119.123ZM108.65 90.5976C99.0211 108.235 77.7794 133.162 44.591 165.472L48.7763 169.771C81.9941 137.432 103.819 111.968 113.916 93.4727L108.65 90.5976ZM46.6837 170.621H89.6036V164.621H46.6837V170.621ZM89.6036 170.621C94.911 170.621 99.3268 170.511 102.833 170.285C106.283 170.064 109.039 169.721 110.924 169.191L109.299 163.415C108.059 163.764 105.834 164.08 102.448 164.298C99.1187 164.512 94.843 164.621 89.6036 164.621V170.621ZM110.901 169.197C114.55 168.202 117.67 166.502 120.143 164.03L115.9 159.787C114.271 161.416 112.118 162.646 109.322 163.408L110.901 169.197ZM120.192 163.98C122.598 161.459 125.458 156.623 128.769 149.904L123.387 147.252C120.057 154.01 117.547 158.061 115.851 159.837L120.192 163.98ZM126.078 151.578H131.352V145.578H126.078V151.578ZM128.406 148.007L117.274 205.429L123.164 206.571L134.297 149.149L128.406 148.007ZM200.785 168.061L198.642 170.16L198.653 170.171L198.664 170.182L200.785 168.061ZM200.785 202.631L202.885 204.774L202.896 204.763L202.907 204.752L200.785 202.631ZM166.215 202.631L164.072 204.73L164.093 204.752L164.116 204.774L166.215 202.631ZM166.215 168.061L164.094 165.939L164.083 165.95L164.072 165.961L166.215 168.061ZM183.5 163.883C189.548 163.883 194.532 165.964 198.642 170.16L202.928 165.961C197.664 160.587 191.124 157.883 183.5 157.883V163.883ZM198.664 170.182C202.889 174.407 204.963 179.407 204.963 185.346H210.963C210.963 177.808 208.252 171.284 202.907 165.939L198.664 170.182ZM204.963 185.346C204.963 191.284 202.889 196.284 198.664 200.51L202.907 204.752C208.252 199.407 210.963 192.883 210.963 185.346H204.963ZM198.686 200.488C194.465 204.622 189.459 206.662 183.5 206.662V212.662C191.018 212.662 197.535 210.014 202.885 204.774L198.686 200.488ZM183.5 206.662C177.541 206.662 172.535 204.622 168.314 200.488L164.116 204.774C169.465 210.014 175.982 212.662 183.5 212.662V206.662ZM168.358 200.532C164.223 196.311 162.184 191.304 162.184 185.346H156.184C156.184 192.864 158.831 199.381 164.072 204.73L168.358 200.532ZM162.184 185.346C162.184 179.387 164.223 174.381 168.358 170.16L164.072 165.961C158.831 171.311 156.184 177.828 156.184 185.346H162.184ZM168.336 170.182C172.561 165.957 177.561 163.883 183.5 163.883V157.883C175.962 157.883 169.439 160.594 164.094 165.939L168.336 170.182Z" fill="#4449DB" fill-opacity="0.12"/>
</svg>
