<svg width="214" height="214" viewBox="0 0 214 214" fill="none" xmlns="http://www.w3.org/2000/svg">
<path d="M43.3848 106.391H40.3848V108.761L42.6906 109.309L43.3848 106.391ZM43.3848 101.264L42.5506 98.382L40.3848 99.0089V101.264H43.3848ZM66.5293 92.3281L68.1399 94.8591L68.1602 94.8462L68.1802 94.833L66.5293 92.3281ZM77.6621 79.584L80.2888 81.0332L80.2941 81.0238L80.2992 81.0143L77.6621 79.584ZM73.4141 41.3516L71.2927 43.4729L71.3104 43.4906L71.3284 43.5079L73.4141 41.3516ZM16.5781 54.2422L15.5837 57.0726L17.789 57.8474L19.0795 55.8985L16.5781 54.2422ZM11.1582 52.3379L8.40333 51.1502L7.13046 54.1025L10.1637 55.1683L11.1582 52.3379ZM38.1113 15.5703L36.3216 13.1626L36.3113 13.1703L38.1113 15.5703ZM108.863 15.8633L106.803 18.0437L106.809 18.0493L106.815 18.0549L108.863 15.8633ZM116.041 66.5469L113.485 64.9766L113.478 64.987L116.041 66.5469ZM96.5586 84.418L95.0488 81.8256L90.1928 84.6538L95.2447 87.1149L96.5586 84.418ZM122.633 105.072L120.205 106.835L120.217 106.851L120.229 106.868L122.633 105.072ZM109.156 188.568L111.242 190.725L111.242 190.724L109.156 188.568ZM12.1836 201.898L13.9389 199.466L13.923 199.454L13.9069 199.443L12.1836 201.898ZM8.66797 175.385L10.7564 177.538L10.773 177.522L10.7893 177.506L8.66797 175.385ZM28.8828 172.602L30.2245 169.918L30.2058 169.909L30.1871 169.9L28.8828 172.602ZM45.4355 185.492L43.5268 187.807L43.5397 187.817L43.5528 187.828L45.4355 185.492ZM90.8457 188.568L93.0603 190.592L93.0689 190.583L93.0775 190.573L90.8457 188.568ZM84.5469 129.828L82.2357 131.741L82.2439 131.751L84.5469 129.828ZM46.3848 106.391V101.264H40.3848V106.391H46.3848ZM44.2189 104.145C55.3673 100.918 63.4491 97.8442 68.1399 94.8591L64.9187 89.7971C61.0158 92.2808 53.6678 95.1638 42.5506 98.382L44.2189 104.145ZM68.1802 94.833C72.9743 91.6733 76.988 87.0159 80.2888 81.0332L75.0354 78.1348C72.0862 83.4802 68.6781 87.3189 64.8784 89.8233L68.1802 94.833ZM80.2992 81.0143C83.6336 74.8664 85.3496 68.5683 85.3496 62.1523H79.3496C79.3496 67.4552 77.9406 72.7781 75.025 78.1537L80.2992 81.0143ZM85.3496 62.1523C85.3496 53.2135 82.0264 45.5078 75.4997 39.1952L71.3284 43.5079C76.7158 48.7188 79.3496 54.8802 79.3496 62.1523H85.3496ZM75.5354 39.2302C69.0766 32.7715 60.9726 29.5625 51.4414 29.5625V35.5625C59.4884 35.5625 66.0328 38.2129 71.2927 43.4729L75.5354 39.2302ZM51.4414 29.5625C36.4926 29.5625 24.0346 37.5476 14.0768 52.5859L19.0795 55.8985C28.2623 42.0306 39.0465 35.5625 51.4414 35.5625V29.5625ZM17.5726 51.4118L12.1527 49.5075L10.1637 55.1683L15.5837 57.0726L17.5726 51.4118ZM13.9131 53.5256C20.7976 37.5574 29.4995 25.7792 39.9113 17.9703L36.3113 13.1703C24.8482 21.7677 15.5813 34.5012 8.40333 51.1502L13.9131 53.5256ZM39.9011 17.978C50.4301 10.1511 62.061 6.26562 74.8789 6.26562V0.265625C60.7437 0.265625 47.8629 4.5833 36.3216 13.1627L39.9011 17.978ZM74.8789 6.26562C87.9867 6.26562 98.5446 10.2393 106.803 18.0437L110.924 13.6829C101.409 4.69042 89.3102 0.265625 74.8789 0.265625V6.26562ZM106.815 18.0549C115.256 25.946 119.34 34.9909 119.34 45.3066H125.34C125.34 33.1615 120.439 22.5774 110.912 13.6717L106.815 18.0549ZM119.34 45.3066C119.34 52.0243 117.422 58.5665 113.485 64.9766L118.597 68.1171C123.058 60.8554 125.34 53.2375 125.34 45.3066H119.34ZM113.478 64.987C109.703 71.1889 103.631 76.8271 95.0488 81.8256L98.0684 87.0103C107.26 81.6573 114.176 75.3814 118.604 68.1067L113.478 64.987ZM95.2447 87.1149C106.338 92.5195 114.602 99.1183 120.205 106.835L125.06 103.309C118.75 94.6199 109.63 87.4492 97.8725 81.721L95.2447 87.1149ZM120.229 106.868C125.819 114.351 128.715 123.887 128.715 135.688H134.715C134.715 122.879 131.556 112.005 125.036 103.277L120.229 106.868ZM128.715 135.688C128.715 155.568 121.532 172.42 107.07 186.412L111.242 190.724C126.858 175.615 134.715 157.213 134.715 135.688H128.715ZM107.07 186.412C92.8029 200.213 73.5433 207.248 48.9512 207.248V213.248C74.7497 213.248 95.6268 205.83 111.242 190.725L107.07 186.412ZM48.9512 207.248C32.3582 207.248 20.881 204.474 13.9389 199.466L10.4282 204.331C18.9159 210.455 31.9504 213.248 48.9512 213.248V207.248ZM13.9069 199.443C9.04242 196.029 6.83398 191.871 6.83398 186.811H0.833984C0.833984 194.055 4.19195 199.955 10.4603 204.354L13.9069 199.443ZM6.83398 186.811C6.83398 183.129 8.1169 180.098 10.7564 177.538L6.57953 173.231C2.77372 176.922 0.833984 181.507 0.833984 186.811H6.83398ZM10.7893 177.506C13.5023 174.793 16.4691 173.551 19.8008 173.551V167.551C14.734 167.551 10.279 169.531 6.54665 173.263L10.7893 177.506ZM19.8008 173.551C22.5833 173.551 25.1636 174.137 27.5786 175.303L30.1871 169.9C26.938 168.331 23.4636 167.551 19.8008 167.551V173.551ZM27.5412 175.285C27.9954 175.512 29.5018 176.559 32.3496 178.777C35.0759 180.9 38.7985 183.907 43.5268 187.807L47.3443 183.178C42.5999 179.265 38.8275 176.217 36.0361 174.043C33.3664 171.964 31.3328 170.472 30.2245 169.918L27.5412 175.285ZM43.5528 187.828C53.4092 195.773 62.9949 200.064 72.2422 200.064V194.064C64.8879 194.064 56.6025 190.641 47.3183 183.157L43.5528 187.828ZM72.2422 200.064C80.3681 200.064 87.3557 196.835 93.0603 190.592L88.6311 186.545C83.9841 191.63 78.5694 194.064 72.2422 194.064V200.064ZM93.0775 190.573C98.8149 184.186 101.609 176.165 101.609 166.742H95.6094C95.6094 174.898 93.228 181.427 88.6139 186.564L93.0775 190.573ZM101.609 166.742C101.609 152.593 96.6301 139.621 86.8499 127.906L82.2439 131.751C91.2136 142.496 95.6094 154.133 95.6094 166.742H101.609ZM86.8581 127.915C76.9692 115.966 62.6106 107.88 44.0789 103.472L42.6906 109.309C60.2918 113.495 73.3746 121.034 82.2357 131.741L86.8581 127.915ZM203.785 168.061L201.642 170.16L201.653 170.171L201.664 170.182L203.785 168.061ZM203.785 202.631L205.884 204.774L205.896 204.763L205.906 204.752L203.785 202.631ZM169.215 202.631L167.072 204.73L167.093 204.752L167.116 204.774L169.215 202.631ZM169.215 168.061L167.094 165.939L167.083 165.95L167.072 165.961L169.215 168.061ZM186.5 163.883C192.548 163.883 197.532 165.964 201.642 170.16L205.928 165.961C200.664 160.587 194.124 157.883 186.5 157.883V163.883ZM201.664 170.182C205.889 174.407 207.963 179.407 207.963 185.346H213.963C213.963 177.808 211.252 171.284 205.906 165.939L201.664 170.182ZM207.963 185.346C207.963 191.284 205.889 196.284 201.664 200.51L205.906 204.752C211.252 199.407 213.963 192.883 213.963 185.346H207.963ZM201.686 200.488C197.465 204.622 192.459 206.662 186.5 206.662V212.662C194.018 212.662 200.535 210.014 205.884 204.774L201.686 200.488ZM186.5 206.662C180.541 206.662 175.535 204.622 171.314 200.488L167.116 204.774C172.465 210.014 178.982 212.662 186.5 212.662V206.662ZM171.358 200.532C167.223 196.311 165.184 191.304 165.184 185.346H159.184C159.184 192.864 161.831 199.381 167.072 204.73L171.358 200.532ZM165.184 185.346C165.184 179.387 167.223 174.381 171.358 170.16L167.072 165.961C161.831 171.311 159.184 177.828 159.184 185.346H165.184ZM171.336 170.182C175.561 165.957 180.561 163.883 186.5 163.883V157.883C178.962 157.883 172.439 160.594 167.094 165.939L171.336 170.182Z" fill="#4449DB" fill-opacity="0.12"/>
</svg>
