<svg width="211" height="213" viewBox="0 0 211 213" fill="none" xmlns="http://www.w3.org/2000/svg">
<path d="M3.47076 131.146L1.05657 129.366L0.470764 130.16V131.146H3.47076ZM97.8067 3.26562V0.265625H96.2918L95.3925 1.48471L97.8067 3.26562ZM115.678 3.26562H118.678V0.265625H115.678V3.26562ZM115.678 131.146H112.678V134.146H115.678V131.146ZM133.842 131.146H136.842V128.146H133.842V131.146ZM133.842 161.469V164.469H136.842V161.469H133.842ZM115.678 161.469V158.469H112.678V161.469H115.678ZM115.678 206V209H118.678V206H115.678ZM75.3946 206H72.3946V209H75.3946V206ZM75.3946 161.469H78.3946V158.469H75.3946V161.469ZM3.47076 161.469H0.470764V164.469H3.47076V161.469ZM17.6797 131.146L15.2641 129.368L11.7447 134.146H17.6797V131.146ZM75.3946 131.146V134.146H78.3946V131.146H75.3946ZM75.3946 52.7773H78.3946V43.6447L72.979 50.9984L75.3946 52.7773ZM5.88496 132.927L100.221 5.04654L95.3925 1.48471L1.05657 129.366L5.88496 132.927ZM97.8067 6.26562H115.678V0.265625H97.8067V6.26562ZM112.678 3.26562V131.146H118.678V3.26562H112.678ZM115.678 134.146H133.842V128.146H115.678V134.146ZM130.842 131.146V161.469H136.842V131.146H130.842ZM133.842 158.469H115.678V164.469H133.842V158.469ZM112.678 161.469V206H118.678V161.469H112.678ZM115.678 203H75.3946V209H115.678V203ZM78.3946 206V161.469H72.3946V206H78.3946ZM75.3946 158.469H3.47076V164.469H75.3946V158.469ZM6.47076 161.469V131.146H0.470764V161.469H6.47076ZM17.6797 134.146H75.3946V128.146H17.6797V134.146ZM78.3946 131.146V52.7773H72.3946V131.146H78.3946ZM72.979 50.9984L15.2641 129.368L20.0954 132.925L77.8102 54.5563L72.979 50.9984ZM200.785 168.061L198.642 170.16L198.653 170.171L198.664 170.182L200.785 168.061ZM200.785 202.631L202.885 204.774L202.896 204.763L202.907 204.752L200.785 202.631ZM166.215 202.631L164.072 204.73L164.093 204.752L164.116 204.774L166.215 202.631ZM166.215 168.061L164.094 165.939L164.083 165.95L164.072 165.961L166.215 168.061ZM183.5 163.883C189.548 163.883 194.532 165.964 198.642 170.16L202.928 165.961C197.664 160.587 191.124 157.883 183.5 157.883V163.883ZM198.664 170.182C202.889 174.407 204.963 179.407 204.963 185.346H210.963C210.963 177.808 208.252 171.284 202.907 165.939L198.664 170.182ZM204.963 185.346C204.963 191.284 202.889 196.284 198.664 200.51L202.907 204.752C208.252 199.407 210.963 192.883 210.963 185.346H204.963ZM198.686 200.488C194.465 204.622 189.459 206.662 183.5 206.662V212.662C191.018 212.662 197.535 210.014 202.885 204.774L198.686 200.488ZM183.5 206.662C177.541 206.662 172.535 204.622 168.314 200.488L164.116 204.774C169.465 210.014 175.982 212.662 183.5 212.662V206.662ZM168.358 200.532C164.223 196.311 162.184 191.304 162.184 185.346H156.184C156.184 192.864 158.831 199.381 164.072 204.73L168.358 200.532ZM162.184 185.346C162.184 179.387 164.223 174.381 168.358 170.16L164.072 165.961C158.831 171.311 156.184 177.828 156.184 185.346H162.184ZM168.336 170.182C172.561 165.957 177.561 163.883 183.5 163.883V157.883C175.962 157.883 169.439 160.594 164.094 165.939L168.336 170.182Z" fill="#4449DB" fill-opacity="0.12"/>
</svg>
