<svg width="210" height="210" viewBox="0 0 210 210" fill="none" xmlns="http://www.w3.org/2000/svg">
<path d="M40.7031 3.36719V0.367188H38.5852L37.8762 2.36289L40.7031 3.36719ZM133.721 3.36719L136.514 4.46079L138.117 0.367188H133.721V3.36719ZM118.926 41.1602V44.1602H120.973L121.719 42.2538L118.926 41.1602ZM40.7031 41.1602V38.1602H38.6295L37.8967 40.1L40.7031 41.1602ZM33.2324 60.9355L30.426 59.8753L28.9523 63.7764L33.1195 63.9334L33.2324 60.9355ZM111.016 86.1309L112.967 83.852L112.965 83.8505L111.016 86.1309ZM123.027 169.773L125.604 171.311L125.609 171.301L123.027 169.773ZM93.7305 196.727L95.0638 199.414L95.0721 199.41L95.0804 199.406L93.7305 196.727ZM14.9219 197.02L13.1856 199.466L13.1963 199.474L13.2071 199.481L14.9219 197.02ZM10.5273 171.238L8.40602 169.117L8.38971 169.133L8.37364 169.15L10.5273 171.238ZM53.3008 181.053L51.5787 183.509L51.5891 183.517L51.5995 183.524L53.3008 181.053ZM68.6816 189.549L69.7646 186.751L69.7359 186.74L69.7069 186.729L68.6816 189.549ZM99.2969 182.518L97.1399 180.433L97.1309 180.442L97.1219 180.451L99.2969 182.518ZM5.10742 103.562L2.28052 102.558L0.829612 106.642L5.16297 106.562L5.10742 103.562ZM40.7031 6.36719H133.721V0.367188H40.7031V6.36719ZM130.927 2.27358L116.132 40.0666L121.719 42.2538L136.514 4.46079L130.927 2.27358ZM118.926 38.1602H40.7031V44.1602H118.926V38.1602ZM37.8967 40.1L30.426 59.8753L36.0388 61.9957L43.5095 42.2204L37.8967 40.1ZM33.1195 63.9334C66.4072 65.1877 91.5904 73.4721 109.066 88.4112L112.965 83.8505C94.1128 67.7349 67.4404 59.2224 33.3454 57.9377L33.1195 63.9334ZM109.064 88.4097C123.365 100.654 130.428 115.751 130.428 133.885H136.428C136.428 113.933 128.549 97.1934 112.967 83.852L109.064 88.4097ZM130.428 133.885C130.428 145.494 127.138 156.935 120.445 168.246L125.609 171.301C132.784 159.175 136.428 146.69 136.428 133.885H130.428ZM120.451 168.236C113.822 179.347 104.492 187.945 92.3805 194.047L95.0804 199.406C108.164 192.813 118.365 183.442 125.604 171.311L120.451 168.236ZM92.3972 194.039C80.2424 200.069 66.8847 203.102 52.2754 203.102V209.102C67.7442 209.102 82.0233 205.884 95.0638 199.414L92.3972 194.039ZM52.2754 203.102C36.3735 203.102 24.6227 200.121 16.6367 194.558L13.2071 199.481C22.6039 206.027 35.7554 209.102 52.2754 209.102V203.102ZM16.6581 194.573C11.0877 190.62 8.83984 186.543 8.83984 182.371H2.83984C2.83984 189.137 6.64671 194.826 13.1856 199.466L16.6581 194.573ZM8.83984 182.371C8.83984 179.009 10.0575 176.032 12.681 173.327L8.37364 169.15C4.74716 172.89 2.83984 177.335 2.83984 182.371H8.83984ZM12.6487 173.36C15.3617 170.647 18.3285 169.404 21.6602 169.404V163.404C16.5934 163.404 12.1383 165.385 8.40602 169.117L12.6487 173.36ZM21.6602 169.404C25.0491 169.404 28.5292 170.098 32.1182 171.533L34.3466 165.963C30.1231 164.273 25.8884 163.404 21.6602 163.404V169.404ZM32.1182 171.533C35.6549 172.948 42.0756 176.847 51.5787 183.509L55.0229 178.596C45.5806 171.977 38.6224 167.673 34.3466 165.963L32.1182 171.533ZM51.5995 183.524C57.6598 187.696 63.0235 190.684 67.6564 192.368L69.7069 186.729C65.746 185.289 60.8558 182.612 55.0021 178.582L51.5995 183.524ZM67.5987 192.347C71.0257 193.673 74.8196 194.307 78.9355 194.307V188.307C75.4343 188.307 72.3923 187.768 69.7646 186.751L67.5987 192.347ZM78.9355 194.307C87.7743 194.307 95.345 191.033 101.472 184.584L97.1219 180.451C92.1159 185.721 86.1124 188.307 78.9355 188.307V194.307ZM101.454 184.603C107.663 178.18 110.793 170.399 110.793 161.424H104.793C104.793 168.855 102.259 175.137 97.1399 180.433L101.454 184.603ZM110.793 161.424C110.793 143.002 101.482 128.161 83.6017 116.985L80.4217 122.073C96.916 132.382 104.793 145.47 104.793 161.424H110.793ZM83.6017 116.985C65.817 105.87 43.5455 100.416 16.9727 100.416V106.416C42.7435 106.416 63.8314 111.704 80.4217 122.073L83.6017 116.985ZM16.9727 100.416C14.3071 100.416 10.3294 100.465 5.05188 100.563L5.16297 106.562C10.4323 106.464 14.3647 106.416 16.9727 106.416V100.416ZM7.93433 104.567L43.53 4.37148L37.8762 2.36289L2.28052 102.558L7.93433 104.567ZM199.785 164.061L197.642 166.16L197.653 166.171L197.664 166.182L199.785 164.061ZM199.785 198.631L201.884 200.774L201.896 200.763L201.906 200.752L199.785 198.631ZM165.215 198.631L163.072 200.73L163.093 200.752L163.116 200.774L165.215 198.631ZM165.215 164.061L163.094 161.939L163.083 161.95L163.072 161.961L165.215 164.061ZM182.5 159.883C188.548 159.883 193.532 161.964 197.642 166.16L201.928 161.961C196.664 156.587 190.124 153.883 182.5 153.883V159.883ZM197.664 166.182C201.889 170.407 203.963 175.407 203.963 181.346H209.963C209.963 173.808 207.252 167.284 201.906 161.939L197.664 166.182ZM203.963 181.346C203.963 187.284 201.889 192.284 197.664 196.51L201.906 200.752C207.252 195.407 209.963 188.883 209.963 181.346H203.963ZM197.686 196.488C193.465 200.622 188.459 202.662 182.5 202.662V208.662C190.018 208.662 196.535 206.014 201.884 200.774L197.686 196.488ZM182.5 202.662C176.541 202.662 171.535 200.622 167.314 196.488L163.116 200.774C168.465 206.014 174.982 208.662 182.5 208.662V202.662ZM167.358 196.532C163.223 192.311 161.184 187.304 161.184 181.346H155.184C155.184 188.864 157.831 195.381 163.072 200.73L167.358 196.532ZM161.184 181.346C161.184 175.387 163.223 170.381 167.358 166.16L163.072 161.961C157.831 167.311 155.184 173.828 155.184 181.346H161.184ZM167.336 166.182C171.561 161.957 176.561 159.883 182.5 159.883V153.883C174.962 153.883 168.439 156.594 163.094 161.939L167.336 166.182Z" fill="#4449DB" fill-opacity="0.12"/>
</svg>
