<svg width="220" height="92" viewBox="0 0 220 92" fill="none" xmlns="http://www.w3.org/2000/svg">
<path opacity="0.25" d="M142.156 39.0827C141.482 41.2643 138.354 42.7593 132.776 43.5592L119.455 45.4494L119.789 44.3591C120.892 40.7726 122.461 38.3237 124.487 37.0263C126.51 35.7316 129.809 35.078 134.382 35.078C140.391 35.0784 142.979 36.416 142.156 39.0827ZM68.2328 56.3308C66.0693 56.6678 62.9702 56.8397 58.9199 56.8397C51.8869 56.8397 48.8143 55.4179 49.7042 52.5807C50.3422 50.5462 52.1852 49.3231 55.2449 48.9096L71.2415 46.7636L68.2328 56.3308ZM179.747 30.7179C179.27 30.0137 178.691 29.5331 176.308 29.352C175.683 29.3037 173.613 29.2371 170.139 29.2371C160.999 29.2371 154.792 32.0114 151.616 37.4824C152.489 31.9762 147.124 29.2172 135.497 29.2172C121.853 29.2172 113.337 34.7188 109.939 45.7029C108.678 49.7876 108.552 53.136 109.545 55.7556L106.323 55.9693C103.807 56.1593 100.496 56.3308 98.467 56.3308C93.4754 56.3308 90.3733 55.4914 89.1743 53.8168C88.1044 52.3173 88.2086 49.5268 89.4631 45.4497C91.5439 38.7067 96.7047 35.6692 104.95 35.6692C109.222 35.6589 113.386 36.1169 113.386 36.1169C113.957 36.0801 114.213 35.4824 114.149 34.9876L114.067 34.345L113.773 32.0773C113.583 30.5896 112.475 29.7031 110.443 29.4286C108.592 29.3045 107.216 29.2179 105.189 29.2179C105.15 29.2179 105.112 29.2218 105.075 29.2218C94.3003 29.2455 86.789 32.7892 82.5469 39.8367C84.102 32.7593 79.1204 29.2168 67.5799 29.2168C61.1635 29.2168 56.5652 29.4025 53.7778 29.7659C51.6376 30.0324 50.3334 30.9193 49.8623 32.4223L48.946 35.3342C48.7802 35.868 49.0371 36.1341 49.7226 36.1341L49.7425 36.1307C50.2506 36.0656 52.2021 35.8726 55.539 35.6064C59.9511 35.2557 63.2218 35.0784 65.3689 35.0784C71.7214 35.0784 74.4007 36.666 73.4067 39.844C73.1891 40.5493 72.7036 40.987 71.9638 41.1567C65.9536 42.1496 61.1868 42.8657 57.6608 43.3026C47.7325 44.5667 42.0015 47.6585 40.4521 52.5807C38.3368 59.3487 43.6443 62.7342 56.3718 62.7342C62.722 62.7342 68.0529 62.3639 72.3605 61.6394C74.8415 61.222 76.0994 60.5902 76.5999 58.9895L78.9649 51.4465C78.7199 58.9815 84.007 62.7829 94.8418 62.7829C99.5315 62.7829 103.978 62.6262 106.079 62.2613C108.301 61.8776 109.361 61.3936 109.852 59.7171L110.332 57.3398C112.641 60.9367 117.706 62.7346 125.519 62.7346C133.766 62.7346 138.58 62.5037 139.949 62.0442C141.096 61.6808 141.808 61.0918 142.057 60.2624C142.11 60.1161 142.13 59.9606 142.156 59.7879L143.149 56.5862C143.315 56.0302 143.062 55.7637 142.381 55.787L137.107 56.0402C133.587 56.2301 130.825 56.332 128.835 56.332C125.09 56.332 122.519 56.0773 121.113 55.5657C119.027 54.7627 118.04 53.1701 118.13 50.7599L134.846 48.6201C142.336 47.6612 147.35 45.3548 149.887 41.6955L144.225 61.4265C144.118 61.7976 144.162 62.1005 144.35 62.3195C144.562 62.5619 144.923 62.686 145.457 62.686H152.377C153.584 62.686 154.016 62.0595 154.165 61.5357L160.279 40.2453C161.085 37.446 163.662 36.0805 168.158 36.0805C172.215 36.0805 175.278 36.1173 177.232 36.1919C177.286 36.1931 177.334 36.1931 177.387 36.1931C177.764 36.1931 178.457 36.0571 178.798 35.1266L179.873 32.2052C180.078 31.6366 180.034 31.138 179.747 30.7179Z" fill="#464BDE"/>
</svg>
