<svg width="220" height="92" viewBox="0 0 220 92" fill="none" xmlns="http://www.w3.org/2000/svg">
<rect width="220" height="92" rx="12" fill="white"/>
<path d="M72.5662 47.5033C72.5084 41.4433 77.517 38.5317 77.7423 38.3931C74.9232 34.2741 70.5442 33.708 68.9845 33.6445C65.2583 33.2632 61.7113 35.8397 59.8165 35.8397C57.9216 35.8397 55.0043 33.6964 51.9136 33.76C47.8466 33.8178 44.0974 36.1228 42.0004 39.7622C37.7832 47.0758 40.9259 57.9365 45.0448 63.881C47.061 66.7868 49.4526 70.0623 52.6068 69.941C55.6455 69.8197 56.7893 67.9768 60.4519 67.9768C64.1145 67.9768 65.1486 69.941 68.3548 69.8832C71.6187 69.8197 73.6869 66.9139 75.6857 63.9965C77.9849 60.617 78.9381 57.353 78.9959 57.1797C78.9208 57.1508 72.6355 54.7418 72.5662 47.5033Z" fill="black"/>
<path d="M66.5408 29.7043C68.2162 27.6766 69.3427 24.8633 69.0365 22.0557C66.6275 22.1539 63.7101 23.6617 61.9828 25.6894C60.4346 27.4802 59.077 30.3456 59.4468 33.0954C62.1215 33.3034 64.8713 31.7263 66.5408 29.7043ZM93.6925 53.4591L90.9195 61.8646H87.3552L96.4307 35.152H100.59L109.7 61.8646H106.015L103.161 53.4591H93.6925ZM102.45 50.7613L99.8391 43.0722C99.2441 41.3275 98.8513 39.7447 98.4527 38.1964H98.3776C97.979 39.7793 97.5457 41.4026 97.0315 43.0317L94.4204 50.7555L102.45 50.7613ZM112.404 48.9415C112.404 46.4863 112.329 44.4991 112.242 42.6793H115.373L115.535 45.9722H115.61C117.037 43.6325 119.296 42.2461 122.427 42.2461C127.066 42.2461 130.549 46.1686 130.549 51.9975C130.549 58.8952 126.35 62.2978 121.832 62.2978C119.296 62.2978 117.078 61.1887 115.928 59.288H115.853V69.7097H112.404V48.9415ZM115.847 54.0541C115.847 54.5741 115.922 55.042 116.009 55.481C116.644 57.8958 118.741 59.5653 121.243 59.5653C124.928 59.5653 127.072 56.5556 127.072 52.1535C127.072 48.3061 125.05 45.0248 121.364 45.0248C118.99 45.0248 116.771 46.729 116.09 49.3459C115.968 49.7792 115.853 50.2991 115.853 50.7728L115.847 54.0541ZM134.154 48.9415C134.154 46.4863 134.079 44.4991 133.992 42.6793H137.124L137.285 45.9722H137.36C138.787 43.6325 141.046 42.2461 144.177 42.2461C148.816 42.2461 152.3 46.1686 152.3 51.9975C152.3 58.8952 148.1 62.2978 143.582 62.2978C141.046 62.2978 138.828 61.1887 137.678 59.288H137.603V69.7097H134.154V48.9415ZM137.603 54.0541C137.603 54.5741 137.678 55.042 137.765 55.481C138.4 57.8958 140.497 59.5653 142.999 59.5653C146.684 59.5653 148.828 56.5556 148.828 52.1535C148.828 48.3061 146.806 45.0248 143.12 45.0248C140.746 45.0248 138.527 46.729 137.846 49.3459C137.724 49.7792 137.609 50.2991 137.609 50.7728L137.603 54.0541ZM155.91 33.7251H159.399V61.8588H155.91V33.7251ZM166.413 52.9045C166.488 57.6185 169.503 59.5653 172.987 59.5653C175.482 59.5653 176.99 59.1321 178.296 58.5775L178.891 61.0731C177.666 61.6277 175.563 62.2632 172.513 62.2632C166.609 62.2632 163.079 58.3811 163.079 52.5926C163.079 46.8041 166.488 42.2461 172.074 42.2461C178.336 42.2461 180 47.7515 180 51.2812C180 51.9975 179.925 52.5464 179.879 52.9045H166.413ZM176.638 50.4089C176.678 48.1905 175.725 44.7417 171.802 44.7417C168.273 44.7417 166.73 47.9941 166.453 50.4089H176.638Z" fill="black"/>
</svg>
