<svg width="240" height="92" viewBox="0 0 240 92" fill="none" xmlns="http://www.w3.org/2000/svg">
<rect width="240" height="92" rx="12" fill="white"/>
<path fill-rule="evenodd" clip-rule="evenodd" d="M196.246 30.6472C196.876 30.6472 197.493 30.808 198.094 31.1313C198.687 31.4482 199.174 31.9311 199.497 32.521C199.832 33.1222 200 33.7508 200 34.405C200 35.0516 199.835 35.6742 199.504 36.2702C199.184 36.8571 198.702 37.34 198.116 37.6617C197.546 37.9858 196.902 38.1567 196.246 38.1577C195.591 38.1565 194.947 37.9856 194.377 37.6617C193.79 37.3401 193.307 36.8573 192.986 36.2702C192.661 35.7021 192.489 35.0594 192.488 34.405C192.488 33.7508 192.656 33.1222 192.992 32.521C193.317 31.9308 193.806 31.4478 194.4 31.1313C194.965 30.8178 195.6 30.6513 196.246 30.6472ZM196.246 31.269C195.719 31.269 195.206 31.4049 194.706 31.6752C194.207 31.9454 193.816 32.3328 193.534 32.834C193.252 33.3369 193.111 33.8603 193.111 34.405C193.111 34.9447 193.25 35.4629 193.527 35.9589C193.802 36.455 194.19 36.8424 194.687 37.1195C195.162 37.3901 195.699 37.5333 196.246 37.5351C196.792 37.5331 197.329 37.3899 197.804 37.1195C198.293 36.8509 198.694 36.4483 198.962 35.9589C199.237 35.4629 199.374 34.9447 199.374 34.405C199.374 33.8594 199.235 33.336 198.955 32.834C198.674 32.3328 198.284 31.9454 197.782 31.6752C197.281 31.4049 196.77 31.269 196.246 31.269ZM194.599 36.4798V32.4397H195.986C196.462 32.4397 196.806 32.4757 197.018 32.5501C197.23 32.6245 197.398 32.7553 197.526 32.9409C197.651 33.1282 197.715 33.3249 197.715 33.5336C197.715 33.8295 197.61 34.086 197.399 34.3041C197.187 34.5239 196.908 34.6453 196.559 34.6736C196.703 34.7326 196.819 34.8036 196.903 34.8874C197.065 35.0473 197.264 35.3141 197.501 35.6896L197.994 36.4798H197.197L196.837 35.8426C196.555 35.3432 196.329 35.0293 196.156 34.9036C196.037 34.8104 195.862 34.7642 195.633 34.7642H195.251V36.4798H194.599ZM195.251 34.2066H196.043C196.42 34.2066 196.678 34.1485 196.816 34.0364C196.883 33.9829 196.937 33.9146 196.972 33.8368C197.008 33.759 197.026 33.6739 197.023 33.5883C197.023 33.4736 196.989 33.3616 196.923 33.2676C196.854 33.1719 196.758 33.0987 196.648 33.0572C196.529 33.0093 196.311 32.9871 195.991 32.9871H195.251V34.2066ZM123.837 30.4001H123.962V39.0343H115.239V30.4001H123.837ZM85.8727 48.6588L106.048 49.91C106.887 49.91 107.573 50.5968 107.573 51.4349C107.573 52.273 106.887 52.9597 106.048 52.9597H77.295V41.7205C78.1784 45.191 81.2195 48.0294 85.8727 48.6588ZM77.295 61.6427H106.69C110.975 61.6427 114.573 58.5511 115.366 54.4888C116.065 58.5374 119.607 61.6427 123.838 61.6427H142.62C146.815 61.6427 150.334 58.5879 151.073 54.5872V61.6427H181.186C186.047 61.6427 190.024 57.6659 190.024 52.8032V51.552C190.024 46.691 186.047 42.7143 181.186 42.7143L179.534 42.6416C170.165 42.2294 160.824 41.7573 151.468 41.2741C152.196 44.9455 155.295 48.002 160.146 48.6588L180.543 49.91C180.947 49.9111 181.335 50.0721 181.621 50.3578C181.907 50.6435 182.068 51.0306 182.07 51.4349C182.068 51.8391 181.907 52.2263 181.621 52.512C181.335 52.7976 180.947 52.9586 180.543 52.9597H151.217V41.2613L142.495 40.8114V50.8174C142.493 51.4921 142.224 52.1386 141.747 52.6157C141.27 53.0928 140.623 53.3616 139.949 53.3634H126.509C125.834 53.3618 125.188 53.0931 124.71 52.6159C124.233 52.1388 123.965 51.4922 123.963 50.8174V39.8553L115.239 39.4055V49.3242C114.242 45.5724 110.778 42.8674 106.69 42.8674L68.2716 40.3556V61.6435H77.295V61.6427ZM113.853 39.0386V30.3564H85.8727C81.7421 30.3564 78.2511 33.2274 77.295 37.0733V30.3992H60.5935L54.9021 39.0343H77.0375L113.853 39.0386ZM64.5874 40.1418L50.7919 61.6427H40L54.554 39.5628L64.5874 40.1418ZM190.023 39.0386V30.3564H160.145C155.338 30.3564 151.397 34.2468 151.309 39.0343L190.023 39.0386ZM142.494 39.0343V30.4001H151.216V39.0343H142.494Z" fill="#00539B"/>
</svg>
