<svg width="1440" height="6860" viewBox="0 0 1440 6860" fill="none" xmlns="http://www.w3.org/2000/svg">
<g filter="url(#filter0_d)">
<path fill-rule="evenodd" clip-rule="evenodd" d="M0 787.841V0H1440V997.876C1307.92 1021.61 1171.91 1034 1033 1034C661.269 1034 310.262 945.273 0 787.841Z" fill="#464BDE"/>
<mask id="mask0" mask-type="alpha" maskUnits="userSpaceOnUse" x="0" y="0" width="1440" height="1034">
<path fill-rule="evenodd" clip-rule="evenodd" d="M0 787.841V0H1440V997.876C1307.92 1021.61 1171.91 1034 1033 1034C661.269 1034 310.262 945.273 0 787.841Z" fill="#464BDE"/>
</mask>
<g mask="url(#mask0)">
<path d="M759.5 718C1554.51 718 2199 73.5139 2199 -721.5C2199 -1516.51 1554.51 -2161 759.5 -2161C-35.5139 -2161 -680 -1516.51 -680 -721.5C-680 73.5139 -35.5139 718 759.5 718Z" fill="#464BDE" stroke="url(#paint0_linear)" stroke-width="500"/>
<path d="M759.5 718C1554.51 718 2199 73.5139 2199 -721.5C2199 -1516.51 1554.51 -2161 759.5 -2161C-35.5139 -2161 -680 -1516.51 -680 -721.5C-680 73.5139 -35.5139 718 759.5 718Z" fill="#464BDE" stroke="url(#paint1_linear)" stroke-width="500"/>
<path d="M759.5 966.5C1691.76 966.5 2447.5 210.757 2447.5 -721.5C2447.5 -1653.76 1691.76 -2409.5 759.5 -2409.5C-172.757 -2409.5 -928.5 -1653.76 -928.5 -721.5C-928.5 210.757 -172.757 966.5 759.5 966.5Z" stroke="url(#paint2_linear)" stroke-opacity="0.35" stroke-width="3"/>
<path d="M1018.5 648C1813.51 648 2458 3.51392 2458 -791.5C2458 -1586.51 1813.51 -2231 1018.5 -2231C223.486 -2231 -421 -1586.51 -421 -791.5C-421 3.51392 223.486 648 1018.5 648Z" fill="#464BDE" stroke="url(#paint3_linear)" stroke-width="500"/>
<path d="M1018.5 648C1813.51 648 2458 3.51392 2458 -791.5C2458 -1586.51 1813.51 -2231 1018.5 -2231C223.486 -2231 -421 -1586.51 -421 -791.5C-421 3.51392 223.486 648 1018.5 648Z" fill="#464BDE" stroke="url(#paint4_linear)" stroke-width="500"/>
<path d="M1018.5 896.5C1950.76 896.5 2706.5 140.757 2706.5 -791.5C2706.5 -1723.76 1950.76 -2479.5 1018.5 -2479.5C86.2433 -2479.5 -669.5 -1723.76 -669.5 -791.5C-669.5 140.757 86.2433 896.5 1018.5 896.5Z" stroke="url(#paint5_linear)" stroke-opacity="0.2" stroke-width="3"/>
<path d="M1190 507C1680.98 507 2079 108.981 2079 -382C2079 -872.981 1680.98 -1271 1190 -1271C699.019 -1271 301 -872.981 301 -382C301 108.981 699.019 507 1190 507Z" fill="#464BDE" stroke="url(#paint6_linear)" stroke-width="500"/>
<path d="M1190 755.5C1818.22 755.5 2327.5 246.224 2327.5 -382C2327.5 -1010.22 1818.22 -1519.5 1190 -1519.5C561.776 -1519.5 52.5 -1010.22 52.5 -382C52.5 246.224 561.776 755.5 1190 755.5Z" stroke="url(#paint7_linear)" stroke-opacity="0.2" stroke-width="3"/>
<path d="M1658 234C2010.91 234 2297 -52.0901 2297 -405C2297 -757.91 2010.91 -1044 1658 -1044C1305.09 -1044 1019 -757.91 1019 -405C1019 -52.0901 1305.09 234 1658 234Z" fill="#464BDE" stroke="url(#paint8_linear)" stroke-width="1000"/>
<path d="M1658 732.5C2286.22 732.5 2795.5 223.224 2795.5 -405C2795.5 -1033.22 2286.22 -1542.5 1658 -1542.5C1029.78 -1542.5 520.5 -1033.22 520.5 -405C520.5 223.224 1029.78 732.5 1658 732.5Z" stroke="url(#paint9_linear)" stroke-opacity="0.2" stroke-width="3"/>
</g>
</g>
<mask id="mask1" mask-type="alpha" maskUnits="userSpaceOnUse" x="940" y="1031" width="500" height="995">
<path d="M1440 1031H940V2026H1440V1031Z" fill="#C4C4C4"/>
</mask>
<g mask="url(#mask1)">
<g opacity="0.2">
<path opacity="0.2" d="M1351.53 1107.01C1580.93 1065.67 1800.4 1218.13 1841.74 1447.53C1883.08 1676.93 1730.62 1896.4 1501.22 1937.74C1271.82 1979.08 1052.35 1826.62 1011.01 1597.22C969.672 1367.82 1122.13 1148.34 1351.53 1107.01Z" stroke="url(#paint10_radial)" stroke-width="2"/>
<path opacity="0.4" d="M1171.02 1522.39C1171.02 1381.36 1285.34 1267.03 1426.37 1267.03C1567.4 1267.04 1681.73 1381.36 1681.73 1522.39C1681.73 1663.42 1567.4 1777.74 1426.37 1777.74C1285.34 1777.74 1171.02 1663.42 1171.02 1522.39Z" stroke="url(#paint11_radial)" stroke-width="2"/>
</g>
</g>
<mask id="mask2" mask-type="alpha" maskUnits="userSpaceOnUse" x="0" y="1138" width="1440" height="5794">
<path d="M1440 1138H0V6932H1440V1138Z" fill="#C4C4C4"/>
</mask>
<g mask="url(#mask2)">
<path opacity="0.03" d="M1056.28 3513.97C1006.37 3700.24 1116.91 3891.69 1303.17 3941.6C1489.44 3991.51 1680.89 3880.97 1730.8 3694.71C1780.71 3508.44 1670.17 3316.99 1483.91 3267.08C1297.64 3217.17 1106.19 3327.71 1056.28 3513.97Z" stroke="url(#paint12_radial)" stroke-width="300"/>
<path opacity="0.05" d="M709.313 5867.52C644.989 6107.58 787.451 6354.33 1027.51 6418.66C1267.57 6482.98 1514.32 6340.52 1578.65 6100.46C1642.97 5860.4 1500.51 5613.65 1260.45 5549.32C1020.39 5485 773.637 5627.46 709.313 5867.52Z" stroke="url(#paint13_radial)" stroke-width="891.369"/>
<path opacity="0.03" d="M-272.195 1807.48C-624.763 1901.95 -833.993 2264.35 -739.522 2616.91C-645.052 2969.48 -282.655 3178.71 69.9127 3084.24C422.481 2989.77 631.711 2627.37 537.24 2274.81C442.77 1922.24 80.3735 1713.01 -272.195 1807.48Z" stroke="url(#paint14_radial)" stroke-width="600"/>
<path opacity="0.3" d="M-349.711 1518.18C-862.052 1655.47 -1166.1 2182.09 -1028.82 2694.43C-891.536 3206.77 -364.912 3510.82 147.429 3373.54C659.771 3236.25 963.817 2709.63 826.535 2197.29C689.254 1684.95 162.63 1380.9 -349.711 1518.18Z" stroke="url(#paint15_radial)"/>
<mask id="mask3" mask-type="alpha" maskUnits="userSpaceOnUse" x="0" y="6728" width="1440" height="732">
<path fill-rule="evenodd" clip-rule="evenodd" d="M1440 6906.04V7460H0V6795.59C177.381 6751.44 362.954 6728 554 6728C868.164 6728 1167.53 6791.37 1440 6906.04Z" fill="#3A4A6C"/>
</mask>
<g mask="url(#mask3)">
<g opacity="0.05">
<path opacity="0.05" d="M-51.9999 6816.5V6816.5C-51.9999 6831.87 -39.5388 6844.33 -24.1669 6844.33H-24.1664C-8.79448 6844.33 3.66663 6831.87 3.66663 6816.5V6816.5C3.66663 6801.12 -8.79448 6788.66 -24.1664 6788.66H-24.1669C-39.5388 6788.66 -51.9999 6801.12 -51.9999 6816.5Z" stroke="#F2F3FF" stroke-width="20"/>
<path opacity="0.05" d="M202.833 6716.09C189.17 6716.09 178.093 6727.17 178.093 6740.83C178.093 6754.49 189.17 6765.57 202.833 6765.57C216.497 6765.57 227.573 6754.49 227.573 6740.83C227.573 6727.17 216.497 6716.09 202.833 6716.09Z" stroke="#F2F3FF" stroke-width="5"/>
<path opacity="0.05" d="M202.834 6728.3C195.913 6728.3 190.303 6733.91 190.303 6740.83C190.303 6747.75 195.913 6753.36 202.834 6753.36C209.754 6753.36 215.364 6747.75 215.364 6740.83C215.364 6733.91 209.754 6728.3 202.834 6728.3Z" fill="#F2F3FF"/>
<path opacity="0.05" d="M170 6883.33V6901C170 6914.25 180.745 6925 194 6925H211.667C224.921 6925 235.667 6914.25 235.667 6901V6883.33C235.667 6870.08 224.921 6859.33 211.667 6859.33H194C180.745 6859.33 170 6870.08 170 6883.33Z" stroke="#F2F3FF" stroke-width="10"/>
<path opacity="0.05" d="M3.07312 6703L3.07312 6778.67H13.6664L13.6664 6703H3.07312Z" fill="#F2F3FF"/>
<mask id="mask4" mask-type="alpha" maskUnits="userSpaceOnUse" x="-62" y="6854" width="76" height="77">
<g opacity="0.05">
<path opacity="0.05" d="M-62 6854.33L-62 6930H13.6665V6854.33H-62Z" fill="#F9FAFC"/>
</g>
</mask>
<g mask="url(#mask4)">
<g opacity="0.05">
<path opacity="0.05" d="M-73.4246 6840.04L27.9689 6941.43L30.8467 6938.55L-70.5468 6837.16L-73.4246 6840.04Z" fill="#F2F3FF"/>
<path opacity="0.05" d="M-67.4633 6834.07L33.9302 6935.46L36.8083 6932.58L-64.5851 6831.19L-67.4633 6834.07Z" fill="#F2F3FF"/>
<path opacity="0.05" d="M-61.7064 6828.32L39.687 6929.71L42.5652 6926.83L-58.8283 6825.44L-61.7064 6828.32Z" fill="#F2F3FF"/>
<path opacity="0.05" d="M-55.7445 6822.36L45.6489 6923.75L48.5271 6920.87L-52.8664 6819.48L-55.7445 6822.36Z" fill="#F2F3FF"/>
<path opacity="0.05" d="M-90.898 6857.51L10.4955 6958.9L13.3736 6956.02L-88.0198 6854.63L-90.898 6857.51Z" fill="#F2F3FF"/>
<path opacity="0.05" d="M-85.1419 6851.75L16.2516 6953.14L19.1294 6950.26L-82.2641 6848.87L-85.1419 6851.75Z" fill="#F2F3FF"/>
<path opacity="0.05" d="M-79.1795 6845.79L22.214 6947.18L25.0918 6944.3L-76.3017 6842.91L-79.1795 6845.79Z" fill="#F2F3FF"/>
</g>
</g>
<mask id="mask5" mask-type="alpha" maskUnits="userSpaceOnUse" x="89" y="6778" width="76" height="77">
<g opacity="0.05">
<path opacity="0.05" d="M89.3332 6854.33H165V6778.66H89.3332L89.3332 6854.33Z" fill="#F9FAFC"/>
</g>
</mask>
<g mask="url(#mask5)">
<g opacity="0.05">
<path opacity="0.05" d="M75.0317 6865.75L176.425 6764.36L173.547 6761.48L72.1536 6862.88L75.0317 6865.75Z" fill="#F2F3FF"/>
<path opacity="0.05" d="M69.0697 6859.79L170.463 6758.4L167.585 6755.52L66.1915 6856.92L69.0697 6859.79Z" fill="#F2F3FF"/>
<path opacity="0.05" d="M63.3136 6854.04L164.707 6752.65L161.829 6749.77L60.4355 6851.17L63.3136 6854.04Z" fill="#F2F3FF"/>
<path opacity="0.05" d="M57.3526 6848.08L158.746 6746.69L155.868 6743.81L54.4745 6845.21L57.3526 6848.08Z" fill="#F2F3FF"/>
<path opacity="0.05" d="M98.4647 6889.19L199.858 6787.8L196.98 6784.92L95.5866 6886.32L98.4647 6889.19Z" fill="#F2F3FF"/>
<path opacity="0.05" d="M92.5047 6883.23L193.898 6781.84L191.02 6778.96L89.6266 6880.36L92.5047 6883.23Z" fill="#F2F3FF"/>
<path opacity="0.05" d="M86.7485 6877.47L188.142 6776.08L185.264 6773.2L83.8707 6874.6L86.7485 6877.47Z" fill="#F2F3FF"/>
<path opacity="0.05" d="M80.7875 6871.51L182.181 6770.12L179.303 6767.24L77.9097 6868.64L80.7875 6871.51Z" fill="#F2F3FF"/>
</g>
</g>
<mask id="mask6" mask-type="alpha" maskUnits="userSpaceOnUse" x="224" y="6762" width="109" height="109">
<g opacity="0.05">
<path opacity="0.05" d="M305.362 6843.36C320.197 6828.53 320.197 6804.47 305.362 6789.64C290.526 6774.8 266.474 6774.8 251.638 6789.64C236.803 6804.47 236.803 6828.53 251.638 6843.36C266.474 6858.2 290.527 6858.2 305.362 6843.36Z" fill="#F9FAFC"/>
</g>
</mask>
<g mask="url(#mask6)">
<g opacity="0.05">
<path opacity="0.05" d="M189.401 6828.24L291.209 6930.05L293.264 6927.99L191.456 6826.19L189.401 6828.24Z" fill="#F2F3FF"/>
<path opacity="0.05" d="M193.658 6823.98L295.466 6925.79L297.521 6923.74L195.713 6821.93L193.658 6823.98Z" fill="#F2F3FF"/>
<path opacity="0.05" d="M197.769 6819.87L299.577 6921.68L301.632 6919.62L199.824 6817.82L197.769 6819.87Z" fill="#F2F3FF"/>
<path opacity="0.05" d="M202.026 6815.61L303.834 6917.42L305.889 6915.36L204.081 6813.56L202.026 6815.61Z" fill="#F2F3FF"/>
<path opacity="0.05" d="M172.665 6844.97L274.473 6946.78L276.528 6944.72L174.72 6842.92L172.665 6844.97Z" fill="#F2F3FF"/>
<path opacity="0.05" d="M176.923 6840.72L278.731 6942.53L280.786 6940.47L178.978 6838.67L176.923 6840.72Z" fill="#F2F3FF"/>
<path opacity="0.05" d="M181.033 6836.61L282.841 6938.42L284.896 6936.36L183.089 6834.56L181.033 6836.61Z" fill="#F2F3FF"/>
<path opacity="0.05" d="M185.291 6832.35L287.099 6934.16L289.154 6932.1L187.346 6830.3L185.291 6832.35Z" fill="#F2F3FF"/>
<path opacity="0.05" d="M223.04 6794.6L324.848 6896.41L326.903 6894.35L225.095 6792.55L223.04 6794.6Z" fill="#F2F3FF"/>
<path opacity="0.05" d="M227.296 6790.34L329.104 6892.15L331.159 6890.09L229.352 6788.29L227.296 6790.34Z" fill="#F2F3FF"/>
<path opacity="0.05" d="M231.408 6786.23L333.216 6888.04L335.271 6885.99L233.463 6784.18L231.408 6786.23Z" fill="#F2F3FF"/>
<path opacity="0.05" d="M235.665 6781.97L337.473 6883.78L339.528 6881.72L237.72 6779.92L235.665 6781.97Z" fill="#F2F3FF"/>
<path opacity="0.05" d="M206.303 6811.33L308.111 6913.14L310.166 6911.09L208.358 6809.28L206.303 6811.33Z" fill="#F2F3FF"/>
<path opacity="0.05" d="M210.562 6807.08L312.37 6908.89L314.425 6906.84L212.617 6805.03L210.562 6807.08Z" fill="#F2F3FF"/>
<path opacity="0.05" d="M214.672 6802.97L316.48 6904.78L318.535 6902.72L216.727 6800.92L214.672 6802.97Z" fill="#F2F3FF"/>
<path opacity="0.05" d="M218.929 6798.71L320.737 6900.52L322.792 6898.46L220.984 6796.66L218.929 6798.71Z" fill="#F2F3FF"/>
<path opacity="0.05" d="M256.647 6760.99L358.455 6862.8L360.51 6860.74L258.702 6758.94L256.647 6760.99Z" fill="#F2F3FF"/>
<path opacity="0.05" d="M260.904 6756.73L362.712 6858.54L364.767 6856.49L262.959 6754.68L260.904 6756.73Z" fill="#F2F3FF"/>
<path opacity="0.05" d="M265.015 6752.62L366.823 6854.43L368.878 6852.37L267.07 6750.57L265.015 6752.62Z" fill="#F2F3FF"/>
<path opacity="0.05" d="M269.272 6748.37L371.08 6850.18L373.135 6848.12L271.327 6746.32L269.272 6748.37Z" fill="#F2F3FF"/>
<path opacity="0.05" d="M239.911 6777.73L341.719 6879.54L343.774 6877.49L241.966 6775.68L239.911 6777.73Z" fill="#F2F3FF"/>
<path opacity="0.05" d="M244.169 6773.47L345.977 6875.28L348.032 6873.22L246.224 6771.42L244.169 6773.47Z" fill="#F2F3FF"/>
<path opacity="0.05" d="M248.28 6769.36L350.088 6871.17L352.143 6869.11L250.336 6767.31L248.28 6769.36Z" fill="#F2F3FF"/>
<path opacity="0.05" d="M252.537 6765.1L354.345 6866.91L356.4 6864.85L254.592 6763.05L252.537 6765.1Z" fill="#F2F3FF"/>
<path opacity="0.05" d="M290.286 6727.35L392.094 6829.16L394.149 6827.1L292.341 6725.3L290.286 6727.35Z" fill="#F2F3FF"/>
<path opacity="0.05" d="M294.543 6723.1L396.351 6824.91L398.406 6822.85L296.598 6721.05L294.543 6723.1Z" fill="#F2F3FF"/>
<path opacity="0.05" d="M298.653 6718.99L400.461 6820.8L402.516 6818.74L300.708 6716.94L298.653 6718.99Z" fill="#F2F3FF"/>
<path opacity="0.05" d="M302.911 6714.73L404.719 6816.54L406.774 6814.49L304.966 6712.68L302.911 6714.73Z" fill="#F2F3FF"/>
<path opacity="0.05" d="M273.55 6744.09L375.358 6845.9L377.413 6843.84L275.606 6742.04L273.55 6744.09Z" fill="#F2F3FF"/>
<path opacity="0.05" d="M277.808 6739.83L379.616 6841.64L381.671 6839.59L279.863 6737.78L277.808 6739.83Z" fill="#F2F3FF"/>
<path opacity="0.05" d="M281.919 6735.72L383.727 6837.53L385.782 6835.47L283.974 6733.67L281.919 6735.72Z" fill="#F2F3FF"/>
<path opacity="0.05" d="M286.176 6731.46L387.984 6833.27L390.039 6831.21L288.231 6729.41L286.176 6731.46Z" fill="#F2F3FF"/>
</g>
</g>
<mask id="mask7" mask-type="alpha" maskUnits="userSpaceOnUse" x="316" y="6703" width="76" height="76">
<g opacity="0.05">
<path opacity="0.05" d="M316.333 6778.67H392V6703H316.333V6778.67Z" fill="#F9FAFC"/>
</g>
</mask>
<g mask="url(#mask7)">
<g opacity="0.05">
<path opacity="0.05" d="M282.47 6738.61H425.862V6734.16H282.47V6738.61Z" fill="#F2F3FF"/>
<path opacity="0.05" d="M282.47 6729.38H425.862V6724.92H282.47V6729.38Z" fill="#F2F3FF"/>
<path opacity="0.05" d="M282.47 6774.88H425.862V6770.42H282.47V6774.88Z" fill="#F2F3FF"/>
<path opacity="0.05" d="M282.471 6765.66H425.863V6761.2H282.471V6765.66Z" fill="#F2F3FF"/>
<path opacity="0.05" d="M282.47 6756.75H425.862V6752.29H282.47V6756.75Z" fill="#F2F3FF"/>
<path opacity="0.05" d="M282.471 6747.52H425.863V6743.06H282.471V6747.52Z" fill="#F2F3FF"/>
</g>
</g>
<mask id="mask8" mask-type="alpha" maskUnits="userSpaceOnUse" x="16" y="6781" width="71" height="71">
<g opacity="0.05">
<path opacity="0.05" fill-rule="evenodd" clip-rule="evenodd" d="M16.9268 6851.31L16.6934 6851.07V6841.58L76.5802 6781.69H86.2136L86.3067 6781.79V6790.48L25.4821 6851.31H16.9268Z" fill="white"/>
</g>
</mask>
<g mask="url(#mask8)">
<path opacity="0.05" fill-rule="evenodd" clip-rule="evenodd" d="M16.9268 6851.31L16.6934 6851.07V6841.58L76.5802 6781.69H86.2136L86.3067 6781.79V6790.48L25.4821 6851.31H16.9268Z" fill="#F2F3FF"/>
<path opacity="0.05" d="M16.9268 6851.31L14.0984 6854.14L15.27 6855.31H16.9268V6851.31ZM16.6934 6851.07H12.6934V6852.73L13.865 6853.9L16.6934 6851.07ZM16.6934 6841.58L13.8649 6838.75L12.6934 6839.92V6841.58H16.6934ZM76.5802 6781.69V6777.69H74.9233L73.7517 6778.86L76.5802 6781.69ZM86.2136 6781.69L89.042 6778.86L87.8705 6777.69H86.2136V6781.69ZM86.3067 6781.79H90.3067V6780.13L89.1351 6778.96L86.3067 6781.79ZM86.3067 6790.48L89.1351 6793.31L90.3067 6792.14V6790.48H86.3067ZM25.4821 6851.31V6855.31H27.1389L28.3105 6854.14L25.4821 6851.31ZM19.7552 6848.48L19.5218 6848.24L13.865 6853.9L14.0984 6854.14L19.7552 6848.48ZM20.6934 6851.07V6841.58H12.6934V6851.07H20.6934ZM19.5218 6844.41L79.4086 6784.52L73.7517 6778.86L13.8649 6838.75L19.5218 6844.41ZM76.5802 6785.69H86.2136V6777.69H76.5802V6785.69ZM83.3852 6784.52L83.4783 6784.61L89.1351 6778.96L89.042 6778.86L83.3852 6784.52ZM82.3067 6781.79V6790.48H90.3067V6781.79H82.3067ZM83.4783 6787.65L22.6537 6848.48L28.3105 6854.14L89.1351 6793.31L83.4783 6787.65ZM25.4821 6847.31H16.9268V6855.31H25.4821V6847.31Z" fill="#F2F3FF"/>
</g>
<mask id="mask9" mask-type="alpha" maskUnits="userSpaceOnUse" x="16" y="6781" width="71" height="71">
<g opacity="0.05">
<path opacity="0.05" fill-rule="evenodd" clip-rule="evenodd" d="M86.3067 6851.07L86.0722 6851.31H76.5804L16.6934 6791.42V6781.79L16.7854 6781.69H25.4823L86.3067 6842.52V6851.07Z" fill="white"/>
</g>
</mask>
<g mask="url(#mask9)">
<path opacity="0.05" d="M86.3067 6851.07L88.428 6853.19L89.3067 6852.32V6851.07H86.3067ZM86.0722 6851.31V6854.31H87.3148L88.1935 6853.43L86.0722 6851.31ZM76.5804 6851.31L74.4591 6853.43L75.3378 6854.31H76.5804V6851.31ZM16.6934 6791.42H13.6934V6792.66L14.572 6793.54L16.6934 6791.42ZM16.6934 6781.79L14.5721 6779.66L13.6934 6780.54V6781.79H16.6934ZM16.7854 6781.69V6778.69H15.5428L14.6641 6779.57L16.7854 6781.69ZM25.4823 6781.69L27.6036 6779.57L26.7249 6778.69H25.4823V6781.69ZM86.3067 6842.52H89.3067V6841.28L88.428 6840.4L86.3067 6842.52ZM84.1854 6848.95L83.9509 6849.19L88.1935 6853.43L88.428 6853.19L84.1854 6848.95ZM86.0722 6848.31H76.5804V6854.31H86.0722V6848.31ZM78.7017 6849.19L18.8147 6789.3L14.572 6793.54L74.4591 6853.43L78.7017 6849.19ZM19.6934 6791.42V6781.79H13.6934V6791.42H19.6934ZM18.8146 6783.91L18.9067 6783.82L14.6641 6779.57L14.5721 6779.66L18.8146 6783.91ZM16.7854 6784.69H25.4823V6778.69H16.7854V6784.69ZM23.361 6783.82L84.1854 6844.64L88.428 6840.4L27.6036 6779.57L23.361 6783.82ZM83.3067 6842.52V6851.07H89.3067V6842.52H83.3067Z" fill="#F2F3FF"/>
</g>
<mask id="mask10" mask-type="alpha" maskUnits="userSpaceOnUse" x="276" y="6738" width="38" height="38">
<g opacity="0.05">
<path opacity="0.05" fill-rule="evenodd" clip-rule="evenodd" d="M276.354 6775.64L276.229 6775.52V6770.46L308.126 6738.56H313.257L313.306 6738.61V6743.25L280.911 6775.64H276.354Z" fill="white"/>
</g>
</mask>
<g mask="url(#mask10)">
<path opacity="0.05" fill-rule="evenodd" clip-rule="evenodd" d="M276.354 6775.64L276.229 6775.52V6770.46L308.126 6738.56H313.257L313.306 6738.61V6743.25L280.911 6775.64H276.354Z" fill="#F2F3FF"/>
<path opacity="0.05" d="M276.354 6775.64L273.525 6778.47L274.697 6779.64H276.354V6775.64ZM276.229 6775.52H272.229V6777.17L273.401 6778.34L276.229 6775.52ZM276.229 6770.46L273.401 6767.63L272.229 6768.8V6770.46H276.229ZM308.126 6738.56V6734.56H306.469L305.297 6735.74L308.126 6738.56ZM313.257 6738.56L316.085 6735.74L314.913 6734.56H313.257V6738.56ZM313.306 6738.61H317.306V6736.96L316.135 6735.79L313.306 6738.61ZM313.306 6743.25L316.135 6746.07L317.306 6744.9V6743.25H313.306ZM280.911 6775.64V6779.64H282.567L283.739 6778.47L280.911 6775.64ZM279.182 6772.81L279.058 6772.69L273.401 6778.34L273.525 6778.47L279.182 6772.81ZM280.229 6775.52V6770.46H272.229V6775.52H280.229ZM279.058 6773.29L310.954 6741.39L305.297 6735.74L273.401 6767.63L279.058 6773.29ZM308.126 6742.56H313.257V6734.56H308.126V6742.56ZM310.428 6741.39L310.478 6741.44L316.135 6735.79L316.085 6735.74L310.428 6741.39ZM309.306 6738.61V6743.25H317.306V6738.61H309.306ZM310.478 6740.42L278.082 6772.81L283.739 6778.47L316.135 6746.07L310.478 6740.42ZM280.911 6771.64H276.354V6779.64H280.911V6771.64Z" fill="#F2F3FF"/>
</g>
<mask id="mask11" mask-type="alpha" maskUnits="userSpaceOnUse" x="276" y="6738" width="38" height="38">
<g opacity="0.05">
<path opacity="0.05" fill-rule="evenodd" clip-rule="evenodd" d="M276.229 6738.69L276.354 6738.56H281.41L313.306 6770.46V6775.59L313.257 6775.64H308.625L276.229 6743.24V6738.69Z" fill="white"/>
</g>
</mask>
<g mask="url(#mask11)">
<path opacity="0.05" fill-rule="evenodd" clip-rule="evenodd" d="M276.229 6738.69L276.354 6738.56H281.41L313.306 6770.46V6775.59L313.257 6775.64H308.625L276.229 6743.24V6738.69Z" fill="#F2F3FF"/>
<path opacity="0.05" d="M276.229 6738.69L273.401 6735.86L272.229 6737.03V6738.69H276.229ZM276.354 6738.56V6734.56H274.698L273.526 6735.74L276.354 6738.56ZM281.41 6738.56L284.238 6735.74L283.067 6734.56H281.41V6738.56ZM313.306 6770.46H317.306V6768.8L316.135 6767.63L313.306 6770.46ZM313.306 6775.59L316.135 6778.42L317.306 6777.25V6775.59H313.306ZM313.257 6775.64V6779.64H314.914L316.086 6778.47L313.257 6775.64ZM308.625 6775.64L305.797 6778.47L306.968 6779.64H308.625V6775.64ZM276.229 6743.24H272.229V6744.9L273.401 6746.07L276.229 6743.24ZM279.058 6741.52L279.183 6741.39L273.526 6735.74L273.401 6735.86L279.058 6741.52ZM276.354 6742.56H281.41V6734.56H276.354V6742.56ZM278.581 6741.39L310.478 6773.29L316.135 6767.63L284.238 6735.74L278.581 6741.39ZM309.306 6770.46V6775.59H317.306V6770.46H309.306ZM310.478 6772.76L310.429 6772.81L316.086 6778.47L316.135 6778.42L310.478 6772.76ZM313.257 6771.64H308.625V6779.64H313.257V6771.64ZM311.454 6772.81L279.058 6740.42L273.401 6746.07L305.797 6778.47L311.454 6772.81ZM280.229 6743.24V6738.69H272.229V6743.24H280.229Z" fill="#F2F3FF"/>
</g>
<mask id="mask12" mask-type="alpha" maskUnits="userSpaceOnUse" x="244" y="6706" width="38" height="38">
<g opacity="0.05">
<path opacity="0.05" fill-rule="evenodd" clip-rule="evenodd" d="M244.575 6743.86L244.45 6743.74V6738.68L276.345 6706.78H281.478L281.526 6706.83V6711.46L249.13 6743.86H244.575Z" fill="white"/>
</g>
</mask>
<g mask="url(#mask12)">
<path opacity="0.05" fill-rule="evenodd" clip-rule="evenodd" d="M244.575 6743.86L244.45 6743.74V6738.68L276.345 6706.78H281.478L281.526 6706.83V6711.46L249.13 6743.86H244.575Z" fill="#F2F3FF"/>
<path opacity="0.05" d="M244.575 6743.86L241.746 6746.69L242.918 6747.86H244.575V6743.86ZM244.45 6743.74H240.45V6745.39L241.621 6746.56L244.45 6743.74ZM244.45 6738.68L241.621 6735.85L240.45 6737.02V6738.68H244.45ZM276.345 6706.78V6702.78H274.689L273.517 6703.96L276.345 6706.78ZM281.478 6706.78L284.306 6703.96L283.134 6702.78H281.478V6706.78ZM281.526 6706.83H285.526V6705.18L284.355 6704L281.526 6706.83ZM281.526 6711.46L284.355 6714.29L285.526 6713.12V6711.46H281.526ZM249.13 6743.86V6747.86H250.787L251.959 6746.69L249.13 6743.86ZM247.403 6741.03L247.278 6740.91L241.621 6746.56L241.746 6746.69L247.403 6741.03ZM248.45 6743.74V6738.68H240.45V6743.74H248.45ZM247.278 6741.51L279.174 6709.61L273.517 6703.96L241.621 6735.85L247.278 6741.51ZM276.345 6710.78H281.478V6702.78H276.345V6710.78ZM278.649 6709.61L278.698 6709.66L284.355 6704L284.306 6703.96L278.649 6709.61ZM277.526 6706.83V6711.46H285.526V6706.83H277.526ZM278.698 6708.64L246.302 6741.03L251.959 6746.69L284.355 6714.29L278.698 6708.64ZM249.13 6739.86H244.575V6747.86H249.13V6739.86Z" fill="#F2F3FF"/>
</g>
<mask id="mask13" mask-type="alpha" maskUnits="userSpaceOnUse" x="244" y="6706" width="38" height="38">
<g opacity="0.05">
<path opacity="0.05" fill-rule="evenodd" clip-rule="evenodd" d="M244.45 6706.91L244.574 6706.78H249.631L281.526 6738.68V6743.81L281.477 6743.86H276.846L244.45 6711.46V6706.91Z" fill="white"/>
</g>
</mask>
<g mask="url(#mask13)">
<path opacity="0.05" fill-rule="evenodd" clip-rule="evenodd" d="M244.45 6706.91L244.574 6706.78H249.631L281.526 6738.68V6743.81L281.477 6743.86H276.846L244.45 6711.46V6706.91Z" fill="#F2F3FF"/>
<path opacity="0.05" d="M244.45 6706.91L241.621 6704.08L240.45 6705.25V6706.91H244.45ZM244.574 6706.78V6702.78H242.917L241.745 6703.96L244.574 6706.78ZM249.631 6706.78L252.459 6703.96L251.288 6702.78H249.631V6706.78ZM281.526 6738.68H285.526V6737.02L284.355 6735.85L281.526 6738.68ZM281.526 6743.81L284.355 6746.64L285.526 6745.47V6743.81H281.526ZM281.477 6743.86V6747.86H283.134L284.305 6746.69L281.477 6743.86ZM276.846 6743.86L274.018 6746.69L275.189 6747.86H276.846V6743.86ZM244.45 6711.46H240.45V6713.12L241.621 6714.29L244.45 6711.46ZM247.278 6709.74L247.402 6709.61L241.745 6703.96L241.621 6704.08L247.278 6709.74ZM244.574 6710.78H249.631V6702.78H244.574V6710.78ZM246.802 6709.61L278.698 6741.51L284.355 6735.85L252.459 6703.96L246.802 6709.61ZM277.526 6738.68V6743.81H285.526V6738.68H277.526ZM278.698 6740.98L278.648 6741.03L284.305 6746.69L284.355 6746.64L278.698 6740.98ZM281.477 6739.86H276.846V6747.86H281.477V6739.86ZM279.675 6741.03L247.278 6708.64L241.621 6714.29L274.018 6746.69L279.675 6741.03ZM248.45 6711.46V6706.91H240.45V6711.46H248.45Z" fill="#F2F3FF"/>
</g>
</g>
</g>
</g>
<defs>
<filter id="filter0_d" x="-4" y="0" width="1448" height="1042" filterUnits="userSpaceOnUse" color-interpolation-filters="sRGB">
<feFlood flood-opacity="0" result="BackgroundImageFix"/>
<feColorMatrix in="SourceAlpha" type="matrix" values="0 0 0 0 0 0 0 0 0 0 0 0 0 0 0 0 0 0 127 0"/>
<feOffset dy="4"/>
<feGaussianBlur stdDeviation="2"/>
<feColorMatrix type="matrix" values="0 0 0 0 0 0 0 0 0 0 0 0 0 0 0 0 0 0 0.25 0"/>
<feBlend mode="normal" in2="BackgroundImageFix" result="effect1_dropShadow"/>
<feBlend mode="normal" in="SourceGraphic" in2="effect1_dropShadow" result="shape"/>
</filter>
<linearGradient id="paint0_linear" x1="-193.5" y1="203" x2="1348.5" y2="1000.5" gradientUnits="userSpaceOnUse">
<stop stop-color="#565BEA"/>
<stop offset="1" stop-color="#464BDE" stop-opacity="0"/>
</linearGradient>
<linearGradient id="paint1_linear" x1="-198" y1="596.5" x2="1348.5" y2="1000.5" gradientUnits="userSpaceOnUse">
<stop offset="0.077166" stop-color="#565BEA"/>
<stop offset="1" stop-color="#464BDE" stop-opacity="0"/>
</linearGradient>
<linearGradient id="paint2_linear" x1="-1067.5" y1="218.5" x2="963" y2="950" gradientUnits="userSpaceOnUse">
<stop stop-color="white"/>
<stop offset="1" stop-color="white" stop-opacity="0"/>
</linearGradient>
<linearGradient id="paint3_linear" x1="65.5001" y1="133" x2="1607.5" y2="930.5" gradientUnits="userSpaceOnUse">
<stop stop-color="#565BEA"/>
<stop offset="1" stop-color="#464BDE" stop-opacity="0"/>
</linearGradient>
<linearGradient id="paint4_linear" x1="91" y1="264" x2="1607.5" y2="930.5" gradientUnits="userSpaceOnUse">
<stop stop-color="#565BEA"/>
<stop offset="1" stop-color="#464BDE" stop-opacity="0"/>
</linearGradient>
<linearGradient id="paint5_linear" x1="-578" y1="-325" x2="1425" y2="881" gradientUnits="userSpaceOnUse">
<stop stop-color="white"/>
<stop offset="1" stop-color="white" stop-opacity="0"/>
</linearGradient>
<linearGradient id="paint6_linear" x1="547.522" y1="241.264" x2="1587.08" y2="778.91" gradientUnits="userSpaceOnUse">
<stop stop-color="#565BEA"/>
<stop offset="1" stop-color="#464BDE" stop-opacity="0"/>
</linearGradient>
<linearGradient id="paint7_linear" x1="-41.9999" y1="-211.5" x2="1360.5" y2="757" gradientUnits="userSpaceOnUse">
<stop stop-color="white"/>
<stop offset="1" stop-color="white" stop-opacity="0"/>
</linearGradient>
<linearGradient id="paint8_linear" x1="825.5" y1="219" x2="2055.08" y2="755.91" gradientUnits="userSpaceOnUse">
<stop stop-color="#565BEA"/>
<stop offset="1" stop-color="#464BDE" stop-opacity="0"/>
</linearGradient>
<linearGradient id="paint9_linear" x1="327.5" y1="-354.5" x2="1579" y2="707" gradientUnits="userSpaceOnUse">
<stop stop-color="white"/>
<stop offset="1" stop-color="white" stop-opacity="0"/>
</linearGradient>
<radialGradient id="paint10_radial" cx="0" cy="0" r="1" gradientUnits="userSpaceOnUse" gradientTransform="translate(1266.88 802.503) rotate(14.6086) scale(835.168)">
<stop stop-color="#565BEA"/>
<stop offset="1" stop-color="#464BDE" stop-opacity="0"/>
</radialGradient>
<radialGradient id="paint11_radial" cx="0" cy="0" r="1" gradientUnits="userSpaceOnUse" gradientTransform="translate(979.932 1540.15) rotate(-65.1766) scale(506.08)">
<stop stop-color="#565BEA"/>
<stop offset="1" stop-color="#464BDE" stop-opacity="0"/>
</radialGradient>
<radialGradient id="paint12_radial" cx="0" cy="0" r="1" gradientUnits="userSpaceOnUse" gradientTransform="translate(1174.17 2992.99) rotate(80.1766) scale(985.409)">
<stop stop-color="#565BEA"/>
<stop offset="1" stop-color="#464BDE" stop-opacity="0"/>
</radialGradient>
<radialGradient id="paint13_radial" cx="0" cy="0" r="1" gradientUnits="userSpaceOnUse" gradientTransform="translate(1198.5 5921.77) rotate(180) scale(792.974)">
<stop stop-color="#565BEA"/>
<stop offset="1" stop-color="#464BDE" stop-opacity="0"/>
</radialGradient>
<radialGradient id="paint14_radial" cx="0" cy="0" r="1" gradientUnits="userSpaceOnUse" gradientTransform="translate(706.902 1491.72) rotate(140.177) scale(1896.95)">
<stop stop-color="#565BEA"/>
<stop offset="1" stop-color="#464BDE" stop-opacity="0"/>
</radialGradient>
<radialGradient id="paint15_radial" cx="0" cy="0" r="1" gradientUnits="userSpaceOnUse" gradientTransform="translate(706.902 1491.72) rotate(140.177) scale(1896.95)">
<stop stop-color="#565BEA"/>
<stop offset="1" stop-color="#464BDE" stop-opacity="0"/>
</radialGradient>
</defs>
</svg>
