<svg width="98" height="98" viewBox="0 0 98 98" fill="none" xmlns="http://www.w3.org/2000/svg">
<circle cx="49" cy="49" r="49" fill="#4448DB"/>
<mask id="mask0" mask-type="alpha" maskUnits="userSpaceOnUse" x="0" y="0" width="98" height="98">
<circle cx="49" cy="49" r="49" fill="#4448DB"/>
</mask>
<g mask="url(#mask0)">
<circle cx="17" cy="81" r="22.5" stroke="white" stroke-opacity="0.1"/>
<circle cx="84" cy="17" r="49" fill="#4B4FE6"/>
<circle cx="82.5" cy="30.5" r="50" stroke="url(#paint0_radial)" stroke-opacity="0.1" stroke-width="45"/>
<circle cx="74.5" cy="-4.5" r="63.4" stroke="white" stroke-opacity="0.2" stroke-width="0.2"/>
<circle cx="9.5" cy="116.5" r="39.4" stroke="white" stroke-opacity="0.2" stroke-width="0.2"/>
</g>
<g clip-path="url(#clip0)">
<path opacity="0.6" d="M37.75 31.3228C37.75 30.0399 36.7007 29 35.4062 29C34.1118 29 33.0625 30.0399 33.0625 31.3228V36.3556C33.0625 36.997 33.5872 37.517 34.2344 37.517H37.75V31.3228Z" fill="white"/>
<path d="M51.8125 49.9829H57.2812V61.597H51.8125V49.9829Z" fill="white"/>
<path d="M64.7031 29H39.4631C39.8634 29.6839 40.0938 30.4769 40.0938 31.3228V51.5314H49.4688V49.9828H49.0781C48.4309 49.9828 47.9063 49.4628 47.9063 48.8214C47.9063 48.18 48.4309 47.66 49.0781 47.66H60.0156C60.6628 47.66 61.1875 48.18 61.1875 48.8214C61.1875 49.4628 60.6628 49.9828 60.0156 49.9828H59.625V61.597H60.0156C60.6628 61.597 61.1875 62.117 61.1875 62.7584C61.1875 63.3998 60.6628 63.9198 60.0156 63.9198H49.0781C48.4309 63.9198 47.9063 63.3998 47.9063 62.7584C47.9063 62.117 48.4309 61.597 49.0781 61.597H49.4688V60.0484H40.0938V67.4814C40.0938 68.1229 40.6184 68.6429 41.2656 68.6429H67.8281C68.4753 68.6429 69 68.1229 69 67.4814V33.2585C69 30.9104 67.0724 29 64.7031 29ZM63.1406 43.0144H45.9531C45.3059 43.0144 44.7813 42.4944 44.7813 41.853C44.7813 41.2115 45.3059 40.6915 45.9531 40.6915H63.1406C63.7878 40.6915 64.3125 41.2115 64.3125 41.853C64.3125 42.4944 63.7878 43.0144 63.1406 43.0144ZM63.1406 38.3687H45.9531C45.3059 38.3687 44.7813 37.8487 44.7813 37.2073C44.7813 36.5659 45.3059 36.0459 45.9531 36.0459H63.1406C63.7878 36.0459 64.3125 36.5659 64.3125 37.2073C64.3125 37.8487 63.7878 38.3687 63.1406 38.3687Z" fill="#9A9CF3"/>
<path d="M29 55.7899C29 56.859 29.8745 57.7256 30.9531 57.7256H33.6875V53.8542H30.9531C29.8745 53.8542 29 54.7209 29 55.7899Z" fill="white"/>
<path d="M36.0312 53.8542H49.4688V57.7256H36.0312V53.8542Z" fill="white"/>
</g>
<defs>
<radialGradient id="paint0_radial" cx="0" cy="0" r="1" gradientUnits="userSpaceOnUse" gradientTransform="translate(15 6.5) rotate(58.6472) scale(88.4096)">
<stop stop-color="white"/>
<stop offset="1" stop-color="white" stop-opacity="0"/>
</radialGradient>
<clipPath id="clip0">
<rect width="40" height="39.6429" fill="white" transform="translate(29 29)"/>
</clipPath>
</defs>
</svg>
