<svg width="24" height="24" viewBox="0 0 24 24" fill="none" xmlns="http://www.w3.org/2000/svg">
<g clip-path="url(#clip0)">
<path d="M8.68382 24.0005C5.1119 23.9799 2.15727 16.6884 2.15727 12.975C2.15727 6.90922 6.70766 5.58125 8.46135 5.58125C9.25166 5.58125 10.0956 5.89161 10.8399 6.16625C11.3604 6.35783 11.8987 6.5556 12.1981 6.5556C12.3773 6.5556 12.7996 6.38736 13.1724 6.23975C13.9676 5.92321 14.957 5.52979 16.1092 5.52979C16.1113 5.52979 16.114 5.52979 16.116 5.52979C16.9764 5.52979 19.585 5.7186 21.1533 8.07378L21.5206 8.62583L20.9919 9.02479C20.2366 9.59469 18.8585 10.6343 18.8585 12.6936C18.8585 15.1325 20.4193 16.0705 21.1691 16.5216C21.5001 16.7207 21.8427 16.926 21.8427 17.3751C21.8427 17.6683 19.5026 23.9641 16.1044 23.9641C15.2728 23.9641 14.6851 23.7142 14.1666 23.4938C13.6421 23.2706 13.1895 23.0784 12.4418 23.0784C12.0628 23.0784 11.5835 23.2576 11.076 23.4478C10.3826 23.7066 9.59774 24.0005 8.70716 24.0005H8.68382Z" fill="white"/>
<path d="M16.4692 0.000488281C16.5577 3.19155 14.2756 5.40536 11.9961 5.26652C11.6205 2.71994 14.2753 0.000488281 16.4692 0.000488281Z" fill="white"/>
</g>
<defs>
<clipPath id="clip0">
<rect width="24" height="24" fill="white" transform="translate(0 0.000488281)"/>
</clipPath>
</defs>
</svg>
