<svg width="48" height="48" viewBox="0 0 48 48" fill="none" xmlns="http://www.w3.org/2000/svg">
<rect x="1" y="1" width="46" height="46" rx="5" stroke="white" stroke-width="2"/>
<path d="M31.74 20.3302L26.3 14.3302C26.2065 14.2266 26.0924 14.1437 25.9649 14.0869C25.8375 14.03 25.6995 14.0005 25.56 14.0002H18.56C18.2277 13.9962 17.898 14.0577 17.5895 14.1812C17.281 14.3047 16.9999 14.4878 16.7622 14.7199C16.5245 14.9521 16.3348 15.2288 16.204 15.5342C16.0732 15.8397 16.0039 16.1679 16 16.5002V31.5002C16.0039 31.8324 16.0732 32.1607 16.204 32.4661C16.3348 32.7716 16.5245 33.0483 16.7622 33.2804C16.9999 33.5126 17.281 33.6956 17.5895 33.8191C17.898 33.9426 18.2277 34.0041 18.56 34.0002H29.44C29.7723 34.0041 30.102 33.9426 30.4105 33.8191C30.719 33.6956 31.0001 33.5126 31.2378 33.2804C31.4755 33.0483 31.6652 32.7716 31.796 32.4661C31.9268 32.1607 31.9961 31.8324 32 31.5002V21.0002C31.9994 20.7523 31.9067 20.5136 31.74 20.3302ZM26 17.0002L28.74 20.0002H26.74C26.6353 19.9939 26.5329 19.9667 26.4387 19.9204C26.3446 19.8741 26.2607 19.8095 26.1918 19.7303C26.1229 19.6512 26.0704 19.5592 26.0375 19.4596C26.0046 19.3599 25.9918 19.2548 26 19.1502V17.0002ZM29.44 32.0002H18.56C18.4904 32.0042 18.4206 31.9945 18.3548 31.9715C18.2889 31.9486 18.2282 31.9129 18.1762 31.8664C18.1242 31.82 18.0818 31.7637 18.0516 31.7009C18.0214 31.638 18.0038 31.5698 18 31.5002V16.5002C18.0038 16.4305 18.0214 16.3623 18.0516 16.2995C18.0818 16.2366 18.1242 16.1804 18.1762 16.1339C18.2282 16.0875 18.2889 16.0518 18.3548 16.0288C18.4206 16.0059 18.4904 15.9961 18.56 16.0002H24V19.1502C23.9839 19.8868 24.2598 20.5999 24.7675 21.1339C25.2752 21.6678 25.9735 21.9792 26.71 22.0002H30V31.5002C29.9962 31.5698 29.9786 31.638 29.9484 31.7009C29.9182 31.7637 29.8758 31.82 29.8238 31.8664C29.7718 31.9129 29.7111 31.9486 29.6452 31.9715C29.5794 31.9945 29.5096 32.0042 29.44 32.0002Z" fill="white"/>
<path d="M26 25H22C21.7348 25 21.4804 25.1054 21.2929 25.2929C21.1054 25.4804 21 25.7348 21 26C21 26.2652 21.1054 26.5196 21.2929 26.7071C21.4804 26.8946 21.7348 27 22 27H26C26.2652 27 26.5196 26.8946 26.7071 26.7071C26.8946 26.5196 27 26.2652 27 26C27 25.7348 26.8946 25.4804 26.7071 25.2929C26.5196 25.1054 26.2652 25 26 25Z" fill="white"/>
</svg>
