<svg width="232" height="232" viewBox="0 0 232 232" fill="none" xmlns="http://www.w3.org/2000/svg">
<path d="M139.91 172.71L186.74 148.23C187.928 147.609 189.228 147.228 190.563 147.109C191.899 146.99 193.245 147.135 194.525 147.536C195.804 147.937 196.992 148.586 198.021 149.447C199.05 150.307 199.899 151.361 200.52 152.55C201.141 153.738 201.522 155.038 201.641 156.373C201.76 157.709 201.615 159.055 201.214 160.335C200.813 161.614 200.164 162.802 199.303 163.831C198.443 164.86 197.388 165.709 196.2 166.33L131.5 200.16C128.583 201.673 125.31 202.364 122.03 202.16L75.31 199.29L60 212.09L31.56 180.78L42.44 171.39C45.3372 168.936 48.1043 166.332 50.73 163.59C54.6346 159.553 59.3014 156.331 64.46 154.11C74.813 149.573 86.3187 148.361 97.39 150.64L132.39 157.64C132.971 157.768 133.539 157.945 134.09 158.17C135.452 158.719 136.689 159.537 137.726 160.577C138.763 161.616 139.579 162.855 140.124 164.218C140.67 165.581 140.934 167.041 140.901 168.509C140.867 169.977 140.537 171.423 139.93 172.76L139.91 172.71Z" fill="white"/>
<path d="M165.4 150.54L140 163.84C138.858 161.238 136.744 159.185 134.11 158.12L153 148.23C155.027 147.169 157.351 146.82 159.6 147.238C161.849 147.657 163.892 148.82 165.4 150.54Z" fill="#BFC0F3"/>
<path d="M186.75 148.23L139.92 172.71C140.551 171.318 140.881 169.809 140.89 168.28C140.899 166.752 140.585 165.239 139.97 163.84L165.41 150.54L174.32 145.88C176.354 144.818 178.688 144.472 180.943 144.898C183.198 145.324 185.244 146.498 186.75 148.23Z" fill="#BFC0F3"/>
<path d="M33.76 178.94L62.23 210.25L49.98 220.49L21.51 189.18L33.76 178.94Z" fill="#BFC0F3"/>
<path d="M116.62 112.13H23.13L38.45 95.0299L23.13 77.9199H116.62V112.13Z" fill="white"/>
<path d="M116.62 113.13H23.13C22.9378 113.13 22.7498 113.074 22.5884 112.97C22.427 112.865 22.2991 112.717 22.22 112.542C22.1409 112.367 22.1139 112.172 22.1422 111.982C22.1706 111.792 22.2532 111.614 22.38 111.47L37.1 95L22.38 78.59C22.2499 78.4459 22.1645 78.267 22.1344 78.0752C22.1042 77.8835 22.1305 77.687 22.21 77.51C22.2896 77.3329 22.4189 77.1829 22.5823 77.0781C22.7456 76.9734 22.936 76.9184 23.13 76.92H116.62C116.885 76.92 117.14 77.0253 117.327 77.2128C117.515 77.4004 117.62 77.6547 117.62 77.92V112.13C117.62 112.395 117.515 112.65 117.327 112.837C117.14 113.025 116.885 113.13 116.62 113.13ZM25.36 111.13H115.62V78.92H25.36L39.19 94.36C39.3531 94.5431 39.4432 94.7797 39.4432 95.025C39.4432 95.2702 39.3531 95.5068 39.19 95.69L25.36 111.13Z" fill="#4448DB"/>
<path d="M116.15 112.13H209.64L194.32 95.0299L209.64 77.9199H116.15V112.13Z" fill="white"/>
<path d="M209.64 113.13H116.15C115.885 113.13 115.63 113.025 115.443 112.837C115.255 112.65 115.15 112.395 115.15 112.13V77.92C115.15 77.6547 115.255 77.4004 115.443 77.2128C115.63 77.0253 115.885 76.92 116.15 76.92H209.64C209.834 76.9184 210.024 76.9734 210.188 77.0781C210.351 77.1829 210.48 77.3329 210.56 77.51C210.64 77.687 210.666 77.8835 210.636 78.0752C210.605 78.267 210.52 78.4459 210.39 78.59L195.67 95L210.39 111.44C210.517 111.584 210.599 111.762 210.628 111.952C210.656 112.142 210.629 112.337 210.55 112.512C210.471 112.687 210.343 112.835 210.182 112.94C210.02 113.044 209.832 113.1 209.64 113.1V113.13ZM117.15 111.13H207.41L193.58 95.69C193.417 95.5068 193.327 95.2702 193.327 95.025C193.327 94.7797 193.417 94.5431 193.58 94.36L207.41 78.92H117.15V111.13Z" fill="#4448DB"/>
<path d="M161.27 95.0301L151.46 106.5L152.65 121.55L137.97 125.06L130.09 137.95L116.15 132.15L102.2 137.95L94.33 125.06L79.64 121.55L80.83 106.5L71.03 95.0301L80.83 83.5501L79.64 68.5001L94.33 64.9901L102.2 52.1001L116.15 57.9101L130.09 52.1001L137.97 64.9901L152.65 68.5001L151.46 83.5501L161.27 95.0301Z" fill="#BFC0F3"/>
<path d="M116.15 122.44C110.727 122.442 105.426 120.836 100.916 117.825C96.4056 114.814 92.8895 110.534 90.812 105.525C88.7345 100.516 88.1889 95.0033 89.2442 89.6842C90.2995 84.3651 92.9082 79.4784 96.7405 75.6418C100.573 71.8053 105.457 69.1912 110.775 68.1302C116.093 67.0691 121.606 67.6086 126.617 69.6806C131.628 71.7526 135.913 75.264 138.928 79.7708C141.944 84.2776 143.556 89.5774 143.56 95.0001C143.557 102.272 140.67 109.245 135.531 114.39C130.392 119.534 123.422 122.43 116.15 122.44ZM116.15 69.6101C111.121 69.6081 106.204 71.0981 102.022 73.8914C97.8393 76.6847 94.5796 80.6558 92.655 85.3023C90.7304 89.9488 90.2273 95.0617 91.2094 99.9942C92.1916 104.927 94.6148 109.457 98.1724 113.012C101.73 116.567 106.262 118.986 111.196 119.965C116.129 120.943 121.241 120.436 125.886 118.507C130.531 116.579 134.5 113.316 137.29 109.132C140.08 104.947 141.566 100.029 141.56 95.0001C141.544 88.2677 138.861 81.8158 134.099 77.0571C129.336 72.2984 122.882 69.6207 116.15 69.6101Z" fill="white"/>
<path d="M113.2 104.05C112.672 104.051 112.165 103.842 111.79 103.47L104.26 95.9302C103.916 95.5492 103.732 95.0504 103.745 94.5372C103.759 94.0239 103.969 93.5356 104.333 93.1732C104.696 92.8108 105.186 92.6021 105.699 92.5904C106.212 92.5787 106.71 92.7648 107.09 93.1102L113.2 99.2202L127.2 85.2202C127.378 85.0056 127.6 84.8307 127.85 84.7068C128.1 84.5828 128.373 84.5125 128.652 84.5004C128.93 84.4883 129.209 84.5347 129.468 84.6366C129.728 84.7384 129.964 84.8935 130.16 85.0919C130.356 85.2902 130.509 85.5275 130.608 85.7883C130.707 86.0491 130.75 86.3278 130.735 86.6065C130.72 86.8851 130.647 87.1575 130.52 87.4061C130.394 87.6548 130.217 87.8742 130 88.0502L114.58 103.47C114.212 103.835 113.718 104.043 113.2 104.05Z" fill="#4448DB"/>
<path d="M50 222.49C49.7217 222.491 49.4462 222.433 49.1914 222.321C48.9366 222.209 48.7079 222.045 48.52 221.84L20 190.53C19.8192 190.332 19.6801 190.099 19.591 189.846C19.5019 189.593 19.4646 189.324 19.4814 189.057C19.4982 188.789 19.5687 188.527 19.6887 188.287C19.8087 188.047 19.9758 187.834 20.18 187.66L41.11 169.87C43.9516 167.463 46.6653 164.91 49.24 162.22C53.3223 157.988 58.2075 154.612 63.61 152.29C74.3319 147.557 86.2652 146.295 97.74 148.68L132.74 155.63C133.447 155.783 134.14 155.997 134.81 156.27C137.189 157.233 139.226 158.883 140.662 161.01C142.098 163.137 142.866 165.644 142.87 168.21C142.87 168.45 142.87 168.68 142.87 168.91L185.82 146.46L185.95 146.4C187.38 145.667 188.941 145.224 190.543 145.097C192.145 144.97 193.756 145.162 195.284 145.661C196.812 146.161 198.225 146.957 199.443 148.006C200.661 149.054 201.659 150.334 202.38 151.77C203.815 154.637 204.07 157.951 203.091 161.004C202.111 164.056 199.975 166.603 197.14 168.1L132.44 201.93C129.205 203.627 125.566 204.405 121.92 204.18L76 201.36L51.26 222C50.9096 222.305 50.4641 222.478 50 222.49ZM24.4 189.37L50.19 217.73L74 197.78C74.3937 197.452 74.8984 197.287 75.41 197.32L122.13 200.19C125.047 200.358 127.956 199.737 130.55 198.39L195.25 164.56C196.234 164.078 197.111 163.405 197.831 162.579C198.55 161.753 199.097 160.792 199.44 159.751C199.782 158.711 199.913 157.612 199.824 156.521C199.735 155.429 199.429 154.366 198.923 153.395C198.417 152.423 197.722 151.562 196.879 150.864C196.035 150.165 195.061 149.642 194.012 149.326C192.963 149.009 191.862 148.906 190.773 149.022C189.684 149.138 188.629 149.47 187.67 150L187.55 150.06L141.42 174.18C140.239 176.451 138.407 178.318 136.159 179.542C133.911 180.766 131.348 181.291 128.8 181.05L103.8 178.73C103.537 178.706 103.282 178.63 103.049 178.507C102.815 178.384 102.609 178.216 102.44 178.013C102.271 177.81 102.145 177.576 102.066 177.324C101.988 177.072 101.961 176.808 101.985 176.545C102.009 176.282 102.085 176.027 102.208 175.794C102.331 175.56 102.499 175.353 102.702 175.185C102.904 175.016 103.139 174.889 103.391 174.811C103.642 174.733 103.907 174.706 104.17 174.73L129.17 177.05C130.98 177.222 132.799 176.836 134.381 175.941C135.964 175.047 137.234 173.689 138.02 172.05C138.05 171.962 138.09 171.878 138.14 171.8C138.624 170.675 138.876 169.464 138.88 168.24C138.877 166.471 138.347 164.742 137.357 163.276C136.366 161.81 134.961 160.673 133.32 160.01C132.871 159.823 132.406 159.679 131.93 159.58L97 152.6C86.3336 150.382 75.2408 151.55 65.27 155.94C60.3537 158.043 55.9042 161.103 52.18 164.94C49.5074 167.735 46.6902 170.389 43.74 172.89L24.4 189.37Z" fill="#4448DB"/>
<path d="M140 165.84C139.553 165.84 139.119 165.69 138.767 165.414C138.416 165.139 138.166 164.753 138.059 164.319C137.952 163.885 137.994 163.428 138.177 163.02C138.36 162.613 138.674 162.278 139.07 162.07L173.42 144.07C175.852 142.787 178.648 142.366 181.351 142.876C184.053 143.387 186.503 144.798 188.3 146.88C188.592 147.284 188.723 147.783 188.666 148.278C188.609 148.774 188.37 149.23 187.994 149.558C187.619 149.886 187.134 150.062 186.636 150.051C186.138 150.04 185.661 149.844 185.3 149.5C184.093 148.1 182.446 147.152 180.629 146.811C178.812 146.469 176.933 146.755 175.3 147.62L140.95 165.62C140.656 165.771 140.33 165.846 140 165.84Z" fill="#4448DB"/>
<path d="M134.06 160.12C133.67 160.119 133.289 160.003 132.964 159.788C132.639 159.574 132.384 159.268 132.23 158.91C132.076 158.552 132.03 158.157 132.097 157.773C132.165 157.39 132.343 157.034 132.61 156.75C132.761 156.592 132.937 156.461 133.13 156.36L152.06 146.47C154.483 145.195 157.265 144.774 159.957 145.277C162.648 145.78 165.091 147.176 166.89 149.24C167.195 149.643 167.336 150.147 167.285 150.65C167.233 151.152 166.994 151.617 166.613 151.95C166.233 152.284 165.741 152.461 165.236 152.446C164.731 152.431 164.25 152.225 163.89 151.87C162.679 150.475 161.031 149.532 159.215 149.194C157.399 148.856 155.522 149.144 153.89 150.01L135 159.87C134.712 160.029 134.389 160.115 134.06 160.12Z" fill="#4448DB"/>
<path d="M129 18.11L121 17.36L117.74 9.90004C117.689 9.78455 117.606 9.68634 117.5 9.61739C117.395 9.54843 117.271 9.51172 117.145 9.51172C117.019 9.51172 116.895 9.54843 116.79 9.61739C116.684 9.68634 116.601 9.78455 116.55 9.90004L113.34 17.36L105.26 18.11C105.132 18.1181 105.01 18.1643 104.909 18.2426C104.807 18.321 104.732 18.4279 104.692 18.5496C104.652 18.6713 104.65 18.8022 104.685 18.9252C104.72 19.0483 104.792 19.158 104.89 19.24L111 24.6L109.22 32.51C109.179 32.6398 109.181 32.7793 109.224 32.9081C109.268 33.037 109.352 33.1485 109.463 33.2266C109.575 33.3046 109.708 33.3451 109.844 33.3421C109.98 33.3391 110.112 33.2929 110.22 33.21L117.22 29.07L124.22 33.21C124.328 33.2929 124.46 33.3391 124.596 33.3421C124.732 33.3451 124.865 33.3046 124.977 33.2266C125.088 33.1485 125.172 33.037 125.216 32.9081C125.259 32.7793 125.261 32.6398 125.22 32.51L123.44 24.6L129.53 19.24C129.644 19.1508 129.725 19.0254 129.759 18.8843C129.793 18.7433 129.778 18.5949 129.716 18.4635C129.654 18.3322 129.55 18.2257 129.42 18.1615C129.29 18.0972 129.142 18.0791 129 18.11Z" fill="#BFC0F3"/>
<path d="M170.5 40.9302L164.55 35.4202L166.55 27.5502C166.578 27.4273 166.57 27.299 166.527 27.1805C166.484 27.062 166.408 26.9583 166.308 26.8815C166.208 26.8047 166.089 26.7582 165.963 26.7473C165.838 26.7364 165.712 26.7617 165.6 26.8202L158.52 30.8202L151.65 26.5002C151.544 26.4223 151.417 26.379 151.285 26.3761C151.153 26.3733 151.024 26.4111 150.915 26.4843C150.806 26.5575 150.722 26.6627 150.674 26.7854C150.627 26.9081 150.618 27.0425 150.65 27.1702L152.22 35.1702L146 40.2902C145.904 40.3712 145.834 40.4783 145.798 40.5984C145.761 40.7185 145.761 40.8466 145.795 40.9671C145.83 41.0877 145.899 41.1955 145.994 41.2777C146.089 41.3599 146.206 41.4128 146.33 41.4302L154.4 42.4302L157.4 49.9702C157.451 50.0856 157.534 50.1838 157.64 50.2528C157.745 50.3218 157.869 50.3585 157.995 50.3585C158.121 50.3585 158.245 50.3218 158.35 50.2528C158.456 50.1838 158.539 50.0856 158.59 49.9702L161.99 42.6002L170.09 42.0702C170.221 42.0668 170.348 42.0239 170.454 41.9472C170.56 41.8705 170.641 41.7636 170.685 41.6403C170.729 41.5171 170.735 41.3834 170.702 41.2567C170.669 41.13 170.599 41.0161 170.5 40.9302Z" fill="#FFDC64"/>
<path d="M170.5 40.9302L164.55 35.4202L166.55 27.5502C166.578 27.4273 166.57 27.299 166.527 27.1805C166.484 27.062 166.408 26.9583 166.308 26.8815C166.208 26.8047 166.089 26.7582 165.963 26.7473C165.838 26.7364 165.712 26.7617 165.6 26.8202L158.52 30.8202L151.65 26.5002C151.544 26.4223 151.417 26.379 151.285 26.3761C151.153 26.3733 151.024 26.4111 150.915 26.4843C150.806 26.5575 150.722 26.6627 150.674 26.7854C150.627 26.9081 150.618 27.0425 150.65 27.1702L152.22 35.1702L146 40.2902C145.904 40.3712 145.834 40.4783 145.798 40.5984C145.761 40.7185 145.761 40.8466 145.795 40.9671C145.83 41.0877 145.899 41.1955 145.994 41.2777C146.089 41.3599 146.206 41.4128 146.33 41.4302L154.4 42.4302L157.4 49.9702C157.451 50.0856 157.534 50.1838 157.64 50.2528C157.745 50.3218 157.869 50.3585 157.995 50.3585C158.121 50.3585 158.245 50.3218 158.35 50.2528C158.456 50.1838 158.539 50.0856 158.59 49.9702L161.99 42.6002L170.09 42.0702C170.221 42.0668 170.348 42.0239 170.454 41.9472C170.56 41.8705 170.641 41.7636 170.685 41.6403C170.729 41.5171 170.735 41.3834 170.702 41.2567C170.669 41.13 170.599 41.0161 170.5 40.9302Z" fill="#BFC0F3"/>
<path d="M63.79 40.9302L69.79 35.4202L67.79 27.5502C67.7592 27.4278 67.7648 27.2991 67.8059 27.1798C67.847 27.0605 67.922 26.9557 68.0217 26.8783C68.1214 26.8009 68.2414 26.7542 68.3672 26.7439C68.493 26.7335 68.619 26.76 68.73 26.8202L75.82 30.8202L82.69 26.5002C82.796 26.4223 82.9235 26.379 83.055 26.3761C83.1866 26.3733 83.3158 26.4111 83.4251 26.4843C83.5344 26.5575 83.6185 26.6627 83.6659 26.7854C83.7133 26.9081 83.7217 27.0425 83.69 27.1702L82.11 35.1702L88.35 40.3702C88.4236 40.4552 88.474 40.5579 88.496 40.6682C88.5181 40.7785 88.5112 40.8927 88.4759 40.9995C88.4406 41.1063 88.3782 41.2022 88.2948 41.2777C88.2114 41.3531 88.1098 41.4057 88 41.4302L79.94 42.4302L76.94 49.9702C76.8892 50.0856 76.8059 50.1838 76.7003 50.2528C76.5946 50.3218 76.4712 50.3585 76.345 50.3585C76.2188 50.3585 76.0954 50.3218 75.9897 50.2528C75.8841 50.1838 75.8008 50.0856 75.75 49.9702L72.34 42.6002L64.24 42.0702C64.1081 42.0696 63.9794 42.0294 63.8705 41.955C63.7616 41.8806 63.6775 41.7752 63.6291 41.6525C63.5806 41.5298 63.5701 41.3954 63.5988 41.2666C63.6275 41.1379 63.6941 41.0207 63.79 40.9302Z" fill="#BFC0F3"/>
<path d="M37.43 152.9C39.0427 152.9 40.35 151.593 40.35 149.98C40.35 148.367 39.0427 147.06 37.43 147.06C35.8173 147.06 34.51 148.367 34.51 149.98C34.51 151.593 35.8173 152.9 37.43 152.9Z" fill="#BFC0F3"/>
<path d="M209.58 33.3102C211.193 33.3102 212.5 32.0029 212.5 30.3902C212.5 28.7775 211.193 27.4702 209.58 27.4702C207.967 27.4702 206.66 28.7775 206.66 30.3902C206.66 32.0029 207.967 33.3102 209.58 33.3102Z" fill="#BFC0F3"/>
<path d="M186.75 133.23C188.363 133.23 189.67 131.923 189.67 130.31C189.67 128.697 188.363 127.39 186.75 127.39C185.137 127.39 183.83 128.697 183.83 130.31C183.83 131.923 185.137 133.23 186.75 133.23Z" fill="#BFC0F3"/>
<path d="M23.13 30.3898C24.7427 30.3898 26.05 29.0825 26.05 27.4698C26.05 25.8571 24.7427 24.5498 23.13 24.5498C21.5173 24.5498 20.21 25.8571 20.21 27.4698C20.21 29.0825 21.5173 30.3898 23.13 30.3898Z" fill="#BFC0F3"/>
</svg>
