<svg width="250" height="92" viewBox="0 0 250 92" fill="none" xmlns="http://www.w3.org/2000/svg">
<rect width="250" height="92" rx="12" fill="white"/>
<path d="M156.612 39.6836C157.978 39.6836 159.303 39.6836 160.669 39.6836C162.035 43.9061 163.401 48.17 164.767 52.3925C164.809 52.3925 164.809 52.3925 164.809 52.3925H164.85C166.258 48.17 167.665 43.9475 169.073 39.6836C170.108 39.6836 171.142 39.6836 172.177 39.6836C173.585 43.9061 174.992 48.17 176.4 52.4339C176.441 52.4339 176.441 52.4339 176.483 52.4339C176.938 51.0264 177.393 49.6189 177.849 48.2114C178.304 46.8039 178.759 45.355 179.215 43.9475C179.67 42.54 180.126 41.1325 180.581 39.6836C181.864 39.6836 183.148 39.6836 184.431 39.6836C184.514 39.8078 184.431 39.932 184.389 40.0148C183.644 42.1674 182.899 44.3201 182.154 46.5141C180.788 50.4054 179.463 54.2554 178.097 58.1467C178.056 58.2295 178.014 58.3123 178.014 58.3951C176.979 58.3951 175.903 58.3951 174.827 58.3951C173.419 54.3381 172.012 50.2812 170.604 46.2243C170.563 46.2243 170.563 46.2243 170.521 46.2243C169.818 48.2528 169.114 50.2812 168.41 52.3097C167.706 54.3382 167.003 56.3666 166.299 58.3951C165.223 58.3951 164.188 58.3951 163.153 58.3951C161 52.1441 158.806 45.9345 156.612 39.6836Z" fill="#242729"/>
<path d="M65.3315 43.9474C65.3729 42.4985 65.4143 41.0496 65.4971 39.6007C65.6213 37.0755 65.9111 34.5503 66.4907 32.0665C66.7804 30.7832 67.1944 29.4585 67.774 28.2579C67.8568 28.051 67.981 27.8854 68.0637 27.6784C68.1465 27.43 68.3121 27.3886 68.5605 27.43C69.3057 27.5956 70.0922 27.7198 70.8374 27.9268C71.7067 28.1338 72.5346 28.5477 73.2384 29.1273C74.5631 30.2036 75.4324 31.5283 75.805 33.1842C75.9706 34.0121 75.9706 34.8815 75.8878 35.7508C75.6808 37.8207 74.9771 39.6835 74.1491 41.5464C73.0728 43.9888 71.7481 46.3485 70.382 48.6667C69.1401 50.7779 67.8154 52.8064 66.4493 54.8348C66.4079 54.9176 66.3665 55.0004 66.2837 55.0832C66.2423 55.1246 66.1595 55.166 66.0767 55.166C66.0353 55.166 65.9525 55.0832 65.9525 55.0004C65.9111 54.7107 65.8697 54.4209 65.8697 54.0897C65.7455 52.1854 65.5799 50.2812 65.4557 48.3769C65.4143 47.3834 65.3729 46.3898 65.3729 45.3963C65.3729 44.8996 65.3729 44.4442 65.3729 43.9474H65.3315Z" fill="#C2172D"/>
<path d="M63.8827 44.0301C63.8827 45.0236 63.9241 45.9758 63.8827 46.9693C63.7999 48.8735 63.6757 50.8192 63.5515 52.7235C63.5101 53.4686 63.4273 54.1724 63.3445 54.8761C63.3445 54.9175 63.3445 54.9589 63.3445 55.0003C63.3031 55.0417 63.2617 55.1245 63.2203 55.1659C63.1789 55.1659 63.0961 55.1245 63.0133 55.0831C62.9719 55.0417 62.9305 55.0003 62.8891 54.9175C60.3225 51.1504 57.9215 47.3005 55.9344 43.2435C55.1065 41.5049 54.3199 39.7662 53.8232 37.9033C53.5334 36.827 53.3264 35.7093 53.3264 34.5916C53.3678 31.3212 55.6447 28.5476 58.7494 27.8438C59.3704 27.7197 60.0327 27.5955 60.6537 27.4713C61.0263 27.3885 61.0263 27.4299 61.2333 27.7611C61.73 28.6718 62.1026 29.6653 62.3924 30.6588C62.8891 32.3561 63.2203 34.0948 63.4273 35.8749C63.6343 37.5308 63.7585 39.1452 63.8413 40.8011C63.8827 41.8774 63.8827 42.9952 63.9241 44.0715C63.9241 44.0301 63.8827 44.0301 63.8827 44.0301Z" fill="#C2172D"/>
<path d="M114.842 58.3536C113.6 58.3536 112.359 58.3536 111.075 58.3536C111.075 55.8283 111.075 53.3031 111.075 50.8193C110.785 50.7365 102.879 50.7365 102.465 50.8193C102.465 52.0612 102.465 53.3445 102.465 54.5864C102.465 55.8283 102.465 57.0702 102.465 58.3122C102.216 58.395 99.0287 58.395 98.6975 58.3122C98.6975 52.1026 98.6975 45.8516 98.6975 39.6421C99.9394 39.6421 101.181 39.6421 102.465 39.6421C102.465 42.1673 102.465 44.6511 102.465 47.1764C105.362 47.1764 108.177 47.1764 111.075 47.1764C111.075 44.6511 111.075 42.1673 111.075 39.6421C112.359 39.6421 113.6 39.6421 114.842 39.6421C114.842 45.893 114.842 52.144 114.842 58.3536Z" fill="#242729"/>
<path d="M201.735 58.3536C197.016 58.3536 192.338 58.3536 187.66 58.3536C187.66 58.3536 187.66 58.3536 187.618 58.3122C187.618 58.3122 187.618 58.3122 187.618 58.2708C187.618 58.188 187.618 58.1052 187.618 58.0224C187.618 51.8956 187.618 45.8103 187.618 39.6835C187.66 39.6421 187.66 39.6421 187.66 39.6421C187.66 39.6421 187.66 39.6421 187.701 39.6421C187.825 39.6421 187.908 39.6421 188.032 39.6421C192.503 39.6421 196.933 39.6421 201.404 39.6421C201.486 39.8905 201.486 42.7055 201.404 43.078C198.092 43.078 194.78 43.078 191.427 43.078C191.427 44.3614 191.427 45.6033 191.427 46.8866C192.213 46.8866 192.959 46.8866 193.704 46.8866C194.449 46.8866 195.235 46.8866 195.981 46.8866C196.726 46.8866 197.512 46.8866 198.257 46.8866C198.34 47.135 198.34 49.9086 198.257 50.2811C195.981 50.2811 193.704 50.2811 191.427 50.2811C191.427 51.8542 191.427 53.3445 191.427 54.9176C191.551 54.9176 191.675 54.959 191.841 54.959C195.028 54.959 198.175 54.959 201.362 54.959C201.486 54.959 201.652 54.959 201.776 54.959C201.776 55.2074 201.776 57.7326 201.735 58.3536Z" fill="#242729"/>
<path d="M143.82 54.4622C143.241 55.7455 142.703 57.0289 142.123 58.3536C140.84 58.3536 139.556 58.3536 138.232 58.3536C141.005 52.1026 143.737 45.893 146.47 39.6421C146.594 39.6421 146.718 39.6421 146.801 39.6421C147.67 39.6421 148.54 39.6421 149.45 39.6421C149.74 39.6421 149.864 39.7249 149.988 39.9733C151.313 43.0366 152.679 46.1 154.004 49.1634C155.287 52.0612 156.571 55.0004 157.854 57.8982C157.895 58.0224 157.978 58.188 158.019 58.3122C157.771 58.395 154.708 58.395 154.087 58.3536C154.045 58.2708 154.004 58.188 153.963 58.1052C153.466 56.9875 152.969 55.8697 152.514 54.752C152.431 54.545 152.348 54.4622 152.1 54.4622C149.45 54.4622 146.759 54.4622 144.11 54.4622C143.986 54.4622 143.903 54.4622 143.82 54.4622ZM150.941 51.0677C149.988 48.8322 149.036 46.6382 148.043 44.4028C147.091 46.6796 146.139 48.8736 145.186 51.0677C147.132 51.0677 149.036 51.0677 150.941 51.0677Z" fill="#242729"/>
<path d="M120.141 39.6837C121.425 39.6837 122.625 39.6837 123.908 39.6837C123.908 39.8079 123.908 39.9321 123.908 40.0563C123.908 43.4508 123.908 46.8868 123.908 50.2814C123.908 50.9851 123.991 51.6889 124.198 52.3512C124.736 53.9243 125.813 54.7522 127.427 54.9592C128.048 55.042 128.669 55.0006 129.331 54.8764C130.822 54.5867 131.774 53.6759 132.188 52.1856C132.353 51.5647 132.436 50.9437 132.436 50.3228C132.436 46.8868 132.436 43.4922 132.436 40.0563C132.436 39.9321 132.436 39.7665 132.436 39.6423C132.685 39.5595 135.748 39.5595 136.203 39.6009C136.203 39.6837 136.203 39.7665 136.203 39.8907C136.203 43.3267 136.203 46.804 136.203 50.24C136.203 51.5233 136.038 52.8066 135.582 54.0071C134.754 56.1597 133.223 57.5672 131.029 58.2296C129.083 58.7678 127.137 58.7678 125.233 58.2296C122.791 57.5258 121.218 55.9114 120.514 53.4689C120.224 52.434 120.1 51.3577 120.1 50.2814C120.1 46.8454 120.1 43.4095 120.1 39.9735C120.141 39.9321 120.141 39.8079 120.141 39.6837Z" fill="#242729"/>
<path d="M81.7663 33.9292C81.9733 34.1362 82.1389 34.3018 82.3044 34.4674C83.4636 35.7093 84.4157 37.0754 85.078 38.6485C85.5334 39.6834 85.7818 40.7597 85.7404 41.9188C85.699 43.3263 85.2436 44.6096 84.4571 45.7274C83.8775 46.5553 83.091 47.259 82.3044 47.88C80.7728 49.1633 79.1169 50.2396 77.461 51.316C74.5218 53.1374 71.5412 54.7519 68.4364 56.325C68.395 56.3664 68.3536 56.3664 68.2708 56.4078C68.188 56.4078 68.1053 56.4078 68.0639 56.3664C68.0225 56.325 68.0225 56.2422 68.0225 56.1594C68.0639 56.0766 68.1053 55.9524 68.1467 55.8696C70.2993 51.2332 72.8245 46.7623 75.5981 42.457C77.3782 39.6834 79.2825 36.9926 81.3109 34.426C81.4765 34.3018 81.6007 34.1362 81.7663 33.9292Z" fill="#C2172D"/>
<path d="M47.5722 33.9707C47.655 34.0535 47.6964 34.1363 47.7792 34.2191C50.3458 37.4895 52.7054 40.884 54.8995 44.4028C56.8451 47.5075 58.6252 50.6951 60.2397 54.0069C60.5708 54.6692 60.902 55.373 61.1918 56.0353C61.2332 56.0767 61.2332 56.1181 61.2746 56.2009C61.316 56.3665 61.2332 56.4907 61.0676 56.4079C61.0262 56.4079 60.9434 56.3665 60.902 56.3251C57.1763 54.4622 53.5333 52.4752 50.056 50.1569C48.5657 49.1634 47.1582 48.1285 45.8749 46.8866C44.2604 45.3135 43.4325 43.4092 43.6395 41.1324C43.7222 40.1803 44.012 39.2695 44.426 38.4002C45.1711 36.8271 46.2061 35.4196 47.448 34.1363C47.4894 34.0949 47.5308 34.0535 47.5722 34.0121C47.4894 34.0121 47.5308 34.0121 47.5722 33.9707Z" fill="#C2172D"/>
<path d="M40.4519 46.5972C40.5347 46.6386 40.6175 46.68 40.7003 46.7214C46.3303 49.7847 51.9189 52.8895 57.3419 56.2841C58.1698 56.7808 58.9564 57.319 59.7843 57.8572C59.9085 57.94 60.0741 57.9814 60.0327 58.1883C59.9913 58.3539 59.7843 58.3125 59.6601 58.3125C57.8386 58.3125 56.0172 58.3125 54.1543 58.3125C52.9124 58.3125 51.6705 58.3539 50.4286 58.3539C49.7662 58.3539 49.1039 58.3539 48.4829 58.3125C45.2953 58.1055 42.8943 56.6153 41.2384 53.9244C40.2449 52.2686 39.8723 50.4471 40.0379 48.5842C40.0793 48.0047 40.2449 47.4251 40.3691 46.8042C40.3691 46.7214 40.4105 46.68 40.4519 46.5972Z" fill="#C2172D"/>
<path d="M88.8863 46.5557C88.9691 46.804 89.0519 47.0524 89.0933 47.3008C89.7142 50.5712 88.9691 53.4276 86.568 55.7872C85.1605 57.1947 83.4219 57.9812 81.4348 58.2296C80.8139 58.3124 80.1929 58.3124 79.5305 58.3124C76.2602 58.3124 72.9898 58.3124 69.7194 58.3124C69.6366 58.3124 69.5125 58.3124 69.4297 58.3124C69.2641 58.271 69.2227 58.1468 69.3469 58.0226C69.4297 57.9399 69.5125 57.8985 69.5953 57.8157C71.5409 56.5737 73.4866 55.3318 75.4736 54.1313C79.7789 51.5647 84.167 49.1223 88.5965 46.7213C88.6379 46.6385 88.7207 46.5971 88.8863 46.5557Z" fill="#C2172D"/>
<path d="M206.289 39.6836C207.53 39.6836 208.731 39.6836 209.932 39.6836C210.014 39.8906 210.014 57.7741 209.973 58.3123C209.725 58.3951 206.703 58.3951 206.289 58.3123C206.289 52.1027 206.289 45.8932 206.289 39.6836Z" fill="#242729"/>
<path d="M84.8296 59.968C84.2087 61.0443 83.5049 61.955 82.677 62.783C82.0146 63.4039 81.2695 63.9007 80.4415 64.2319C79.1996 64.6872 77.9991 64.7286 76.7572 64.1905C76.3432 63.9835 75.8879 63.7765 75.4739 63.5695C73.818 62.7002 72.2863 61.6652 70.7546 60.5889C70.4235 60.3819 70.0923 60.1335 69.8025 59.9266C69.7611 59.8852 69.6783 59.8438 69.6369 59.8024C69.5955 59.761 69.5541 59.6782 69.5955 59.5954C69.5955 59.554 69.7197 59.4712 69.7611 59.4712C69.9267 59.4712 70.0923 59.4712 70.2579 59.4712C71.7482 59.5126 73.2385 59.554 74.7287 59.6368C75.9707 59.6782 77.2126 59.7196 78.4545 59.761C79.655 59.8024 80.8555 59.8438 82.0974 59.8852C82.884 59.8852 83.8361 59.9266 84.8296 59.968Z" fill="#C2172D"/>
<path d="M44.4673 59.9269C45.0054 59.9269 45.5436 59.8855 46.0404 59.8855C47.4893 59.8441 48.9382 59.8028 50.3871 59.7614C51.5876 59.72 52.7881 59.6786 53.9886 59.6372C55.7687 59.5544 57.5488 59.513 59.3288 59.4302C59.453 59.4302 59.5358 59.4302 59.66 59.4302C59.7428 59.4302 59.8256 59.4716 59.8256 59.513C59.8256 59.5958 59.7842 59.6786 59.7428 59.72C59.7428 59.7614 59.66 59.7614 59.66 59.8027C57.7971 61.1275 55.8929 62.4108 53.8644 63.5285C53.4504 63.7355 53.0779 63.9425 52.6639 64.108C51.3806 64.6876 50.0559 64.6462 48.7726 64.108C47.8618 63.6941 47.0753 63.1145 46.3715 62.4108C45.7506 61.7484 45.2124 61.0447 44.7571 60.2581C44.6329 60.1753 44.5501 60.0925 44.4673 59.9269Z" fill="#C2172D"/>
</svg>
