<svg width="98" height="98" viewBox="0 0 98 98" fill="none" xmlns="http://www.w3.org/2000/svg">
<circle cx="49" cy="49" r="49" fill="#4448DB"/>
<mask id="mask0" mask-type="alpha" maskUnits="userSpaceOnUse" x="0" y="0" width="98" height="98">
<circle cx="49" cy="49" r="49" fill="#4448DB"/>
</mask>
<g mask="url(#mask0)">
<circle cx="17" cy="81" r="22.5" stroke="white" stroke-opacity="0.1"/>
<circle cx="84" cy="17" r="49" fill="#4B4FE6"/>
<circle cx="82.5" cy="30.5" r="50" stroke="url(#paint0_radial)" stroke-opacity="0.1" stroke-width="45"/>
<circle cx="74.5" cy="-4.5" r="63.4" stroke="white" stroke-opacity="0.2" stroke-width="0.2"/>
<circle cx="9.5" cy="116.5" r="39.4" stroke="white" stroke-opacity="0.2" stroke-width="0.2"/>
</g>
<g clip-path="url(#clip0)">
<path d="M59.7362 41.6506C59.5702 39.8276 58.0653 38.4531 56.2354 38.4531H52.5161V36.0312C52.5161 32.154 49.3621 29 45.4849 29C41.6076 29 38.4536 32.154 38.4536 36.0312V38.4531H34.7344C32.9044 38.4531 31.3995 39.8276 31.2336 41.6506L29.0148 62.7443C28.9255 63.7262 29.2563 64.7058 29.9201 65.4337C30.585 66.1603 31.5314 66.5781 32.5168 66.5781H47.8286V61.8906H46.6568C46.009 61.8906 45.4849 61.3664 45.4849 60.7187V56.0312C45.4849 53.1667 47.5505 50.7761 50.2708 50.2703C50.7766 47.55 53.1673 45.4843 56.0317 45.4843C56.8397 45.4843 57.6259 45.6549 58.3755 45.9913C58.9278 45.7434 59.5049 45.6172 60.0911 45.5513L59.7362 41.6506ZM50.1724 38.4531H40.7974V36.0312C40.7974 33.446 42.8997 31.3437 45.4849 31.3437C48.0701 31.3437 50.1724 33.446 50.1724 36.0312V38.4531Z" fill="#9A9CF3"/>
<path d="M60.7187 47.8281C59.815 47.8281 58.9984 48.1803 58.375 48.7425C57.7515 48.1803 56.9349 47.8281 56.0312 47.8281C54.5054 47.8281 53.2168 48.8108 52.7314 50.1719H64.0185C63.5331 48.8108 62.2445 47.8281 60.7187 47.8281Z" fill="white"/>
<path d="M65.4844 52.5156H59.5469V57.2031H67.8281C68.4753 57.2031 69 56.6784 69 56.0312C69 54.0896 67.426 52.5156 65.4844 52.5156Z" fill="#B9BAF1"/>
<path d="M51.3437 52.5156C49.4021 52.5156 47.8281 54.0896 47.8281 56.0312C47.8281 56.6784 48.3528 57.2031 49 57.2031H57.2031V52.5156H51.3437Z" fill="#B9BAF1"/>
<path d="M59.5469 59.5469V60.7187C59.5469 61.3665 59.0227 61.8906 58.375 61.8906C57.7273 61.8906 57.2031 61.3665 57.2031 60.7187V59.5469H50.1719V67.8281C50.1719 68.4753 50.6966 69 51.3437 69H65.4062C66.0534 69 66.5781 68.4753 66.5781 67.8281V59.5469H59.5469Z" fill="white"/>
</g>
<defs>
<radialGradient id="paint0_radial" cx="0" cy="0" r="1" gradientUnits="userSpaceOnUse" gradientTransform="translate(15 6.5) rotate(58.6472) scale(88.4096)">
<stop stop-color="white"/>
<stop offset="1" stop-color="white" stop-opacity="0"/>
</radialGradient>
<clipPath id="clip0">
<rect width="40" height="40" fill="white" transform="translate(29 29)"/>
</clipPath>
</defs>
</svg>
