<svg width="98" height="98" viewBox="0 0 98 98" fill="none" xmlns="http://www.w3.org/2000/svg">
<circle opacity="0.05" cx="49" cy="49" r="49" fill="#464BDE"/>
<g clip-path="url(#clip0)">
<g opacity="0.4">
<path d="M59.7361 41.6506C59.5701 39.8276 58.0652 38.4531 56.2353 38.4531H52.516V36.0312C52.516 32.154 49.362 29 45.4848 29C41.6075 29 38.4535 32.154 38.4535 36.0312V38.4531H34.7342C32.9043 38.4531 31.3994 39.8276 31.2335 41.6506L29.0147 62.7443C28.9254 63.7262 29.2562 64.7058 29.9199 65.4337C30.5849 66.1603 31.5313 66.5781 32.5167 66.5781H47.8285V61.8906H46.6566C46.0089 61.8906 45.4848 61.3664 45.4848 60.7187V56.0312C45.4848 53.1667 47.5504 50.7761 50.2707 50.2703C50.7765 47.55 53.1672 45.4843 56.0316 45.4843C56.8396 45.4843 57.6258 45.6549 58.3754 45.9913C58.9277 45.7434 59.5047 45.6172 60.091 45.5513L59.7361 41.6506ZM50.1723 38.4531H40.7973V36.0312C40.7973 33.446 42.8995 31.3437 45.4848 31.3437C48.07 31.3437 50.1723 33.446 50.1723 36.0312V38.4531Z" fill="#4448DB"/>
</g>
<path d="M60.7188 47.8281C59.8151 47.8281 58.9985 48.1803 58.3751 48.7425C57.7516 48.1803 56.935 47.8281 56.0313 47.8281C54.5055 47.8281 53.217 48.8108 52.7316 50.1719H64.0186C63.5332 48.8108 62.2446 47.8281 60.7188 47.8281Z" fill="#4448DB"/>
<path opacity="0.6" d="M65.4844 52.5156H59.5469V57.2031H67.8281C68.4753 57.2031 69 56.6784 69 56.0312C69 54.0896 67.426 52.5156 65.4844 52.5156Z" fill="#4448DB"/>
<path opacity="0.6" d="M51.3439 52.5156C49.4022 52.5156 47.8282 54.0896 47.8282 56.0312C47.8282 56.6784 48.3529 57.2031 49.0001 57.2031H57.2032V52.5156H51.3439Z" fill="#4448DB"/>
<path d="M59.5469 59.5469V60.7187C59.5469 61.3665 59.0227 61.8906 58.375 61.8906C57.7273 61.8906 57.2031 61.3665 57.2031 60.7187V59.5469H50.1719V67.8281C50.1719 68.4753 50.6966 69 51.3437 69H65.4062C66.0534 69 66.5781 68.4753 66.5781 67.8281V59.5469H59.5469Z" fill="#4448DB"/>
</g>
<defs>
<clipPath id="clip0">
<rect width="40" height="40" fill="white" transform="translate(29 29)"/>
</clipPath>
</defs>
</svg>
