<svg width="98" height="98" viewBox="0 0 98 98" fill="none" xmlns="http://www.w3.org/2000/svg">
<circle opacity="0.05" cx="49" cy="49" r="49" fill="#464BDE"/>
<circle opacity="0.06" cx="49" cy="49" r="46" stroke="url(#paint0_radial)" stroke-width="6"/>
<path d="M40.9515 49.7463C40.7903 48.6064 40.8105 47.44 41.0169 46.3013C41.4086 44.1402 42.4385 42.1749 43.9954 40.6181C46.0262 38.5872 48.7298 37.4688 51.6079 37.4688C53.2328 37.4688 54.802 37.8255 56.2259 38.5014C55.6195 36.8628 54.0413 35.6917 52.1946 35.6917H33.2969C30.9276 35.6917 29 37.6192 29 39.9885V45.4495C29 47.8188 30.9276 49.7463 33.2969 49.7463H40.9515V49.7463Z" fill="#9A9CF3"/>
<path d="M66.2524 33.8385C64.4805 32.0666 62.1248 31.0908 59.6191 31.0908C57.2989 31.0908 55.1077 31.928 53.3893 33.4585C54.2983 33.6266 55.1546 33.9829 55.9077 34.492C57.0112 33.8042 58.2864 33.4346 59.6192 33.4346C61.4989 33.4346 63.2661 34.1666 64.5952 35.4957C65.9243 36.8248 66.6563 38.592 66.6563 40.4718C66.6563 42.3515 65.9243 44.1187 64.5951 45.4478C63.2659 46.7769 61.4987 47.5089 59.6191 47.5089C57.7393 47.5089 55.9721 46.777 54.6431 45.4478C54.1855 44.99 53.4435 44.9902 52.9858 45.4478C52.5282 45.9053 52.5282 46.6473 52.9858 47.105C54.7576 48.8769 57.1133 49.8527 59.6191 49.8527C62.1248 49.8527 64.4806 48.8769 66.2524 47.105C68.0243 45.3332 69 42.9775 69 40.4718C69 37.9661 68.0243 35.6102 66.2524 33.8385Z" fill="#9A9CF3"/>
<path d="M50.2987 46.2766C50.2987 45.3375 50.6645 44.4546 51.3286 43.7906C51.9925 43.1267 52.8754 42.761 53.8144 42.761C54.7536 42.761 55.6365 43.1267 56.3005 43.791C57.1462 44.6367 58.2585 45.1189 59.448 45.1612C59.0382 44.1094 58.411 43.1235 57.563 42.2755C54.2794 38.9918 48.9365 38.9918 45.6527 42.2755C44.4349 43.4934 43.6293 45.0301 43.3231 46.7194C43.0731 48.0989 43.1676 49.5015 43.5944 50.8207L34.1069 60.3082C33.9382 60.477 33.825 60.6932 33.7825 60.9281L32.9492 65.5284C32.8807 65.9065 33.002 66.2942 33.2738 66.566C33.4955 66.7876 33.7944 66.9091 34.1023 66.9091C34.1718 66.9091 34.2418 66.9029 34.3114 66.8903L38.9108 66.056C39.275 65.99 39.5865 65.7557 39.7512 65.4242L40.7662 63.3807L42.0997 62.9698C42.4704 62.8557 42.7605 62.5655 42.8747 62.1949L43.2511 60.9729L44.473 60.5965C44.8437 60.4824 45.1338 60.1922 45.248 59.8216L45.6244 58.5996L46.8463 58.2232C47.0288 58.1669 47.1948 58.0669 47.3299 57.9319L49.0177 56.2441C50.3369 56.6709 51.7398 56.7655 53.119 56.5154C54.8083 56.2092 56.345 55.4036 57.5629 54.1857C58.169 53.5796 58.6626 52.9032 59.0449 52.1828C56.1287 52.0431 53.4069 50.8411 51.3283 48.7625C50.6644 48.0985 50.2987 47.2156 50.2987 46.2766Z" fill="#4448DB"/>
<defs>
<radialGradient id="paint0_radial" cx="0" cy="0" r="1" gradientUnits="userSpaceOnUse" gradientTransform="translate(6 6.50001) rotate(45.5599) scale(108.546)">
<stop stop-color="white"/>
<stop offset="1" stop-color="white" stop-opacity="0"/>
</radialGradient>
</defs>
</svg>
