<svg width="31" height="40" viewBox="0 0 31 40" fill="none" xmlns="http://www.w3.org/2000/svg">
<path d="M18.079 9.16669H11.1988C10.7208 9.16669 10.3334 9.53976 10.3334 10C10.3334 10.4602 10.7208 10.8333 11.1988 10.8333H11.1945V15.8333H11.2014C10.722 15.8333 10.3334 16.2075 10.3334 16.6691V23.3309C10.3334 23.7925 10.722 24.1667 11.2014 24.1667H11.1945V29.1667C10.7208 29.1667 10.3334 29.5398 10.3334 30C10.3334 30.4602 10.7208 30.8333 11.1988 30.8333H18.079C18.557 30.8333 18.9445 30.4602 18.9445 30C18.9445 29.5398 18.557 29.1667 18.079 29.1667H18.0834V24.1667H18.0765C18.5559 24.1667 18.9445 23.7925 18.9445 23.3309V16.6691C18.9445 16.2075 18.5559 15.8333 18.0765 15.8333H18.0834V10.8333C18.557 10.8333 18.9445 10.4602 18.9445 10C18.9445 9.53976 18.557 9.16669 18.079 9.16669ZM0 0H16.3346C20.0705 0 23.2003 1.05714 25.724 3.17143C28.2478 5.28571 29.5096 8.03809 29.5096 11.4286C29.5096 14.6286 28.2974 17.2381 25.8731 19.2571C29.291 21.3524 31 24.3619 31 28.2857C31 31.7524 29.7084 34.5714 27.125 36.7429C24.5416 38.9143 21.3423 40 17.5269 40H0V24.1667H6.02089C6.50027 24.1667 6.88888 23.7925 6.88888 23.3309V16.6691C6.88888 16.2075 6.50027 15.8333 6.02089 15.8333H0V0Z" fill="white"/>
</svg>
