<svg width="24" height="24" viewBox="0 0 24 24" fill="none" xmlns="http://www.w3.org/2000/svg">
<path d="M21.3913 0.521973H2.60868C1.17078 0.521973 0 1.69275 0 3.13065V14.6089C0 16.0468 1.17078 17.2176 2.60868 17.2176H4.69565C4.98365 17.2176 5.2174 16.9838 5.2174 16.6958C5.2174 16.4078 4.98365 16.1741 4.69565 16.1741H2.60868C1.74571 16.1741 1.04346 15.4718 1.04346 14.6089V3.13065C1.04346 2.26768 1.74571 1.56543 2.60868 1.56543H21.3913C22.2542 1.56543 22.9565 2.26768 22.9565 3.13065V14.6089C22.9565 15.4719 22.2542 16.1741 21.3913 16.1741H19.3043C19.0163 16.1741 18.7825 16.4079 18.7825 16.6959C18.7825 16.9839 19.0163 17.2176 19.3043 17.2176H21.3913C22.8292 17.2176 24 16.0469 24 14.609V3.13065C24 1.69275 22.8292 0.521973 21.3913 0.521973Z" fill="white"/>
<path d="M21.8149 2.82494C21.6459 2.59119 21.3203 2.53797 21.0866 2.70809L12.9788 8.56303C12.385 8.9919 11.616 8.9919 11.0222 8.56303L2.91443 2.70809C2.67965 2.53802 2.35408 2.59124 2.18606 2.82494C2.01702 3.0587 2.06921 3.38529 2.30292 3.55331L10.4107 9.40824C10.8855 9.75156 11.4428 9.92374 12 9.92374C12.5572 9.92374 13.1144 9.75259 13.5902 9.40824L21.698 3.55331C21.9308 3.38529 21.984 3.0587 21.8149 2.82494Z" fill="white"/>
<path d="M8.19444 9.02273C7.99096 8.81925 7.66016 8.81925 7.45668 9.02273L2.23928 14.2401C2.0358 14.4436 2.0358 14.7744 2.23928 14.9779C2.34156 15.0791 2.47509 15.1303 2.60867 15.1303C2.74225 15.1303 2.87578 15.0791 2.97703 14.9779L8.19444 9.76048C8.39791 9.557 8.39791 9.2262 8.19444 9.02273Z" fill="white"/>
<path d="M21.7596 14.2401L16.5422 9.02273C16.3387 8.81925 16.0079 8.81925 15.8045 9.02273C15.601 9.2262 15.601 9.557 15.8045 9.76048L21.0219 14.9779C21.1241 15.0791 21.2577 15.1303 21.3913 15.1303C21.5248 15.1303 21.6584 15.0791 21.7596 14.9779C21.9631 14.7744 21.9631 14.4436 21.7596 14.2401Z" fill="white"/>
<path d="M12 12C8.83511 12 6.26086 14.5743 6.26086 17.7392C6.26086 20.904 8.83511 23.4783 12 23.4783C13.4984 23.4783 14.9154 22.9054 15.9902 21.864C16.1979 21.6636 16.2031 21.3328 16.0028 21.1262C15.8024 20.9186 15.4727 20.9155 15.265 21.1137C14.3854 21.9662 13.225 22.4348 12 22.4348C9.41111 22.4348 7.30432 20.328 7.30432 17.7391C7.30432 15.1502 9.41111 13.0435 12 13.0435C14.5888 13.0435 16.6956 15.1502 16.6956 17.7391C16.6956 18.0271 16.9294 18.2609 17.2174 18.2609C17.5054 18.2609 17.7391 18.0271 17.7391 17.7391C17.7391 14.5743 15.1648 12 12 12Z" fill="white"/>
<path d="M12 15.1304C10.5621 15.1304 9.3913 16.3012 9.3913 17.739C9.3913 19.1769 10.5621 20.3478 12 20.3478C13.4379 20.3478 14.6087 19.177 14.6087 17.7391C14.6087 16.3012 13.4379 15.1304 12 15.1304ZM12 19.3043C11.137 19.3043 10.4348 18.6021 10.4348 17.7391C10.4348 16.8761 11.137 16.1739 12 16.1739C12.8629 16.1739 13.5652 16.8761 13.5652 17.7391C13.5652 18.602 12.8629 19.3043 12 19.3043Z" fill="white"/>
<path d="M17.2174 17.2173C16.9294 17.2173 16.6956 17.451 16.6956 17.739C16.6956 18.9098 16.4327 19.3043 15.6522 19.3043C14.9593 19.3043 14.6087 18.7773 14.6087 17.739C14.6087 17.451 14.3749 17.2173 14.0869 17.2173C13.7989 17.2173 13.5652 17.451 13.5652 17.739C13.5652 19.372 14.3457 20.3477 15.6522 20.3477C17.7391 20.3477 17.7391 18.3839 17.7391 17.739C17.7391 17.451 17.5054 17.2173 17.2174 17.2173Z" fill="white"/>
</svg>
