<svg width="1440" height="1034" viewBox="0 0 1440 1034" fill="none" xmlns="http://www.w3.org/2000/svg">
<mask id="mask0" mask-type="alpha" maskUnits="userSpaceOnUse" x="0" y="0" width="1440" height="1034">
<path fill-rule="evenodd" clip-rule="evenodd" d="M0 787.841L0 0H1440V997.876C1307.92 1021.61 1171.91 1034 1033 1034C661.269 1034 310.262 945.273 0 787.841Z" fill="#464BDE"/>
</mask>
<g mask="url(#mask0)">
<circle cx="759.5" cy="-721.5" r="1439.5" fill="#464BDE" stroke="url(#paint0_linear)" stroke-width="500"/>
<circle cx="759.5" cy="-721.5" r="1439.5" fill="#464BDE" stroke="url(#paint1_linear)" stroke-width="500"/>
<circle cx="759.5" cy="-721.5" r="1688" stroke="url(#paint2_linear)" stroke-opacity="0.35" stroke-width="3"/>
<circle cx="1018.5" cy="-791.5" r="1439.5" fill="#464BDE" stroke="url(#paint3_linear)" stroke-width="500"/>
<circle cx="1018.5" cy="-791.5" r="1439.5" fill="#464BDE" stroke="url(#paint4_linear)" stroke-width="500"/>
<circle cx="1018.5" cy="-791.5" r="1688" stroke="url(#paint5_linear)" stroke-opacity="0.2" stroke-width="3"/>
<circle cx="1190" cy="-382" r="889" fill="#464BDE" stroke="url(#paint6_linear)" stroke-width="500"/>
<circle cx="1190" cy="-382" r="1137.5" stroke="url(#paint7_linear)" stroke-opacity="0.2" stroke-width="3"/>
<circle cx="1658" cy="-405" r="639" fill="#464BDE" stroke="url(#paint8_linear)" stroke-width="1000"/>
<circle cx="1658" cy="-405" r="1137.5" stroke="url(#paint9_linear)" stroke-opacity="0.2" stroke-width="3"/>
</g>
<defs>
<linearGradient id="paint0_linear" x1="-193.5" y1="203" x2="1348.5" y2="1000.5" gradientUnits="userSpaceOnUse">
<stop stop-color="#565BEA"/>
<stop offset="1" stop-color="#464BDE" stop-opacity="0"/>
</linearGradient>
<linearGradient id="paint1_linear" x1="-198" y1="596.5" x2="1348.5" y2="1000.5" gradientUnits="userSpaceOnUse">
<stop offset="0.077166" stop-color="#565BEA"/>
<stop offset="1" stop-color="#464BDE" stop-opacity="0"/>
</linearGradient>
<linearGradient id="paint2_linear" x1="-1067.5" y1="218.5" x2="963" y2="950" gradientUnits="userSpaceOnUse">
<stop stop-color="white"/>
<stop offset="1" stop-color="white" stop-opacity="0"/>
</linearGradient>
<linearGradient id="paint3_linear" x1="65.5001" y1="133" x2="1607.5" y2="930.5" gradientUnits="userSpaceOnUse">
<stop stop-color="#565BEA"/>
<stop offset="1" stop-color="#464BDE" stop-opacity="0"/>
</linearGradient>
<linearGradient id="paint4_linear" x1="91" y1="264" x2="1607.5" y2="930.5" gradientUnits="userSpaceOnUse">
<stop stop-color="#565BEA"/>
<stop offset="1" stop-color="#464BDE" stop-opacity="0"/>
</linearGradient>
<linearGradient id="paint5_linear" x1="-578" y1="-325" x2="1425" y2="881" gradientUnits="userSpaceOnUse">
<stop stop-color="white"/>
<stop offset="1" stop-color="white" stop-opacity="0"/>
</linearGradient>
<linearGradient id="paint6_linear" x1="547.522" y1="241.264" x2="1587.08" y2="778.91" gradientUnits="userSpaceOnUse">
<stop stop-color="#565BEA"/>
<stop offset="1" stop-color="#464BDE" stop-opacity="0"/>
</linearGradient>
<linearGradient id="paint7_linear" x1="-41.9999" y1="-211.5" x2="1360.5" y2="757" gradientUnits="userSpaceOnUse">
<stop stop-color="white"/>
<stop offset="1" stop-color="white" stop-opacity="0"/>
</linearGradient>
<linearGradient id="paint8_linear" x1="825.5" y1="219" x2="2055.08" y2="755.91" gradientUnits="userSpaceOnUse">
<stop stop-color="#565BEA"/>
<stop offset="1" stop-color="#464BDE" stop-opacity="0"/>
</linearGradient>
<linearGradient id="paint9_linear" x1="327.5" y1="-354.5" x2="1579" y2="707" gradientUnits="userSpaceOnUse">
<stop stop-color="white"/>
<stop offset="1" stop-color="white" stop-opacity="0"/>
</linearGradient>
</defs>
</svg>
