<svg width="1200" height="337" viewBox="0 0 1200 337" fill="none" xmlns="http://www.w3.org/2000/svg">
<mask id="mask0" mask-type="alpha" maskUnits="userSpaceOnUse" x="0" y="0" width="1200" height="337">
<rect width="1200" height="337" rx="20" fill="url(#paint0_radial)"/>
</mask>
<g mask="url(#mask0)">
<g opacity="0.05">
<rect x="1189" y="208.667" width="55.6667" height="55.6667" rx="27.8333" transform="rotate(90 1189 208.667)" stroke="#F2F3FF" stroke-width="20"/>
<rect x="958.907" y="287.427" width="49.48" height="49.48" rx="24.74" transform="rotate(90 958.907 287.427)" stroke="#F2F3FF" stroke-width="5"/>
<rect x="946.697" y="299.636" width="25.0608" height="25.0608" rx="12.5304" transform="rotate(90 946.697 299.636)" fill="#F2F3FF"/>
<rect x="967" y="128" width="65.6667" height="65.6667" rx="24" transform="rotate(90 967 128)" stroke="#F2F3FF" stroke-width="10"/>
<rect x="1199" y="274.333" width="75.6667" height="10.5933" transform="rotate(90 1199 274.333)" fill="#F2F3FF"/>
<rect x="1177.06" y="274.333" width="75.6667" height="10.5933" transform="rotate(90 1177.06 274.333)" fill="#F2F3FF"/>
<rect x="1155.87" y="274.333" width="75.6667" height="10.5933" transform="rotate(90 1155.87 274.333)" fill="#F2F3FF"/>
<rect x="1133.93" y="274.333" width="75.6667" height="10.5933" transform="rotate(90 1133.93 274.333)" fill="#F2F3FF"/>
<rect x="1120.83" y="120.5" width="70.6667" height="5.59333" transform="rotate(-180 1120.83 120.5)" stroke="#F2F3FF" stroke-width="5"/>
<rect x="1120.83" y="98.5566" width="70.6667" height="5.59333" transform="rotate(-180 1120.83 98.5566)" stroke="#F2F3FF" stroke-width="5"/>
<rect x="1120.83" y="77.3701" width="70.6667" height="5.59333" transform="rotate(-180 1120.83 77.3701)" stroke="#F2F3FF" stroke-width="5"/>
<rect x="1120.83" y="55.4263" width="70.6667" height="5.59333" transform="rotate(-180 1120.83 55.4263)" stroke="#F2F3FF" stroke-width="5"/>
<mask id="mask1" mask-type="alpha" maskUnits="userSpaceOnUse" x="1123" y="123" width="76" height="76">
<rect x="1199" y="123" width="75.6667" height="75.6667" transform="rotate(90 1199 123)" fill="#F9FAFC"/>
</mask>
<g mask="url(#mask1)">
<rect x="1109.03" y="111.575" width="143.392" height="4.07009" transform="rotate(45 1109.03 111.575)" fill="#F2F3FF"/>
<rect x="1103.07" y="117.536" width="143.392" height="4.07009" transform="rotate(45 1103.07 117.536)" fill="#F2F3FF"/>
<rect x="1097.31" y="123.292" width="143.392" height="4.07009" transform="rotate(45 1097.31 123.292)" fill="#F2F3FF"/>
<rect x="1091.35" y="129.254" width="143.392" height="4.07009" transform="rotate(45 1091.35 129.254)" fill="#F2F3FF"/>
<rect x="1132.47" y="88.1411" width="143.392" height="4.07009" transform="rotate(45 1132.47 88.1411)" fill="#F2F3FF"/>
<rect x="1126.5" y="94.1011" width="143.392" height="4.07009" transform="rotate(45 1126.5 94.1011)" fill="#F2F3FF"/>
<rect x="1120.75" y="99.8574" width="143.392" height="4.07009" transform="rotate(45 1120.75 99.8574)" fill="#F2F3FF"/>
<rect x="1114.79" y="105.819" width="143.392" height="4.07009" transform="rotate(45 1114.79 105.819)" fill="#F2F3FF"/>
</g>
<mask id="mask2" mask-type="alpha" maskUnits="userSpaceOnUse" x="972" y="198" width="76" height="77">
<rect x="972" y="198.667" width="75.6667" height="75.6667" fill="#F9FAFC"/>
</mask>
<g mask="url(#mask2)">
<rect x="960.575" y="288.636" width="143.392" height="4.07009" transform="rotate(-45 960.575 288.636)" fill="#F2F3FF"/>
<rect x="966.537" y="294.597" width="143.392" height="4.07009" transform="rotate(-45 966.537 294.597)" fill="#F2F3FF"/>
<rect x="972.293" y="300.354" width="143.392" height="4.07009" transform="rotate(-45 972.293 300.354)" fill="#F2F3FF"/>
<rect x="978.255" y="306.315" width="143.392" height="4.07009" transform="rotate(-45 978.255 306.315)" fill="#F2F3FF"/>
<rect x="937.142" y="265.199" width="143.392" height="4.07009" transform="rotate(-45 937.142 265.199)" fill="#F2F3FF"/>
<rect x="943.102" y="271.162" width="143.392" height="4.07009" transform="rotate(-45 943.102 271.162)" fill="#F2F3FF"/>
<rect x="948.858" y="276.918" width="143.392" height="4.07009" transform="rotate(-45 948.858 276.918)" fill="#F2F3FF"/>
<rect x="954.82" y="282.88" width="143.392" height="4.07009" transform="rotate(-45 954.82 282.88)" fill="#F2F3FF"/>
</g>
<mask id="mask3" mask-type="alpha" maskUnits="userSpaceOnUse" x="820" y="198" width="77" height="77">
<circle cx="858.5" cy="236.5" r="37.9881" transform="rotate(135 858.5 236.5)" fill="#F9FAFC"/>
</mask>
<g mask="url(#mask3)">
<rect x="845.791" y="122.952" width="143.978" height="2.90649" transform="rotate(45 845.791 122.952)" fill="#F2F3FF"/>
<rect x="841.534" y="127.209" width="143.978" height="2.90649" transform="rotate(45 841.534 127.209)" fill="#F2F3FF"/>
<rect x="837.424" y="131.32" width="143.978" height="2.90649" transform="rotate(45 837.424 131.32)" fill="#F2F3FF"/>
<rect x="833.166" y="135.578" width="143.978" height="2.90649" transform="rotate(45 833.166 135.578)" fill="#F2F3FF"/>
<rect x="862.527" y="106.219" width="143.978" height="2.90649" transform="rotate(45 862.527 106.219)" fill="#F2F3FF"/>
<rect x="858.269" y="110.475" width="143.978" height="2.90649" transform="rotate(45 858.269 110.475)" fill="#F2F3FF"/>
<rect x="854.159" y="114.585" width="143.978" height="2.90649" transform="rotate(45 854.159 114.585)" fill="#F2F3FF"/>
<rect x="849.901" y="118.843" width="143.978" height="2.90649" transform="rotate(45 849.901 118.843)" fill="#F2F3FF"/>
<rect x="812.152" y="156.591" width="143.978" height="2.90649" transform="rotate(45 812.152 156.591)" fill="#F2F3FF"/>
<rect x="807.896" y="160.849" width="143.978" height="2.90649" transform="rotate(45 807.896 160.849)" fill="#F2F3FF"/>
<rect x="803.784" y="164.959" width="143.978" height="2.90649" transform="rotate(45 803.784 164.959)" fill="#F2F3FF"/>
<rect x="799.528" y="169.216" width="143.978" height="2.90649" transform="rotate(45 799.528 169.216)" fill="#F2F3FF"/>
<rect x="828.888" y="139.858" width="143.978" height="2.90649" transform="rotate(45 828.888 139.858)" fill="#F2F3FF"/>
<rect x="824.631" y="144.113" width="143.978" height="2.90649" transform="rotate(45 824.631 144.113)" fill="#F2F3FF"/>
<rect x="820.52" y="148.224" width="143.978" height="2.90649" transform="rotate(45 820.52 148.224)" fill="#F2F3FF"/>
<rect x="816.262" y="152.48" width="143.978" height="2.90649" transform="rotate(45 816.262 152.48)" fill="#F2F3FF"/>
<rect x="778.545" y="190.199" width="143.978" height="2.90649" transform="rotate(45 778.545 190.199)" fill="#F2F3FF"/>
<rect x="774.288" y="194.456" width="143.978" height="2.90649" transform="rotate(45 774.288 194.456)" fill="#F2F3FF"/>
<rect x="770.177" y="198.566" width="143.978" height="2.90649" transform="rotate(45 770.177 198.566)" fill="#F2F3FF"/>
<rect x="765.92" y="202.824" width="143.978" height="2.90649" transform="rotate(45 765.92 202.824)" fill="#F2F3FF"/>
<rect x="795.281" y="173.464" width="143.978" height="2.90649" transform="rotate(45 795.281 173.464)" fill="#F2F3FF"/>
<rect x="791.023" y="177.72" width="143.978" height="2.90649" transform="rotate(45 791.023 177.72)" fill="#F2F3FF"/>
<rect x="786.912" y="181.831" width="143.978" height="2.90649" transform="rotate(45 786.912 181.831)" fill="#F2F3FF"/>
<rect x="782.655" y="186.089" width="143.978" height="2.90649" transform="rotate(45 782.655 186.089)" fill="#F2F3FF"/>
<rect x="744.906" y="223.837" width="143.978" height="2.90649" transform="rotate(45 744.906 223.837)" fill="#F2F3FF"/>
<rect x="740.65" y="228.095" width="143.978" height="2.90649" transform="rotate(45 740.65 228.095)" fill="#F2F3FF"/>
<rect x="736.539" y="232.205" width="143.978" height="2.90649" transform="rotate(45 736.539 232.205)" fill="#F2F3FF"/>
<rect x="732.281" y="236.462" width="143.978" height="2.90649" transform="rotate(45 732.281 236.462)" fill="#F2F3FF"/>
<rect x="761.642" y="207.104" width="143.978" height="2.90649" transform="rotate(45 761.642 207.104)" fill="#F2F3FF"/>
<rect x="757.384" y="211.359" width="143.978" height="2.90649" transform="rotate(45 757.384 211.359)" fill="#F2F3FF"/>
<rect x="753.274" y="215.469" width="143.978" height="2.90649" transform="rotate(45 753.274 215.469)" fill="#F2F3FF"/>
<rect x="749.016" y="219.727" width="143.978" height="2.90649" transform="rotate(45 749.016 219.727)" fill="#F2F3FF"/>
</g>
<mask id="mask4" mask-type="alpha" maskUnits="userSpaceOnUse" x="745" y="274" width="76" height="76">
<rect x="745" y="274.333" width="75.6667" height="75.6667" fill="#F9FAFC"/>
</mask>
<g mask="url(#mask4)">
<rect x="711.137" y="314.394" width="143.392" height="4.45515" fill="#F2F3FF"/>
<rect x="711.137" y="323.622" width="143.392" height="4.45515" fill="#F2F3FF"/>
<rect x="711.137" y="332.533" width="143.392" height="4.45515" fill="#F2F3FF"/>
<rect x="711.138" y="278.117" width="143.392" height="4.45515" fill="#F2F3FF"/>
<rect x="711.137" y="287.345" width="143.392" height="4.45515" fill="#F2F3FF"/>
<rect x="711.137" y="296.255" width="143.392" height="4.45515" fill="#F2F3FF"/>
<rect x="711.137" y="305.484" width="143.392" height="4.45515" fill="#F2F3FF"/>
</g>
<mask id="path-73-inside-1" fill="white">
<path fill-rule="evenodd" clip-rule="evenodd" d="M1120.07 201.694L1120.31 201.927L1120.31 211.42L1060.42 271.307L1050.79 271.307L1050.69 271.214L1050.69 262.518L1111.52 201.694L1120.07 201.694Z"/>
</mask>
<path fill-rule="evenodd" clip-rule="evenodd" d="M1120.07 201.694L1120.31 201.927L1120.31 211.42L1060.42 271.307L1050.79 271.307L1050.69 271.214L1050.69 262.518L1111.52 201.694L1120.07 201.694Z" fill="#F2F3FF"/>
<path d="M1120.07 201.694L1122.9 198.865L1121.73 197.694L1120.07 197.694L1120.07 201.694ZM1120.31 201.927L1124.31 201.927L1124.31 200.27L1123.14 199.099L1120.31 201.927ZM1120.31 211.42L1123.14 214.249L1124.31 213.077L1124.31 211.42L1120.31 211.42ZM1060.42 271.307L1060.42 275.307L1062.08 275.307L1063.25 274.136L1060.42 271.307ZM1050.79 271.307L1047.96 274.136L1049.13 275.307L1050.79 275.307L1050.79 271.307ZM1050.69 271.214L1046.69 271.214L1046.69 272.871L1047.86 274.043L1050.69 271.214ZM1050.69 262.518L1047.86 259.69L1046.69 260.862L1046.69 262.518L1050.69 262.518ZM1111.52 201.694L1111.52 197.694L1109.86 197.694L1108.69 198.865L1111.52 201.694ZM1117.24 204.522L1117.48 204.756L1123.14 199.099L1122.9 198.865L1117.24 204.522ZM1116.31 201.927L1116.31 211.42L1124.31 211.42L1124.31 201.927L1116.31 201.927ZM1117.48 208.592L1057.59 268.479L1063.25 274.136L1123.14 214.249L1117.48 208.592ZM1060.42 267.307L1050.79 267.307L1050.79 275.307L1060.42 275.307L1060.42 267.307ZM1053.61 268.479L1053.52 268.386L1047.86 274.043L1047.96 274.136L1053.61 268.479ZM1054.69 271.214L1054.69 262.518L1046.69 262.518L1046.69 271.214L1054.69 271.214ZM1053.52 265.347L1114.35 204.522L1108.69 198.865L1047.86 259.69L1053.52 265.347ZM1111.52 205.694L1120.07 205.694L1120.07 197.694L1111.52 197.694L1111.52 205.694Z" fill="#F2F3FF" mask="url(#path-73-inside-1)"/>
<mask id="path-75-inside-2" fill="white">
<path fill-rule="evenodd" clip-rule="evenodd" d="M1050.69 201.927L1050.93 201.693L1060.42 201.693L1120.31 261.58L1120.31 271.214L1120.21 271.306L1111.52 271.306L1050.69 210.482L1050.69 201.927Z"/>
</mask>
<path d="M1050.69 201.927L1048.57 199.806L1047.69 200.685L1047.69 201.927L1050.69 201.927ZM1050.93 201.693L1050.93 198.693L1049.69 198.693L1048.81 199.572L1050.93 201.693ZM1060.42 201.693L1062.54 199.572L1061.66 198.693L1060.42 198.693L1060.42 201.693ZM1120.31 261.58L1123.31 261.58L1123.31 260.337L1122.43 259.459L1120.31 261.58ZM1120.31 271.214L1122.43 273.336L1123.31 272.457L1123.31 271.214L1120.31 271.214ZM1120.21 271.306L1120.21 274.306L1121.46 274.306L1122.34 273.428L1120.21 271.306ZM1111.52 271.306L1109.4 273.428L1110.28 274.306L1111.52 274.306L1111.52 271.306ZM1050.69 210.482L1047.69 210.482L1047.69 211.724L1048.57 212.603L1050.69 210.482ZM1052.81 204.049L1053.05 203.814L1048.81 199.572L1048.57 199.806L1052.81 204.049ZM1050.93 204.693L1060.42 204.693L1060.42 198.693L1050.93 198.693L1050.93 204.693ZM1058.3 203.814L1118.19 263.701L1122.43 259.459L1062.54 199.572L1058.3 203.814ZM1117.31 261.58L1117.31 271.214L1123.31 271.214L1123.31 261.58L1117.31 261.58ZM1118.19 269.093L1118.09 269.185L1122.34 273.428L1122.43 273.336L1118.19 269.093ZM1120.21 268.306L1111.52 268.306L1111.52 274.306L1120.21 274.306L1120.21 268.306ZM1113.64 269.185L1052.81 208.36L1048.57 212.603L1109.4 273.428L1113.64 269.185ZM1053.69 210.482L1053.69 201.927L1047.69 201.927L1047.69 210.482L1053.69 210.482Z" fill="#F2F3FF" mask="url(#path-75-inside-2)"/>
<path fill-rule="evenodd" clip-rule="evenodd" d="M1123.33 85.1663C1123.33 106.061 1140.27 123 1161.17 123C1182.06 123 1199 106.061 1199 85.1663C1199 82.3139 1198.68 79.5352 1198.09 76.8633C1195.29 86.4691 1186.43 93.4897 1175.92 93.4897C1163.18 93.4897 1152.84 83.1571 1152.84 70.4113C1152.84 59.905 1159.86 51.0384 1169.47 48.247C1166.8 47.6487 1164.02 47.333 1161.17 47.333C1140.27 47.333 1123.33 64.2716 1123.33 85.1663Z" fill="#F2F3FF"/>
<circle cx="1175.92" cy="70.4113" r="10.215" transform="rotate(90 1175.92 70.4113)" fill="#F2F3FF"/>
<rect x="1195.97" y="-4.11865" width="8.32333" height="8.32333" transform="rotate(90 1195.97 -4.11865)" fill="#F2F3FF"/>
<rect x="1195.99" y="12.5142" width="12.89" height="12.89" transform="rotate(90 1195.99 12.5142)" stroke="#F2F3FF" stroke-width="3"/>
<rect x="1192.96" y="34.4575" width="6.83667" height="6.83667" transform="rotate(90 1192.96 34.4575)" stroke="#F2F3FF" stroke-width="3"/>
<rect x="1177.07" y="-5.64551" width="11.3767" height="11.3767" transform="rotate(90 1177.07 -5.64551)" stroke="#F2F3FF" stroke-width="3"/>
<rect x="1173.27" y="16.311" width="5.29667" height="5.29667" transform="rotate(90 1173.27 16.311)" fill="#F2F3FF"/>
<rect x="1173.29" y="35.2144" width="5.32333" height="5.32333" transform="rotate(90 1173.29 35.2144)" stroke="#F2F3FF" stroke-width="3"/>
<rect x="1155.11" y="-3.36279" width="6.81" height="6.81" transform="rotate(90 1155.11 -3.36279)" fill="#F2F3FF"/>
<rect x="1157.4" y="13.271" width="11.3767" height="11.3767" transform="rotate(90 1157.4 13.271)" stroke="#F2F3FF" stroke-width="3"/>
<rect x="1153.6" y="35.9844" width="3.78333" height="3.78333" transform="rotate(90 1153.6 35.9844)" fill="#F2F3FF"/>
<rect x="1138.48" y="-5.64551" width="11.3767" height="11.3767" transform="rotate(90 1138.48 -5.64551)" stroke="#F2F3FF" stroke-width="3"/>
<rect width="5.29667" height="5.29667" transform="matrix(4.37114e-08 -1 -1 -4.37114e-08 1135.44 21.6079)" fill="#F2F3FF"/>
<rect x="1136.97" y="33.7012" width="8.35" height="8.35" transform="rotate(90 1136.97 33.7012)" stroke="#F2F3FF" stroke-width="3"/>
<rect x="1042.38" y="278.86" width="9.86333" height="9.86333" transform="rotate(90 1042.38 278.86)" stroke="#F2F3FF" stroke-width="3"/>
<rect x="1043.88" y="298.547" width="8.32333" height="8.32333" transform="rotate(90 1043.88 298.547)" fill="#F2F3FF"/>
<rect x="1043.9" y="315.18" width="12.89" height="12.89" transform="rotate(90 1043.9 315.18)" stroke="#F2F3FF" stroke-width="3"/>
<rect x="1040.87" y="337.124" width="6.83667" height="6.83667" transform="rotate(90 1040.87 337.124)" stroke="#F2F3FF" stroke-width="3"/>
<rect x="1021.94" y="281.144" width="5.29667" height="5.29667" transform="rotate(90 1021.94 281.144)" fill="#F2F3FF"/>
<rect x="1024.98" y="297.02" width="11.3767" height="11.3767" transform="rotate(90 1024.98 297.02)" stroke="#F2F3FF" stroke-width="3"/>
<rect x="1021.18" y="318.977" width="5.29667" height="5.29667" transform="rotate(90 1021.18 318.977)" fill="#F2F3FF"/>
<rect x="1021.2" y="337.88" width="5.32333" height="5.32333" transform="rotate(90 1021.2 337.88)" stroke="#F2F3FF" stroke-width="3"/>
<rect x="1006.06" y="279.617" width="8.35" height="8.35" transform="rotate(90 1006.06 279.617)" stroke="#F2F3FF" stroke-width="3"/>
<rect x="1003.02" y="299.304" width="6.81" height="6.81" transform="rotate(90 1003.02 299.304)" fill="#F2F3FF"/>
<rect x="1005.31" y="315.937" width="11.3767" height="11.3767" transform="rotate(90 1005.31 315.937)" stroke="#F2F3FF" stroke-width="3"/>
<rect width="8.32333" height="8.32333" transform="matrix(4.37114e-08 -1 -1 -4.37114e-08 984.863 287.953)" fill="#F2F3FF"/>
<rect x="986.39" y="297.02" width="11.3767" height="11.3767" transform="rotate(90 986.39 297.02)" stroke="#F2F3FF" stroke-width="3"/>
<rect width="5.29667" height="5.29667" transform="matrix(4.37114e-08 -1 -1 -4.37114e-08 983.35 324.273)" fill="#F2F3FF"/>
<rect x="984.877" y="336.367" width="8.35" height="8.35" transform="rotate(90 984.877 336.367)" stroke="#F2F3FF" stroke-width="3"/>
<mask id="path-106-inside-3" fill="white">
<path d="M1112.25 134.08C1105.16 126.985 1095.53 122.999 1085.5 122.999C1075.47 122.999 1065.84 126.985 1058.75 134.08C1051.65 141.175 1047.67 150.798 1047.67 160.833C1047.67 170.867 1051.65 180.49 1058.75 187.585L1085.5 160.833L1112.25 134.08Z"/>
</mask>
<path d="M1112.25 134.08C1105.16 126.985 1095.53 122.999 1085.5 122.999C1075.47 122.999 1065.84 126.985 1058.75 134.08C1051.65 141.175 1047.67 150.798 1047.67 160.833C1047.67 170.867 1051.65 180.49 1058.75 187.585L1085.5 160.833L1112.25 134.08Z" stroke="#F2F3FF" stroke-width="20" mask="url(#path-106-inside-3)"/>
<circle cx="1100.8" cy="176.133" r="11.1956" transform="rotate(-45 1100.8 176.133)" stroke="#F2F3FF" stroke-width="10"/>
<mask id="mask5" mask-type="alpha" maskUnits="userSpaceOnUse" x="1061" y="-15" width="49" height="49">
<circle cx="1085.5" cy="9.49849" r="24.2133" transform="rotate(90 1085.5 9.49849)" fill="#F9FAFC"/>
</mask>
<g mask="url(#mask5)">
<rect x="1028.6" y="-1.79004" width="91.7706" height="1.85258" fill="#F2F3FF"/>
<rect x="1028.6" y="1.91504" width="91.7706" height="1.85258" fill="#F2F3FF"/>
<rect x="1028.6" y="5.75293" width="91.7706" height="1.85258" fill="#F2F3FF"/>
<rect x="1028.6" y="24.6665" width="91.7706" height="1.85258" fill="#F2F3FF"/>
<rect x="1028.6" y="28.5044" width="91.7706" height="1.85258" fill="#F2F3FF"/>
<rect x="1028.6" y="32.2095" width="91.7706" height="1.85258" fill="#F2F3FF"/>
<rect x="1028.6" y="9.58105" width="91.7706" height="1.85258" fill="#F2F3FF"/>
<rect x="1028.6" y="13.4189" width="91.7706" height="1.85258" fill="#F2F3FF"/>
<rect x="1028.6" y="17.1245" width="91.7706" height="1.85258" fill="#F2F3FF"/>
<rect x="1028.6" y="20.9624" width="91.7706" height="1.85258" fill="#F2F3FF"/>
</g>
<path d="M1107.44 43.5488L1119.55 31.4422L1119.55 43.5488L1107.44 43.5488Z" fill="#F2F3FF"/>
<path fill-rule="evenodd" clip-rule="evenodd" d="M1050.69 325.03L1050.69 346.973L1072.64 346.973L1072.64 335.802L1061.47 335.802L1061.47 325.03L1050.69 325.03Z" fill="#F2F3FF"/>
<path fill-rule="evenodd" clip-rule="evenodd" d="M1066.58 309.14L1066.58 331.083L1088.53 331.083L1088.53 319.912L1077.36 319.912L1077.36 309.14L1066.58 309.14Z" fill="#F2F3FF"/>
<path fill-rule="evenodd" clip-rule="evenodd" d="M1082.47 293.25L1082.47 315.193L1104.42 315.193L1104.42 304.022L1093.25 304.022L1093.25 293.25L1082.47 293.25Z" fill="#F2F3FF"/>
<path fill-rule="evenodd" clip-rule="evenodd" d="M1098.36 277.36L1098.36 299.304L1120.31 299.304L1120.31 288.132L1109.14 288.132L1109.14 277.36L1098.36 277.36Z" fill="#F2F3FF"/>
<path fill-rule="evenodd" clip-rule="evenodd" d="M965.19 246.336L965.19 204.72L923.573 204.72L923.573 225.907L944.76 225.907L944.76 246.336L965.19 246.336Z" fill="#F2F3FF"/>
<path fill-rule="evenodd" clip-rule="evenodd" d="M923.573 225.907L903.143 225.907L903.143 267.523L944.76 267.523L944.76 246.336L923.573 246.336L923.573 225.907Z" fill="#F2F3FF"/>
<path fill-rule="evenodd" clip-rule="evenodd" d="M1043.88 73.06L1043.88 51.1167L1021.94 51.1167L1021.94 62.2878L1033.11 62.2878L1033.11 73.06L1043.88 73.06Z" fill="#F2F3FF"/>
<path fill-rule="evenodd" clip-rule="evenodd" d="M975.783 97.273L975.783 119.216L997.727 119.216L997.727 108.046L986.556 108.046L986.556 97.273L975.783 97.273Z" fill="#F2F3FF"/>
<path fill-rule="evenodd" clip-rule="evenodd" d="M984.21 51.1167L1043.88 110.79L1043.88 119.217L1035.62 119.217L975.783 59.3831L975.783 51.1167L984.21 51.1167Z" fill="#F2F3FF"/>
<path fill-rule="evenodd" clip-rule="evenodd" d="M1008.1 138.659C1008.67 138.615 1009.25 138.593 1009.83 138.593C1022.12 138.593 1032.07 148.55 1032.07 160.833C1032.07 173.116 1022.12 183.073 1009.83 183.073C997.551 183.073 987.593 173.116 987.593 160.833C987.593 160.249 987.616 159.671 987.66 159.098C985.921 158.183 984.382 156.939 983.125 155.448C982.776 157.189 982.593 158.99 982.593 160.833C982.593 175.877 994.789 188.073 1009.83 188.073C1024.88 188.073 1037.07 175.877 1037.07 160.833C1037.07 145.789 1024.88 133.593 1009.83 133.593C1007.99 133.593 1006.19 133.776 1004.45 134.125C1005.94 135.381 1007.18 136.92 1008.1 138.659Z" fill="#F2F3FF"/>
<rect x="1006.81" y="133.593" width="24.2133" height="24.2133" rx="12.1067" transform="rotate(90 1006.81 133.593)" fill="#F2F3FF"/>
<mask id="path-131-inside-4" fill="white">
<path fill-rule="evenodd" clip-rule="evenodd" d="M860.646 277.36L860.77 277.484L860.77 282.54L828.874 314.437L823.743 314.437L823.693 314.387L823.693 309.755L856.089 277.36L860.646 277.36Z"/>
</mask>
<path fill-rule="evenodd" clip-rule="evenodd" d="M860.646 277.36L860.77 277.484L860.77 282.54L828.874 314.437L823.743 314.437L823.693 314.387L823.693 309.755L856.089 277.36L860.646 277.36Z" fill="#F2F3FF"/>
<path d="M860.646 277.36L863.474 274.531L862.303 273.36L860.646 273.36L860.646 277.36ZM860.77 277.484L864.77 277.484L864.77 275.827L863.598 274.656L860.77 277.484ZM860.77 282.54L863.598 285.369L864.77 284.197L864.77 282.54L860.77 282.54ZM828.874 314.437L828.874 318.437L830.53 318.437L831.702 317.265L828.874 314.437ZM823.743 314.437L820.915 317.265L822.086 318.437L823.743 318.437L823.743 314.437ZM823.693 314.387L819.693 314.387L819.693 316.044L820.865 317.215L823.693 314.387ZM823.693 309.755L820.865 306.927L819.693 308.099L819.693 309.755L823.693 309.755ZM856.089 277.36L856.089 273.36L854.432 273.36L853.26 274.531L856.089 277.36ZM857.817 280.188L857.942 280.313L863.598 274.656L863.474 274.531L857.817 280.188ZM856.77 277.484L856.77 282.54L864.77 282.54L864.77 277.484L856.77 277.484ZM857.942 279.712L826.045 311.608L831.702 317.265L863.598 285.369L857.942 279.712ZM828.874 310.437L823.743 310.437L823.743 318.437L828.874 318.437L828.874 310.437ZM826.571 311.608L826.522 311.558L820.865 317.215L820.915 317.265L826.571 311.608ZM827.693 314.387L827.693 309.755L819.693 309.755L819.693 314.387L827.693 314.387ZM826.522 312.584L858.917 280.188L853.26 274.531L820.865 306.927L826.522 312.584ZM856.089 281.36L860.646 281.36L860.646 273.36L856.089 273.36L856.089 281.36Z" fill="#F2F3FF" mask="url(#path-131-inside-4)"/>
<mask id="path-133-inside-5" fill="white">
<path fill-rule="evenodd" clip-rule="evenodd" d="M860.77 314.312L860.645 314.437L855.59 314.437L823.693 282.54L823.693 277.409L823.742 277.36L828.374 277.36L860.77 309.755L860.77 314.312Z"/>
</mask>
<path fill-rule="evenodd" clip-rule="evenodd" d="M860.77 314.312L860.645 314.437L855.59 314.437L823.693 282.54L823.693 277.409L823.742 277.36L828.374 277.36L860.77 309.755L860.77 314.312Z" fill="#F2F3FF"/>
<path d="M860.77 314.312L863.598 317.14L864.77 315.968L864.77 314.312L860.77 314.312ZM860.645 314.437L860.645 318.437L862.302 318.437L863.474 317.265L860.645 314.437ZM855.59 314.437L852.761 317.265L853.933 318.437L855.59 318.437L855.59 314.437ZM823.693 282.54L819.693 282.54L819.693 284.197L820.865 285.369L823.693 282.54ZM823.693 277.409L820.865 274.58L819.693 275.752L819.693 277.409L823.693 277.409ZM823.742 277.36L823.742 273.36L822.086 273.36L820.914 274.531L823.742 277.36ZM828.374 277.36L831.203 274.531L830.031 273.36L828.374 273.36L828.374 277.36ZM860.77 309.755L864.77 309.755L864.77 308.099L863.598 306.927L860.77 309.755ZM857.942 311.483L857.817 311.608L863.474 317.265L863.598 317.14L857.942 311.483ZM860.645 310.437L855.59 310.437L855.59 318.437L860.645 318.437L860.645 310.437ZM858.418 311.608L826.522 279.712L820.865 285.369L852.761 317.265L858.418 311.608ZM827.693 282.54L827.693 277.409L819.693 277.409L819.693 282.54L827.693 282.54ZM826.522 280.237L826.571 280.188L820.914 274.531L820.865 274.58L826.522 280.237ZM823.742 281.36L828.374 281.36L828.374 273.36L823.742 273.36L823.742 281.36ZM825.546 280.188L857.942 312.584L863.598 306.927L831.203 274.531L825.546 280.188ZM856.77 309.755L856.77 314.312L864.77 314.312L864.77 309.755L856.77 309.755Z" fill="#F2F3FF" mask="url(#path-133-inside-5)"/>
<mask id="path-135-inside-6" fill="white">
<path fill-rule="evenodd" clip-rule="evenodd" d="M892.425 309.14L892.55 309.265L892.55 314.321L860.654 346.216L855.522 346.216L855.473 346.167L855.473 341.536L887.87 309.14L892.425 309.14Z"/>
</mask>
<path fill-rule="evenodd" clip-rule="evenodd" d="M892.425 309.14L892.55 309.265L892.55 314.321L860.654 346.216L855.522 346.216L855.473 346.167L855.473 341.536L887.87 309.14L892.425 309.14Z" fill="#F2F3FF"/>
<path d="M892.425 309.14L895.253 306.311L894.082 305.14L892.425 305.14L892.425 309.14ZM892.55 309.265L896.55 309.265L896.55 307.608L895.378 306.436L892.55 309.265ZM892.55 314.321L895.378 317.149L896.55 315.977L896.55 314.321L892.55 314.321ZM860.654 346.216L860.654 350.216L862.311 350.216L863.483 349.045L860.654 346.216ZM855.522 346.216L852.694 349.045L853.865 350.216L855.522 350.216L855.522 346.216ZM855.473 346.167L851.473 346.167L851.473 347.824L852.645 348.996L855.473 346.167ZM855.473 341.536L852.645 338.707L851.473 339.879L851.473 341.536L855.473 341.536ZM887.87 309.14L887.87 305.14L886.213 305.14L885.041 306.311L887.87 309.14ZM889.597 311.968L889.722 312.093L895.378 306.436L895.253 306.311L889.597 311.968ZM888.55 309.265L888.55 314.321L896.55 314.321L896.55 309.265L888.55 309.265ZM889.722 311.492L857.826 343.388L863.483 349.045L895.378 317.149L889.722 311.492ZM860.654 342.216L855.522 342.216L855.522 350.216L860.654 350.216L860.654 342.216ZM858.351 343.388L858.302 343.339L852.645 348.996L852.694 349.045L858.351 343.388ZM859.473 346.167L859.473 341.536L851.473 341.536L851.473 346.167L859.473 346.167ZM858.302 344.364L890.698 311.968L885.041 306.311L852.645 338.707L858.302 344.364ZM887.87 313.14L892.425 313.14L892.425 305.14L887.87 305.14L887.87 313.14Z" fill="#F2F3FF" mask="url(#path-135-inside-6)"/>
<mask id="path-137-inside-7" fill="white">
<path fill-rule="evenodd" clip-rule="evenodd" d="M892.55 346.092L892.426 346.216L887.369 346.216L855.473 314.321L855.473 309.189L855.523 309.14L860.154 309.14L892.55 341.536L892.55 346.092Z"/>
</mask>
<path fill-rule="evenodd" clip-rule="evenodd" d="M892.55 346.092L892.426 346.216L887.369 346.216L855.473 314.321L855.473 309.189L855.523 309.14L860.154 309.14L892.55 341.536L892.55 346.092Z" fill="#F2F3FF"/>
<path d="M892.55 346.092L895.378 348.921L896.55 347.749L896.55 346.092L892.55 346.092ZM892.426 346.216L892.426 350.216L894.083 350.216L895.254 349.045L892.426 346.216ZM887.369 346.216L884.541 349.045L885.712 350.216L887.369 350.216L887.369 346.216ZM855.473 314.321L851.473 314.321L851.473 315.978L852.645 317.149L855.473 314.321ZM855.473 309.189L852.645 306.361L851.473 307.532L851.473 309.189L855.473 309.189ZM855.523 309.14L855.523 305.14L853.866 305.14L852.695 306.311L855.523 309.14ZM860.154 309.14L862.982 306.311L861.811 305.14L860.154 305.14L860.154 309.14ZM892.55 341.536L896.55 341.536L896.55 339.879L895.378 338.708L892.55 341.536ZM889.722 343.264L889.597 343.388L895.254 349.045L895.378 348.921L889.722 343.264ZM892.426 342.216L887.369 342.216L887.369 350.216L892.426 350.216L892.426 342.216ZM890.197 343.388L858.302 311.492L852.645 317.149L884.541 349.045L890.197 343.388ZM859.473 314.321L859.473 309.189L851.473 309.189L851.473 314.321L859.473 314.321ZM858.302 312.018L858.351 311.968L852.695 306.311L852.645 306.361L858.302 312.018ZM855.523 313.14L860.154 313.14L860.154 305.14L855.523 305.14L855.523 313.14ZM857.325 311.968L889.722 344.364L895.378 338.708L862.982 306.311L857.325 311.968ZM888.55 341.536L888.55 346.092L896.55 346.092L896.55 341.536L888.55 341.536Z" fill="#F2F3FF" mask="url(#path-137-inside-7)"/>
</g>
<g opacity="0.05">
<rect x="-55" y="74.334" width="55.6667" height="55.6667" rx="27.8333" transform="rotate(-90 -55 74.334)" stroke="#F2F3FF" stroke-width="20"/>
<rect x="-63.5" y="385.5" width="72.6667" height="72.6667" rx="36.3333" transform="rotate(-90 -63.5 385.5)" stroke="#F2F3FF" stroke-width="3"/>
<rect x="-56.69" y="378.69" width="59.0467" height="59.0467" rx="29.5233" transform="rotate(-90 -56.69 378.69)" stroke="#F2F3FF" stroke-width="3"/>
<rect x="167" y="155" width="65.6667" height="65.6667" rx="24" transform="rotate(-90 167 155)" stroke="#F2F3FF" stroke-width="10"/>
<rect x="0.0733643" y="8.66699" width="75.6667" height="10.5933" transform="rotate(-90 0.0733643 8.66699)" fill="#F2F3FF"/>
<rect x="13.1666" y="162.5" width="70.6667" height="5.59333" stroke="#F2F3FF" stroke-width="5"/>
<rect x="13.1666" y="184.444" width="70.6667" height="5.59333" stroke="#F2F3FF" stroke-width="5"/>
<rect x="13.1666" y="205.63" width="70.6667" height="5.59333" stroke="#F2F3FF" stroke-width="5"/>
<rect x="13.1666" y="227.574" width="70.6667" height="5.59333" stroke="#F2F3FF" stroke-width="5"/>
<mask id="mask6" mask-type="alpha" maskUnits="userSpaceOnUse" x="-65" y="84" width="76" height="77">
<rect x="-65" y="160" width="75.6667" height="75.6667" transform="rotate(-90 -65 160)" fill="#F9FAFC"/>
</mask>
<g mask="url(#mask6)">
<rect x="24.9686" y="171.426" width="143.392" height="4.07009" transform="rotate(-135 24.9686 171.426)" fill="#F2F3FF"/>
<rect x="30.9299" y="165.465" width="143.392" height="4.07009" transform="rotate(-135 30.9299 165.465)" fill="#F2F3FF"/>
<rect x="36.6868" y="159.708" width="143.392" height="4.07009" transform="rotate(-135 36.6868 159.708)" fill="#F2F3FF"/>
<rect x="42.6485" y="153.747" width="143.392" height="4.07009" transform="rotate(-135 42.6485 153.747)" fill="#F2F3FF"/>
<rect x="1.5331" y="194.859" width="143.392" height="4.07009" transform="rotate(-135 1.5331 194.859)" fill="#F2F3FF"/>
<rect x="7.49551" y="188.899" width="143.392" height="4.07009" transform="rotate(-135 7.49551 188.899)" fill="#F2F3FF"/>
<rect x="13.2515" y="183.143" width="143.392" height="4.07009" transform="rotate(-135 13.2515 183.143)" fill="#F2F3FF"/>
<rect x="19.2136" y="177.181" width="143.392" height="4.07009" transform="rotate(-135 19.2136 177.181)" fill="#F2F3FF"/>
</g>
<mask id="mask7" mask-type="alpha" maskUnits="userSpaceOnUse" x="86" y="8" width="76" height="77">
<rect x="162" y="84.334" width="75.6667" height="75.6667" transform="rotate(180 162 84.334)" fill="#F9FAFC"/>
</mask>
<g mask="url(#mask7)">
<rect x="173.425" y="-5.63525" width="143.392" height="4.07009" transform="rotate(135 173.425 -5.63525)" fill="#F2F3FF"/>
<rect x="167.463" y="-11.5962" width="143.392" height="4.07009" transform="rotate(135 167.463 -11.5962)" fill="#F2F3FF"/>
<rect x="161.707" y="-17.353" width="143.392" height="4.07009" transform="rotate(135 161.707 -17.353)" fill="#F2F3FF"/>
<rect x="155.746" y="-23.3145" width="143.392" height="4.07009" transform="rotate(135 155.746 -23.3145)" fill="#F2F3FF"/>
<rect x="196.858" y="17.8013" width="143.392" height="4.07009" transform="rotate(135 196.858 17.8013)" fill="#F2F3FF"/>
<rect x="190.898" y="11.8389" width="143.392" height="4.07009" transform="rotate(135 190.898 11.8389)" fill="#F2F3FF"/>
<rect x="185.142" y="6.08252" width="143.392" height="4.07009" transform="rotate(135 185.142 6.08252)" fill="#F2F3FF"/>
<rect x="179.18" y="0.120605" width="143.392" height="4.07009" transform="rotate(135 179.18 0.120605)" fill="#F2F3FF"/>
</g>
<mask id="mask8" mask-type="alpha" maskUnits="userSpaceOnUse" x="237" y="8" width="77" height="77">
<circle cx="275.5" cy="46.5005" r="37.9881" transform="rotate(-45 275.5 46.5005)" fill="#F9FAFC"/>
</mask>
<g mask="url(#mask8)">
<rect x="288.209" y="160.048" width="143.978" height="2.90649" transform="rotate(-135 288.209 160.048)" fill="#F2F3FF"/>
<rect x="292.466" y="155.792" width="143.978" height="2.90649" transform="rotate(-135 292.466 155.792)" fill="#F2F3FF"/>
<rect x="296.577" y="151.68" width="143.978" height="2.90649" transform="rotate(-135 296.577 151.68)" fill="#F2F3FF"/>
<rect x="300.834" y="147.423" width="143.978" height="2.90649" transform="rotate(-135 300.834 147.423)" fill="#F2F3FF"/>
<rect x="271.473" y="176.782" width="143.978" height="2.90649" transform="rotate(-135 271.473 176.782)" fill="#F2F3FF"/>
<rect x="275.731" y="172.526" width="143.978" height="2.90649" transform="rotate(-135 275.731 172.526)" fill="#F2F3FF"/>
<rect x="279.841" y="168.415" width="143.978" height="2.90649" transform="rotate(-135 279.841 168.415)" fill="#F2F3FF"/>
<rect x="284.099" y="164.157" width="143.978" height="2.90649" transform="rotate(-135 284.099 164.157)" fill="#F2F3FF"/>
<rect x="321.848" y="126.409" width="143.978" height="2.90649" transform="rotate(-135 321.848 126.409)" fill="#F2F3FF"/>
<rect x="326.104" y="122.151" width="143.978" height="2.90649" transform="rotate(-135 326.104 122.151)" fill="#F2F3FF"/>
<rect x="330.216" y="118.042" width="143.978" height="2.90649" transform="rotate(-135 330.216 118.042)" fill="#F2F3FF"/>
<rect x="334.473" y="113.785" width="143.978" height="2.90649" transform="rotate(-135 334.473 113.785)" fill="#F2F3FF"/>
<rect x="305.112" y="143.143" width="143.978" height="2.90649" transform="rotate(-135 305.112 143.143)" fill="#F2F3FF"/>
<rect x="309.369" y="138.888" width="143.978" height="2.90649" transform="rotate(-135 309.369 138.888)" fill="#F2F3FF"/>
<rect x="313.48" y="134.777" width="143.978" height="2.90649" transform="rotate(-135 313.48 134.777)" fill="#F2F3FF"/>
<rect x="317.738" y="130.52" width="143.978" height="2.90649" transform="rotate(-135 317.738 130.52)" fill="#F2F3FF"/>
<rect x="355.455" y="92.8018" width="143.978" height="2.90649" transform="rotate(-135 355.455 92.8018)" fill="#F2F3FF"/>
<rect x="359.712" y="88.5449" width="143.978" height="2.90649" transform="rotate(-135 359.712 88.5449)" fill="#F2F3FF"/>
<rect x="363.823" y="84.4341" width="143.978" height="2.90649" transform="rotate(-135 363.823 84.4341)" fill="#F2F3FF"/>
<rect x="368.08" y="80.1768" width="143.978" height="2.90649" transform="rotate(-135 368.08 80.1768)" fill="#F2F3FF"/>
<rect x="338.719" y="109.536" width="143.978" height="2.90649" transform="rotate(-135 338.719 109.536)" fill="#F2F3FF"/>
<rect x="342.977" y="105.28" width="143.978" height="2.90649" transform="rotate(-135 342.977 105.28)" fill="#F2F3FF"/>
<rect x="347.088" y="101.169" width="143.978" height="2.90649" transform="rotate(-135 347.088 101.169)" fill="#F2F3FF"/>
<rect x="351.345" y="96.9116" width="143.978" height="2.90649" transform="rotate(-135 351.345 96.9116)" fill="#F2F3FF"/>
<rect x="389.094" y="59.1631" width="143.978" height="2.90649" transform="rotate(-135 389.094 59.1631)" fill="#F2F3FF"/>
<rect x="393.351" y="54.9058" width="143.978" height="2.90649" transform="rotate(-135 393.351 54.9058)" fill="#F2F3FF"/>
<rect x="397.461" y="50.7959" width="143.978" height="2.90649" transform="rotate(-135 397.461 50.7959)" fill="#F2F3FF"/>
<rect x="401.719" y="46.5381" width="143.978" height="2.90649" transform="rotate(-135 401.719 46.5381)" fill="#F2F3FF"/>
<rect x="372.358" y="75.897" width="143.978" height="2.90649" transform="rotate(-135 372.358 75.897)" fill="#F2F3FF"/>
<rect x="376.616" y="71.6411" width="143.978" height="2.90649" transform="rotate(-135 376.616 71.6411)" fill="#F2F3FF"/>
<rect x="380.726" y="67.5312" width="143.978" height="2.90649" transform="rotate(-135 380.726 67.5312)" fill="#F2F3FF"/>
<rect x="384.984" y="63.2734" width="143.978" height="2.90649" transform="rotate(-135 384.984 63.2734)" fill="#F2F3FF"/>
</g>
<mask id="mask9" mask-type="alpha" maskUnits="userSpaceOnUse" x="313" y="-67" width="76" height="76">
<rect x="389" y="8.66748" width="75.6667" height="75.6667" transform="rotate(180 389 8.66748)" fill="#F9FAFC"/>
</mask>
<g mask="url(#mask9)">
<rect x="422.862" y="4.88379" width="143.392" height="4.45515" transform="rotate(180 422.862 4.88379)" fill="#F2F3FF"/>
</g>
<mask id="path-201-inside-8" fill="white">
<path fill-rule="evenodd" clip-rule="evenodd" d="M13.9268 81.3067L13.6933 81.0732L13.6933 71.5802L73.5802 11.6934L83.2136 11.6934L83.3067 11.7864L83.3067 20.4821L22.4821 81.3067L13.9268 81.3067Z"/>
</mask>
<path fill-rule="evenodd" clip-rule="evenodd" d="M13.9268 81.3067L13.6933 81.0732L13.6933 71.5802L73.5802 11.6934L83.2136 11.6934L83.3067 11.7864L83.3067 20.4821L22.4821 81.3067L13.9268 81.3067Z" fill="#F2F3FF"/>
<path d="M13.9268 81.3067L11.0984 84.1351L12.2699 85.3067L13.9268 85.3067L13.9268 81.3067ZM13.6933 81.0732L9.69335 81.0732L9.69335 82.7301L10.8649 83.9017L13.6933 81.0732ZM13.6933 71.5802L10.8649 68.7517L9.69335 69.9233L9.69335 71.5802L13.6933 71.5802ZM73.5802 11.6934L73.5802 7.69336L71.9233 7.69336L70.7517 8.86494L73.5802 11.6934ZM83.2136 11.6934L86.042 8.86492L84.8705 7.69336L83.2136 7.69336L83.2136 11.6934ZM83.3067 11.7864L87.3067 11.7864L87.3067 10.1296L86.1351 8.95798L83.3067 11.7864ZM83.3067 20.4821L86.1351 23.3105L87.3067 22.1389L87.3067 20.4821L83.3067 20.4821ZM22.4821 81.3067L22.4821 85.3067L24.1389 85.3067L25.3105 84.1351L22.4821 81.3067ZM16.7552 78.4782L16.5218 78.2448L10.8649 83.9017L11.0984 84.1351L16.7552 78.4782ZM17.6933 81.0733L17.6933 71.5802L9.69335 71.5802L9.69335 81.0732L17.6933 81.0733ZM16.5218 74.4086L76.4086 14.5218L70.7517 8.86494L10.8649 68.7517L16.5218 74.4086ZM73.5802 15.6934L83.2136 15.6934L83.2136 7.69336L73.5802 7.69336L73.5802 15.6934ZM80.3852 14.5218L80.4783 14.6149L86.1351 8.95798L86.042 8.86492L80.3852 14.5218ZM79.3067 11.7864L79.3067 20.4821L87.3067 20.4821L87.3067 11.7864L79.3067 11.7864ZM80.4782 17.6537L19.6536 78.4783L25.3105 84.1351L86.1351 23.3105L80.4782 17.6537ZM22.4821 77.3067L13.9268 77.3067L13.9268 85.3067L22.4821 85.3067L22.4821 77.3067Z" fill="#F2F3FF" mask="url(#path-201-inside-8)"/>
<mask id="path-203-inside-9" fill="white">
<path fill-rule="evenodd" clip-rule="evenodd" d="M83.3067 81.0731L83.0722 81.3076L73.5804 81.3076L13.6934 21.4206L13.6934 11.7863L13.7854 11.6943L22.4823 11.6943L83.3067 72.5187L83.3067 81.0731Z"/>
</mask>
<path d="M83.3067 81.0731L85.428 83.1945L86.3067 82.3158L86.3067 81.0731L83.3067 81.0731ZM83.0722 81.3076L83.0722 84.3076L84.3148 84.3076L85.1935 83.429L83.0722 81.3076ZM73.5804 81.3076L71.4591 83.4289L72.3377 84.3076L73.5804 84.3076L73.5804 81.3076ZM13.6934 21.4206L10.6934 21.4206L10.6934 22.6632L11.572 23.5419L13.6934 21.4206ZM13.6934 11.7863L11.5721 9.66495L10.6934 10.5436L10.6934 11.7863L13.6934 11.7863ZM13.7854 11.6943L13.7854 8.69429L12.5428 8.69429L11.6641 9.57293L13.7854 11.6943ZM22.4823 11.6943L24.6036 9.57297L23.7249 8.69429L22.4823 8.69429L22.4823 11.6943ZM83.3067 72.5187L86.3067 72.5187L86.3067 71.276L85.428 70.3974L83.3067 72.5187ZM81.1854 78.9518L80.9509 79.1863L85.1935 83.429L85.428 83.1945L81.1854 78.9518ZM83.0722 78.3076L73.5804 78.3076L73.5804 84.3076L83.0722 84.3076L83.0722 78.3076ZM75.7017 79.1863L15.8147 19.2993L11.572 23.5419L71.4591 83.4289L75.7017 79.1863ZM16.6934 21.4206L16.6934 11.7863L10.6934 11.7863L10.6934 21.4206L16.6934 21.4206ZM15.8146 13.9077L15.9067 13.8157L11.6641 9.57293L11.5721 9.66495L15.8146 13.9077ZM13.7854 14.6943L22.4823 14.6943L22.4823 8.69429L13.7854 8.69429L13.7854 14.6943ZM20.361 13.8156L81.1854 74.64L85.428 70.3974L24.6036 9.57297L20.361 13.8156ZM80.3067 72.5187L80.3067 81.0731L86.3067 81.0731L86.3067 72.5187L80.3067 72.5187Z" fill="#F2F3FF" mask="url(#path-203-inside-9)"/>
<path fill-rule="evenodd" clip-rule="evenodd" d="M10.6667 197.834C10.6667 176.939 -6.2719 160.001 -27.1667 160.001C-48.0614 160.001 -65 176.939 -65 197.834C-65 200.687 -64.6843 203.465 -64.086 206.137C-61.2946 196.531 -52.428 189.511 -41.9217 189.511C-29.1759 189.511 -18.8433 199.843 -18.8433 212.589C-18.8433 223.095 -25.864 231.962 -35.4697 234.754C-32.7978 235.352 -30.0191 235.667 -27.1667 235.667C-6.2719 235.667 10.6667 218.729 10.6667 197.834Z" fill="#F2F3FF"/>
<rect width="8.32333" height="8.32333" transform="matrix(-1.19249e-08 1 1 1.19249e-08 -2.95325 297.713)" fill="#F2F3FF"/>
<rect x="-4.4799" y="288.646" width="11.3767" height="11.3767" transform="rotate(-90 -4.4799 288.646)" stroke="#F2F3FF" stroke-width="3"/>
<rect width="5.29667" height="5.29667" transform="matrix(-1.19249e-08 1 1 1.19249e-08 -1.43994 261.393)" fill="#F2F3FF"/>
<rect x="-2.96658" y="249.299" width="8.35" height="8.35" transform="rotate(-90 -2.96658 249.299)" stroke="#F2F3FF" stroke-width="3"/>
<rect x="91.6166" y="4.14063" width="9.86333" height="9.86333" transform="rotate(-90 91.6166 4.14063)" stroke="#F2F3FF" stroke-width="3"/>
<rect x="112.06" y="1.85693" width="5.29667" height="5.29667" transform="rotate(-90 112.06 1.85693)" fill="#F2F3FF"/>
<rect x="127.937" y="3.38379" width="8.35" height="8.35" transform="rotate(-90 127.937 3.38379)" stroke="#F2F3FF" stroke-width="3"/>
<rect width="8.32333" height="8.32333" transform="matrix(-1.19249e-08 1 1 1.19249e-08 149.137 -4.95264)" fill="#F2F3FF"/>
<mask id="path-214-inside-10" fill="white">
<path d="M21.7475 148.92C28.8426 156.015 38.4657 160.001 48.4997 160.001C58.5337 160.001 68.1568 156.015 75.2519 148.92C82.347 141.825 86.333 132.202 86.333 122.168C86.333 112.134 82.347 102.511 75.2519 95.4158L48.4997 122.168L21.7475 148.92Z"/>
</mask>
<path d="M21.7475 148.92C28.8426 156.015 38.4657 160.001 48.4997 160.001C58.5337 160.001 68.1568 156.015 75.2519 148.92C82.347 141.825 86.333 132.202 86.333 122.168C86.333 112.134 82.347 102.511 75.2519 95.4158L48.4997 122.168L21.7475 148.92Z" stroke="#F2F3FF" stroke-width="20" mask="url(#path-214-inside-10)"/>
<circle cx="33.1995" cy="106.868" r="11.1956" transform="rotate(135 33.1995 106.868)" stroke="#F2F3FF" stroke-width="10"/>
<mask id="mask10" mask-type="alpha" maskUnits="userSpaceOnUse" x="24" y="249" width="49" height="49">
<circle cx="48.5" cy="273.502" r="24.2133" transform="rotate(-90 48.5 273.502)" fill="#F9FAFC"/>
</mask>
<g mask="url(#mask10)">
<rect x="105.404" y="288.628" width="91.7706" height="1.85258" transform="rotate(180 105.404 288.628)" fill="#F2F3FF"/>
<rect x="105.404" y="284.791" width="91.7706" height="1.85258" transform="rotate(180 105.404 284.791)" fill="#F2F3FF"/>
<rect x="105.404" y="281.085" width="91.7706" height="1.85258" transform="rotate(180 105.404 281.085)" fill="#F2F3FF"/>
<rect x="105.404" y="277.248" width="91.7706" height="1.85258" transform="rotate(180 105.404 277.248)" fill="#F2F3FF"/>
<rect x="105.404" y="296.17" width="91.7706" height="1.85258" transform="rotate(180 105.404 296.17)" fill="#F2F3FF"/>
<rect x="105.404" y="292.333" width="91.7706" height="1.85258" transform="rotate(180 105.404 292.333)" fill="#F2F3FF"/>
<rect x="105.404" y="258.334" width="91.7706" height="1.85258" transform="rotate(180 105.404 258.334)" fill="#F2F3FF"/>
<rect x="105.404" y="254.496" width="91.7706" height="1.85258" transform="rotate(180 105.404 254.496)" fill="#F2F3FF"/>
<rect x="105.404" y="250.791" width="91.7706" height="1.85258" transform="rotate(180 105.404 250.791)" fill="#F2F3FF"/>
<rect x="105.403" y="273.419" width="91.7706" height="1.85258" transform="rotate(180 105.403 273.419)" fill="#F2F3FF"/>
<rect x="105.404" y="269.582" width="91.7706" height="1.85258" transform="rotate(180 105.404 269.582)" fill="#F2F3FF"/>
<rect x="105.404" y="265.876" width="91.7706" height="1.85258" transform="rotate(180 105.404 265.876)" fill="#F2F3FF"/>
<rect x="105.404" y="262.038" width="91.7706" height="1.85258" transform="rotate(180 105.404 262.038)" fill="#F2F3FF"/>
</g>
<path d="M66.6601 311.335L86.3334 291.662L86.3334 311.335L66.6601 311.335Z" fill="#F2F3FF"/>
<path d="M26.5567 239.452L14.45 251.558L14.45 239.452L26.5567 239.452Z" fill="#F2F3FF"/>
<path fill-rule="evenodd" clip-rule="evenodd" d="M35.6367 5.64011L35.6367 -16.3032L13.6933 -16.3032L13.6933 -5.13163L24.8645 -5.13163L24.8645 5.64011L35.6367 5.64011Z" fill="#F2F3FF"/>
<path fill-rule="evenodd" clip-rule="evenodd" d="M168.81 36.6641L168.81 78.2808L210.427 78.2808L210.427 57.0938L189.24 57.0938L189.24 36.6641L168.81 36.6641Z" fill="#F2F3FF"/>
<path fill-rule="evenodd" clip-rule="evenodd" d="M210.427 57.0938L230.857 57.0938L230.857 15.4771L189.24 15.4771L189.24 36.6643L210.427 36.6643L210.427 57.0938Z" fill="#F2F3FF"/>
<path fill-rule="evenodd" clip-rule="evenodd" d="M90.1167 209.94L90.1167 231.884L112.06 231.884L112.06 220.713L100.889 220.713L100.889 209.94L90.1167 209.94Z" fill="#F2F3FF"/>
<path fill-rule="evenodd" clip-rule="evenodd" d="M158.217 185.728L158.217 163.784L136.273 163.784L136.273 174.955L147.444 174.955L147.444 185.728L158.217 185.728Z" fill="#F2F3FF"/>
<path fill-rule="evenodd" clip-rule="evenodd" d="M149.79 231.884L90.1167 172.211L90.1167 163.784L98.3831 163.784L158.217 223.617L158.217 231.884L149.79 231.884Z" fill="#F2F3FF"/>
<path fill-rule="evenodd" clip-rule="evenodd" d="M125.9 144.341C125.328 144.385 124.75 144.408 124.167 144.408C111.884 144.408 101.927 134.451 101.927 122.168C101.927 109.885 111.884 99.9277 124.167 99.9277C136.449 99.9277 146.407 109.885 146.407 122.168C146.407 122.751 146.384 123.33 146.34 123.902C148.079 124.818 149.618 126.062 150.875 127.552C151.224 125.811 151.407 124.011 151.407 122.168C151.407 107.123 139.211 94.9277 124.167 94.9277C109.122 94.9277 96.9267 107.123 96.9267 122.168C96.9267 137.212 109.122 149.408 124.167 149.408C126.01 149.408 127.81 149.225 129.55 148.876C128.06 147.619 126.816 146.08 125.9 144.341Z" fill="#F2F3FF"/>
<rect x="127.193" y="149.408" width="24.2133" height="24.2133" rx="12.1067" transform="rotate(-90 127.193 149.408)" fill="#F2F3FF"/>
<mask id="path-240-inside-11" fill="white">
<path fill-rule="evenodd" clip-rule="evenodd" d="M273.354 5.64063L273.23 5.51635L273.23 0.460377L305.126 -31.436L310.257 -31.436L310.307 -31.3864L310.307 -26.7549L277.911 5.64063L273.354 5.64063Z"/>
</mask>
<path fill-rule="evenodd" clip-rule="evenodd" d="M273.354 5.64063L273.23 5.51635L273.23 0.460377L305.126 -31.436L310.257 -31.436L310.307 -31.3864L310.307 -26.7549L277.911 5.64063L273.354 5.64063Z" fill="#F2F3FF"/>
<path d="M273.354 5.64063L270.526 8.46906L271.697 9.64062L273.354 9.64063L273.354 5.64063ZM273.23 5.51635L269.23 5.51635L269.23 7.17321L270.402 8.34479L273.23 5.51635ZM273.23 0.460377L270.402 -2.36805L269.23 -1.19648L269.23 0.460377L273.23 0.460377ZM305.126 -31.436L305.126 -35.436L303.47 -35.436L302.298 -34.2645L305.126 -31.436ZM310.257 -31.436L313.085 -34.2644L311.914 -35.436L310.257 -35.436L310.257 -31.436ZM310.307 -31.3864L314.307 -31.3864L314.307 -33.0432L313.135 -34.2148L310.307 -31.3864ZM310.307 -26.7549L313.135 -23.9265L314.307 -25.098L314.307 -26.7549L310.307 -26.7549ZM277.911 5.64063L277.911 9.64063L279.568 9.64063L280.74 8.46905L277.911 5.64063ZM276.183 2.81219L276.058 2.68792L270.402 8.34479L270.526 8.46906L276.183 2.81219ZM277.23 5.51635L277.23 0.460377L269.23 0.460377L269.23 5.51635L277.23 5.51635ZM276.058 3.2888L307.955 -28.6076L302.298 -34.2645L270.402 -2.36805L276.058 3.2888ZM305.126 -27.436L310.257 -27.436L310.257 -35.436L305.126 -35.436L305.126 -27.436ZM307.429 -28.6076L307.478 -28.558L313.135 -34.2148L313.085 -34.2644L307.429 -28.6076ZM306.307 -31.3864L306.307 -26.7549L314.307 -26.7549L314.307 -31.3864L306.307 -31.3864ZM307.478 -29.5833L275.083 2.8122L280.74 8.46905L313.135 -23.9265L307.478 -29.5833ZM277.911 1.64063L273.354 1.64063L273.354 9.64063L277.911 9.64063L277.911 1.64063Z" fill="#F2F3FF" mask="url(#path-240-inside-11)"/>
<mask id="path-242-inside-12" fill="white">
<path fill-rule="evenodd" clip-rule="evenodd" d="M273.23 -31.3111L273.355 -31.436L278.41 -31.436L310.307 0.460283L310.307 5.59164L310.258 5.64062L305.626 5.64062L273.23 -26.755L273.23 -31.3111Z"/>
</mask>
<path fill-rule="evenodd" clip-rule="evenodd" d="M273.23 -31.3111L273.355 -31.436L278.41 -31.436L310.307 0.460283L310.307 5.59164L310.258 5.64062L305.626 5.64062L273.23 -26.755L273.23 -31.3111Z" fill="#F2F3FF"/>
<path d="M273.23 -31.3111L270.402 -34.1396L269.23 -32.968L269.23 -31.3111L273.23 -31.3111ZM273.355 -31.436L273.355 -35.436L271.698 -35.436L270.526 -34.2645L273.355 -31.436ZM278.41 -31.436L281.239 -34.2645L280.067 -35.436L278.41 -35.436L278.41 -31.436ZM310.307 0.460283L314.307 0.460284L314.307 -1.19657L313.135 -2.36814L310.307 0.460283ZM310.307 5.59164L313.135 8.42008L314.307 7.24851L314.307 5.59164L310.307 5.59164ZM310.258 5.64062L310.258 9.64062L311.914 9.64063L313.086 8.46907L310.258 5.64062ZM305.626 5.64062L302.797 8.46905L303.969 9.64062L305.626 9.64062L305.626 5.64062ZM273.23 -26.755L269.23 -26.755L269.23 -25.0982L270.402 -23.9266L273.23 -26.755ZM276.058 -28.4827L276.183 -28.6076L270.526 -34.2645L270.402 -34.1396L276.058 -28.4827ZM273.355 -27.436L278.41 -27.436L278.41 -35.436L273.355 -35.436L273.355 -27.436ZM275.582 -28.6076L307.478 3.28871L313.135 -2.36814L281.239 -34.2645L275.582 -28.6076ZM306.307 0.460283L306.307 5.59164L314.307 5.59164L314.307 0.460284L306.307 0.460283ZM307.478 2.76319L307.429 2.81218L313.086 8.46907L313.135 8.42008L307.478 2.76319ZM310.258 1.64062L305.626 1.64062L305.626 9.64062L310.258 9.64062L310.258 1.64062ZM308.454 2.8122L276.058 -29.5834L270.402 -23.9266L302.797 8.46905L308.454 2.8122ZM277.23 -26.755L277.23 -31.3111L269.23 -31.3111L269.23 -26.755L277.23 -26.755Z" fill="#F2F3FF" mask="url(#path-242-inside-12)"/>
</g>
<rect x="1198.5" y="207.5" width="41.3333" height="41.3333" rx="20.6667" transform="rotate(90 1198.5 207.5)" stroke="#F2F3FF" stroke-width="3"/>
<rect x="1194.51" y="211.49" width="33.3533" height="33.3533" rx="16.6767" transform="rotate(90 1194.51 211.49)" stroke="#F2F3FF" stroke-width="3"/>
<rect x="1190.52" y="215.48" width="25.3733" height="25.3733" rx="12.6867" transform="rotate(90 1190.52 215.48)" stroke="#F2F3FF" stroke-width="3"/>
<rect x="1186.53" y="219.47" width="17.3933" height="17.3933" rx="8.69667" transform="rotate(90 1186.53 219.47)" stroke="#F2F3FF" stroke-width="3"/>
<rect x="1154.11" y="337.449" width="41.23" height="3.10333" transform="rotate(-180 1154.11 337.449)" stroke="#F2F3FF" stroke-width="3.10333"/>
<rect x="1154.11" y="324.592" width="41.23" height="3.10333" transform="rotate(-180 1154.11 324.592)" stroke="#F2F3FF" stroke-width="3.10333"/>
<rect x="1154.11" y="312.179" width="41.23" height="3.10333" transform="rotate(-180 1154.11 312.179)" stroke="#F2F3FF" stroke-width="3.10333"/>
<rect x="1154.11" y="299.322" width="41.23" height="3.10333" transform="rotate(-180 1154.11 299.322)" stroke="#F2F3FF" stroke-width="3.10333"/>
<path fill-rule="evenodd" clip-rule="evenodd" d="M1155.67 316.833C1155.67 329.075 1165.59 339 1177.83 339C1190.08 339 1200 329.075 1200 316.833C1200 315.162 1199.82 313.534 1199.46 311.968C1197.83 317.596 1192.63 321.71 1186.48 321.71C1179.01 321.71 1172.96 315.656 1172.96 308.188C1172.96 302.032 1177.07 296.838 1182.7 295.202C1181.13 294.851 1179.5 294.667 1177.83 294.667C1165.59 294.667 1155.67 304.591 1155.67 316.833Z" fill="#F2F3FF"/>
<circle cx="1186.48" cy="308.188" r="5.985" transform="rotate(90 1186.48 308.188)" fill="#F2F3FF"/>
<rect x="1196.73" y="253.607" width="4.53667" height="4.53667" transform="rotate(90 1196.73 253.607)" stroke="#F2F3FF" stroke-width="3"/>
<rect x="1198.23" y="264.521" width="4.87667" height="4.87667" transform="rotate(90 1198.23 264.521)" fill="#F2F3FF"/>
<rect x="1197.61" y="274.887" width="6.31" height="6.31" transform="rotate(90 1197.61 274.887)" stroke="#F2F3FF" stroke-width="3"/>
<rect x="1195.9" y="287.684" width="2.88167" height="2.88167" transform="rotate(90 1195.9 287.684)" stroke="#F2F3FF" stroke-width="2.88167"/>
<rect x="1185.37" y="254.324" width="3.10333" height="3.10333" transform="rotate(90 1185.37 254.324)" fill="#F2F3FF"/>
<rect x="1186.53" y="264.247" width="5.42333" height="5.42333" transform="rotate(90 1186.53 264.247)" stroke="#F2F3FF" stroke-width="3"/>
<rect x="1184.93" y="276.49" width="3.10333" height="3.10333" transform="rotate(90 1184.93 276.49)" fill="#F2F3FF"/>
<rect x="1184.59" y="287.906" width="2.43833" height="2.43833" transform="rotate(90 1184.59 287.906)" stroke="#F2F3FF" stroke-width="2.43833"/>
<rect x="1175.45" y="254.05" width="3.65" height="3.65" transform="rotate(90 1175.45 254.05)" stroke="#F2F3FF" stroke-width="3"/>
<rect x="1174.29" y="264.963" width="3.99" height="3.99" transform="rotate(90 1174.29 264.963)" fill="#F2F3FF"/>
<rect x="1175" y="275.33" width="5.42333" height="5.42333" transform="rotate(90 1175 275.33)" stroke="#F2F3FF" stroke-width="3"/>
<rect x="1173.4" y="288.017" width="2.21667" height="2.21667" transform="rotate(90 1173.4 288.017)" fill="#F2F3FF"/>
<rect width="4.87667" height="4.87667" transform="matrix(4.37114e-08 -1 -1 -4.37114e-08 1163.65 258.313)" fill="#F2F3FF"/>
<rect x="1163.92" y="264.247" width="5.42333" height="5.42333" transform="rotate(90 1163.92 264.247)" stroke="#F2F3FF" stroke-width="3"/>
<rect width="3.10333" height="3.10333" transform="matrix(4.37114e-08 -1 -1 -4.37114e-08 1162.76 279.594)" fill="#F2F3FF"/>
<rect x="1163.03" y="287.3" width="3.65" height="3.65" transform="rotate(90 1163.03 287.3)" stroke="#F2F3FF" stroke-width="3"/>
<mask id="path-270-inside-13" fill="white">
<path d="M1149.17 345.492C1145.02 341.335 1139.38 339 1133.5 339C1127.62 339 1121.98 341.335 1117.83 345.492C1113.67 349.649 1111.33 355.288 1111.33 361.167C1111.33 367.045 1113.67 372.684 1117.83 376.841L1133.5 361.167L1149.17 345.492Z"/>
</mask>
<path d="M1149.17 345.492C1145.02 341.335 1139.38 339 1133.5 339C1127.62 339 1121.98 341.335 1117.83 345.492C1113.67 349.649 1111.33 355.288 1111.33 361.167C1111.33 367.045 1113.67 372.684 1117.83 376.841L1133.5 361.167L1149.17 345.492Z" stroke="#F2F3FF" stroke-width="20" mask="url(#path-270-inside-13)"/>
<mask id="mask11" mask-type="alpha" maskUnits="userSpaceOnUse" x="1119" y="258" width="29" height="29">
<circle cx="1133.5" cy="272.5" r="14.1867" transform="rotate(90 1133.5 272.5)" fill="#F9FAFC"/>
</mask>
<g mask="url(#mask11)">
<rect x="1100.16" y="263.637" width="53.7687" height="1.08543" fill="#F2F3FF"/>
<rect x="1100.16" y="265.886" width="53.7687" height="1.08543" fill="#F2F3FF"/>
<rect x="1100.16" y="268.057" width="53.7687" height="1.08543" fill="#F2F3FF"/>
<rect x="1100.16" y="270.305" width="53.7687" height="1.08543" fill="#F2F3FF"/>
<rect x="1100.16" y="259.218" width="53.7687" height="1.08543" fill="#F2F3FF"/>
<rect x="1100.16" y="261.467" width="53.7687" height="1.08543" fill="#F2F3FF"/>
<rect x="1100.16" y="281.387" width="53.7687" height="1.08543" fill="#F2F3FF"/>
<rect x="1100.16" y="283.635" width="53.7687" height="1.08543" fill="#F2F3FF"/>
<rect x="1100.16" y="285.806" width="53.7687" height="1.08543" fill="#F2F3FF"/>
<rect x="1100.16" y="272.548" width="53.7687" height="1.08543" fill="#F2F3FF"/>
<rect x="1100.16" y="274.797" width="53.7687" height="1.08543" fill="#F2F3FF"/>
<rect x="1100.16" y="276.968" width="53.7687" height="1.08543" fill="#F2F3FF"/>
<rect x="1100.16" y="279.216" width="53.7687" height="1.08543" fill="#F2F3FF"/>
</g>
<path d="M1122.86 250.333L1111.33 261.86L1111.33 250.333L1122.86 250.333Z" fill="#F2F3FF"/>
<path d="M1146.36 292.45L1153.45 285.356L1153.45 292.45L1146.36 292.45Z" fill="#F2F3FF"/>
<path fill-rule="evenodd" clip-rule="evenodd" d="M1109.12 309.74L1109.12 296.883L1096.26 296.883L1096.26 303.429L1102.81 303.429L1102.81 309.74L1109.12 309.74Z" fill="#F2F3FF"/>
<path fill-rule="evenodd" clip-rule="evenodd" d="M1069.22 323.927L1069.22 336.783L1082.07 336.783L1082.07 330.238L1075.53 330.238L1075.53 323.927L1069.22 323.927Z" fill="#F2F3FF"/>
<path fill-rule="evenodd" clip-rule="evenodd" d="M1074.15 296.883L1109.12 331.846L1109.12 336.783L1104.27 336.783L1069.22 301.727L1069.22 296.883L1074.15 296.883Z" fill="#F2F3FF"/>
</g>
<defs>
<radialGradient id="paint0_radial" cx="0" cy="0" r="1" gradientUnits="userSpaceOnUse" gradientTransform="translate(600 168.5) scale(881 3137.09)">
<stop stop-color="#464BDE"/>
<stop offset="1" stop-color="#4247DC"/>
</radialGradient>
</defs>
</svg>
