<svg width="1440" height="732" viewBox="0 0 1440 732" fill="none" xmlns="http://www.w3.org/2000/svg">
<g opacity="0.5">
<mask id="mask0" mask-type="alpha" maskUnits="userSpaceOnUse" x="0" y="0" width="1440" height="732">
<path fill-rule="evenodd" clip-rule="evenodd" d="M1440 178.036V732H0V67.5889C177.381 23.4357 362.954 0 554 0C868.164 0 1167.53 63.3742 1440 178.036Z" fill="#3A4A6C"/>
</mask>
<g mask="url(#mask0)">
<circle cx="1028.5" cy="-759.5" r="1439.5" fill="#464BDE" stroke="url(#paint0_linear)" stroke-width="500"/>
<circle cx="1028.5" cy="-759.5" r="1439.5" fill="#3A4A6C" stroke="url(#paint1_linear)" stroke-width="500"/>
<circle cx="1028.5" cy="-759.5" r="1688" stroke="url(#paint2_linear)" stroke-opacity="0.35" stroke-width="3"/>
<circle cx="1287.5" cy="-829.5" r="1439.5" fill="#464BDE" stroke="url(#paint3_linear)" stroke-width="500"/>
<circle cx="1287.5" cy="-829.5" r="1439.5" fill="#3A4A6C" stroke="url(#paint4_linear)" stroke-width="500"/>
<circle cx="1287.5" cy="-829.5" r="1688" stroke="url(#paint5_linear)" stroke-opacity="0.2" stroke-width="3"/>
<circle cx="1459" cy="-420" r="889" fill="#3A4A6C" stroke="url(#paint6_linear)" stroke-width="500"/>
<circle cx="1459" cy="-420" r="1137.5" stroke="url(#paint7_linear)" stroke-opacity="0.2" stroke-width="3"/>
<circle cx="1927" cy="-443" r="639" fill="#3A4A6C" stroke="url(#paint8_linear)" stroke-width="1000"/>
<circle cx="1927" cy="-443" r="1137.5" stroke="url(#paint9_linear)" stroke-opacity="0.2" stroke-width="3"/>
</g>
</g>
<defs>
<linearGradient id="paint0_linear" x1="75.5001" y1="165" x2="1617.5" y2="962.5" gradientUnits="userSpaceOnUse">
<stop stop-color="#3A4A6C"/>
<stop offset="1" stop-color="#464BDE" stop-opacity="0"/>
</linearGradient>
<linearGradient id="paint1_linear" x1="71" y1="558.5" x2="1617.5" y2="962.5" gradientUnits="userSpaceOnUse">
<stop offset="0.077166" stop-color="#3A4A6C"/>
<stop offset="1" stop-color="#49597C" stop-opacity="0"/>
</linearGradient>
<linearGradient id="paint2_linear" x1="-798.5" y1="180.5" x2="1232" y2="912" gradientUnits="userSpaceOnUse">
<stop stop-color="white"/>
<stop offset="1" stop-color="white" stop-opacity="0"/>
</linearGradient>
<linearGradient id="paint3_linear" x1="334.5" y1="94.9999" x2="1876.5" y2="892.5" gradientUnits="userSpaceOnUse">
<stop stop-color="#3A4A6C"/>
<stop offset="1" stop-color="#464BDE" stop-opacity="0"/>
</linearGradient>
<linearGradient id="paint4_linear" x1="360" y1="226" x2="1876.5" y2="892.5" gradientUnits="userSpaceOnUse">
<stop stop-color="#3A4A6C"/>
<stop offset="1" stop-color="#49597C" stop-opacity="0"/>
</linearGradient>
<linearGradient id="paint5_linear" x1="-309" y1="-363" x2="1694" y2="843" gradientUnits="userSpaceOnUse">
<stop stop-color="white"/>
<stop offset="1" stop-color="white" stop-opacity="0"/>
</linearGradient>
<linearGradient id="paint6_linear" x1="816.522" y1="203.264" x2="1856.08" y2="740.91" gradientUnits="userSpaceOnUse">
<stop stop-color="#3A4A6C"/>
<stop offset="1" stop-color="#49597C" stop-opacity="0"/>
</linearGradient>
<linearGradient id="paint7_linear" x1="227" y1="-249.5" x2="1629.5" y2="719" gradientUnits="userSpaceOnUse">
<stop stop-color="white"/>
<stop offset="1" stop-color="white" stop-opacity="0"/>
</linearGradient>
<linearGradient id="paint8_linear" x1="1094.5" y1="181" x2="2324.08" y2="717.91" gradientUnits="userSpaceOnUse">
<stop stop-color="#3A4A6C"/>
<stop offset="1" stop-color="#49597C" stop-opacity="0"/>
</linearGradient>
<linearGradient id="paint9_linear" x1="596.5" y1="-392.5" x2="1848" y2="669" gradientUnits="userSpaceOnUse">
<stop stop-color="white"/>
<stop offset="1" stop-color="white" stop-opacity="0"/>
</linearGradient>
</defs>
</svg>
