<svg width="260" height="87" viewBox="0 0 260 87" fill="none" xmlns="http://www.w3.org/2000/svg">
<rect width="260" height="86.4381" rx="12" fill="white"/>
<path fill-rule="evenodd" clip-rule="evenodd" d="M40 24H58.2855L58.2841 42.2855H40V24Z" fill="#F65314"/>
<path fill-rule="evenodd" clip-rule="evenodd" d="M60.1526 24H78.4381C78.4381 30.0952 78.4392 36.1903 78.4371 42.2855C72.343 42.2845 66.2478 42.2855 60.1537 42.2855C60.1515 36.1903 60.1526 30.0952 60.1526 24Z" fill="#7FBB41"/>
<path fill-rule="evenodd" clip-rule="evenodd" d="M204.894 30.9674C206.58 29.8704 208.758 29.7679 210.657 30.2907C210.674 31.42 210.66 32.55 210.665 33.6797C209.762 33.2824 208.7 33.0232 207.75 33.413C206.997 33.712 206.548 34.4852 206.431 35.258C206.29 36.2387 206.382 37.2325 206.358 38.2189C208.286 38.2231 210.215 38.2199 212.143 38.221C212.158 36.969 212.128 35.7159 212.16 34.4639C213.471 34.0911 214.768 33.6722 216.073 33.2793C216.084 34.9285 216.057 36.5792 216.087 38.2299C217.391 38.2111 218.695 38.2256 220 38.221V41.4326C218.691 41.3784 217.381 41.4177 216.072 41.4135C216.077 43.2599 216.073 45.1061 216.074 46.9529C216.095 47.9754 216.019 49.0033 216.139 50.0226C216.211 50.6234 216.43 51.2892 216.993 51.5999C217.936 52.128 219.134 51.8975 220 51.3176V54.5604C218.87 55.0513 217.607 55.2009 216.385 55.114C215.225 55.0282 214.024 54.6069 213.267 53.684C212.392 52.6419 212.168 51.2307 212.15 49.9105C212.14 47.0774 212.151 44.2438 212.146 41.4092C210.216 41.4078 208.286 41.4071 206.358 41.4103C206.355 45.8569 206.357 50.3039 206.357 54.7509H202.402C202.402 50.3046 202.396 45.8605 202.404 41.4149C201.487 41.3972 200.569 41.4192 199.652 41.4004C199.655 40.3452 199.659 39.2886 199.65 38.232C200.562 38.2111 201.476 38.2199 202.391 38.2267C202.458 36.8229 202.244 35.379 202.664 34.0117C203.018 32.7774 203.807 31.6637 204.894 30.9674ZM120.223 31.198C121.02 31.077 121.883 31.3494 122.411 31.9733C123.031 32.6564 123.145 33.7435 122.686 34.5423C122.178 35.4424 121.043 35.861 120.053 35.645C119.027 35.4605 118.171 34.5057 118.217 33.4417C118.187 32.3216 119.124 31.3232 120.223 31.1976V31.198ZM89.9144 31.6878H95.6659C97.456 36.2337 99.2592 40.7743 101.052 45.3199C101.51 46.457 101.938 47.6065 102.418 48.7344C104.721 43.0546 107.057 37.3889 109.342 31.7009C111.186 31.6711 113.031 31.6942 114.876 31.6899C114.872 39.3766 114.874 47.0628 114.875 54.7494C113.544 54.7462 112.214 54.7608 110.884 54.7416C110.898 49.0696 110.883 43.3972 110.891 37.7237C110.893 37.4687 110.884 37.2137 110.866 36.9594C110.788 37.0779 110.72 37.2009 110.659 37.3286C108.373 43.1344 106.044 48.9242 103.772 54.736C102.825 54.7704 101.878 54.7384 100.93 54.7533C98.5722 48.9476 96.2437 43.128 93.8978 37.3173C93.8361 37.1963 93.7705 37.0789 93.6989 36.9662C93.6506 39.451 93.6914 41.9384 93.6783 44.424C93.679 47.8658 93.6762 51.3076 93.679 54.7494C92.4242 54.7526 91.1689 54.7494 89.9144 54.7509C89.9134 47.0628 89.9123 39.3751 89.9144 31.6878ZM131.106 38.2058C133.014 37.662 135.073 37.684 136.98 38.2231C137.374 38.3331 137.754 38.4856 138.109 38.6934C138.086 39.9529 138.109 41.2138 138.096 42.4747C136.821 41.5004 135.203 40.8832 133.583 41.0875C132.295 41.2039 131.068 41.8717 130.298 42.9116C129.308 44.2009 129.08 45.9129 129.25 47.4902C129.378 48.7245 129.888 49.9581 130.848 50.7763C131.845 51.6623 133.243 51.9762 134.548 51.8776C135.837 51.7293 137.054 51.1831 138.096 50.4209C138.107 51.6148 138.091 52.8086 138.105 54.0025C136.488 54.9647 134.55 55.2127 132.699 55.1222C130.806 55.0218 128.918 54.3047 127.548 52.9736C126.058 51.5382 125.25 49.491 125.154 47.4409C125.058 45.3089 125.492 43.0851 126.718 41.3049C127.746 39.7859 129.354 38.7108 131.106 38.2058ZM174.305 37.9543C176.134 37.6322 178.048 37.8685 179.778 38.5243C179.781 39.7369 179.778 40.9478 179.779 42.1594C178.57 41.328 177.093 40.8808 175.626 40.9325C174.887 40.9613 174.074 41.2744 173.737 41.9771C173.469 42.6722 173.655 43.5838 174.311 44.0002C175.431 44.7503 176.769 45.0688 177.931 45.7406C178.846 46.2549 179.733 46.9266 180.197 47.8956C181.068 49.7098 180.699 52.1074 179.167 53.4605C177.706 54.8264 175.601 55.2041 173.665 55.1318C172.29 55.0428 170.908 54.7714 169.644 54.2089C169.65 52.9342 169.636 51.6602 169.65 50.3862C170.714 51.1583 171.94 51.7105 173.238 51.9347C174.142 52.0815 175.126 52.0886 175.968 51.6843C176.774 51.2835 176.918 50.1379 176.44 49.437C175.992 48.8969 175.334 48.5996 174.713 48.3074C173.548 47.7835 172.324 47.3451 171.3 46.5602C170.581 45.9988 170.036 45.2082 169.823 44.3162C169.507 43.0017 169.605 41.5202 170.37 40.3714C171.243 39.0325 172.759 38.2299 174.305 37.9543ZM146.951 38.475C148.043 37.8192 149.43 37.7642 150.621 38.1653C150.616 39.4844 150.621 40.8027 150.618 42.1218C149.838 41.6171 148.865 41.4004 147.945 41.494C146.822 41.6213 145.933 42.4832 145.472 43.472C144.971 44.5183 144.877 45.7019 144.908 46.8465C144.908 49.481 144.91 52.1159 144.908 54.7509H141.01C141.006 49.2441 141.014 43.7366 141.006 38.2299C142.308 38.2132 143.609 38.2199 144.911 38.2263C144.905 39.1723 144.911 40.1175 144.908 41.0645C145.33 40.0355 145.96 39.0361 146.951 38.4746V38.475ZM118.576 38.2263C119.887 38.221 121.2 38.2082 122.511 38.2331C122.496 43.7391 122.51 49.2452 122.505 54.7509H118.578C118.575 49.243 118.58 43.7352 118.576 38.2267V38.2263ZM157.899 37.9213C159.797 37.6798 161.799 37.7876 163.561 38.5892C165.09 39.2787 166.328 40.5537 167.015 42.0806C167.747 43.7051 167.925 45.531 167.801 47.2937C167.679 49.0143 167.139 50.7387 166.062 52.106C164.961 53.5581 163.301 54.542 161.523 54.9076C160.002 55.224 158.412 55.2226 156.892 54.9034C155.074 54.5143 153.39 53.4591 152.324 51.9237C151.072 50.1446 150.716 47.8825 150.875 45.7505C150.982 43.9416 151.545 42.1186 152.701 40.6999C153.966 39.1105 155.907 38.1728 157.899 37.9213ZM159.079 41.0602C158.134 41.1127 157.178 41.4326 156.477 42.0867C155.511 42.9624 155.069 44.2669 154.95 45.5352C154.818 46.9302 154.913 48.4007 155.55 49.6722C156.046 50.6596 156.956 51.4353 158.029 51.7173C159.083 51.9907 160.231 51.9677 161.252 51.5754C162.125 51.2353 162.817 50.5167 163.195 49.6669C163.766 48.406 163.822 46.9883 163.752 45.6278C163.654 44.3839 163.301 43.0808 162.387 42.1824C161.532 41.3181 160.267 40.9822 159.079 41.0602ZM189.42 37.9156C191.393 37.6712 193.489 37.8035 195.29 38.7133C196.861 39.4986 198.078 40.9176 198.686 42.558C199.162 43.8132 199.329 45.1685 199.301 46.5049C199.305 48.5014 198.766 50.5507 197.513 52.1344C196.34 53.6677 194.545 54.664 192.651 54.9768C190.798 55.2765 188.841 55.1988 187.08 54.5058C185.297 53.8042 183.815 52.3717 183.063 50.6078C182.28 48.8103 182.198 46.7872 182.442 44.8666C182.697 42.9453 183.567 41.0677 185.05 39.7905C186.265 38.7243 187.828 38.1203 189.42 37.9156ZM190.487 41.0634C189.393 41.1248 188.308 41.5961 187.601 42.4481C186.826 43.361 186.493 44.5655 186.403 45.7395C186.31 46.9518 186.403 48.2074 186.871 49.3406C187.262 50.2918 188.002 51.1186 188.957 51.5229C189.843 51.9042 190.84 51.9719 191.786 51.8304C192.668 51.7006 193.523 51.2793 194.097 50.5873C194.667 49.8988 194.968 49.0309 195.119 48.1613C195.311 46.9937 195.313 45.7913 195.087 44.6294C194.886 43.6387 194.447 42.6549 193.655 41.998C192.797 41.2436 191.604 40.9857 190.487 41.0634Z" fill="#787878"/>
<path fill-rule="evenodd" clip-rule="evenodd" d="M40 44.1514C46.0952 44.1535 52.1903 44.1507 58.2855 44.1535C58.2866 50.2487 58.2855 56.3428 58.2855 62.438H40V44.1514Z" fill="#00A1F1"/>
<path fill-rule="evenodd" clip-rule="evenodd" d="M60.1537 44.1537C66.2478 44.1515 72.3429 44.1526 78.4381 44.1526V62.4381H60.1526C60.1537 56.343 60.1515 50.2478 60.1537 44.1537Z" fill="#FFBB00"/>
</svg>
