<svg width="260" height="92" viewBox="0 0 260 92" fill="none" xmlns="http://www.w3.org/2000/svg">
<path fill-rule="evenodd" clip-rule="evenodd" d="M40 26.781H58.2855L58.2841 45.0665H40V26.781Z" fill="#D1D2F7"/>
<path fill-rule="evenodd" clip-rule="evenodd" d="M60.1526 26.781H78.4381C78.4381 32.8762 78.4392 38.9714 78.4371 45.0665C72.343 45.0655 66.2478 45.0665 60.1537 45.0665C60.1515 38.9714 60.1526 32.8762 60.1526 26.781Z" fill="#D1D2F7"/>
<path fill-rule="evenodd" clip-rule="evenodd" d="M204.894 33.7485C206.579 32.6514 208.758 32.5489 210.657 33.0717C210.674 34.201 210.659 35.331 210.665 36.4607C209.762 36.0635 208.7 35.8042 207.75 36.194C206.997 36.493 206.548 37.2662 206.431 38.039C206.29 39.0197 206.382 40.0135 206.357 40.9999C208.286 41.0041 210.215 41.0009 212.143 41.002C212.158 39.75 212.128 38.4969 212.16 37.2449C213.471 36.8721 214.768 36.4532 216.073 36.0603C216.084 37.7095 216.057 39.3602 216.087 41.0109C217.391 40.9921 218.695 41.0066 220 41.002V44.2136C218.691 44.1594 217.381 44.1987 216.072 44.1945C216.077 46.0409 216.073 47.8871 216.074 49.7339C216.094 50.7564 216.019 51.7843 216.138 52.8036C216.211 53.4045 216.43 54.0702 216.993 54.3809C217.936 54.909 219.133 54.6785 220 54.0986V57.3414C218.87 57.8323 217.607 57.982 216.385 57.8951C215.224 57.8092 214.024 57.3879 213.267 56.465C212.392 55.4229 212.167 54.0117 212.15 52.6915C212.14 49.8584 212.151 47.0248 212.145 44.1902C210.216 44.1888 208.286 44.1881 206.357 44.1913C206.355 48.6379 206.356 53.0849 206.356 57.5319H202.402C202.402 53.0856 202.396 48.6415 202.404 44.1959C201.487 44.1782 200.569 44.2002 199.652 44.1814C199.655 43.1262 199.659 42.0696 199.649 41.013C200.562 40.9921 201.476 41.001 202.391 41.0077C202.458 39.6039 202.244 38.16 202.663 36.7927C203.018 35.5584 203.807 34.4447 204.894 33.7485ZM120.222 33.979C121.02 33.8581 121.883 34.1304 122.411 34.7543C123.031 35.4374 123.145 36.5245 122.686 37.3233C122.178 38.2235 121.043 38.642 120.053 38.426C119.026 38.2415 118.171 37.2867 118.217 36.2227C118.187 35.1026 119.124 34.1042 120.222 33.9786V33.979ZM89.9143 34.4688H95.6658C97.4559 39.0147 99.2591 43.5554 101.052 48.1009C101.51 49.238 101.938 50.3875 102.418 51.5154C104.721 45.8356 107.057 40.1699 109.342 34.4819C111.186 34.4521 113.031 34.4752 114.876 34.4709C114.872 42.1576 114.874 49.8438 114.875 57.5304C113.544 57.5273 112.214 57.5418 110.884 57.5226C110.898 51.8506 110.883 46.1782 110.891 40.5047C110.893 40.2497 110.884 39.9947 110.866 39.7404C110.788 39.8589 110.719 39.982 110.659 40.1096C108.373 45.9154 106.044 51.7052 103.772 57.517C102.825 57.5514 101.878 57.5195 100.93 57.5343C98.5721 51.7286 96.2436 45.909 93.8977 40.0983C93.836 39.9773 93.7704 39.8599 93.6987 39.7472C93.6505 42.232 93.6913 44.7194 93.6782 47.205C93.6789 50.6468 93.676 54.0886 93.6789 57.5304C92.424 57.5336 91.1688 57.5304 89.9143 57.5319C89.9133 49.8438 89.9122 42.1561 89.9143 34.4688ZM131.106 40.9868C133.014 40.443 135.073 40.465 136.98 41.0041C137.374 41.1141 137.754 41.2666 138.109 41.4744C138.086 42.7339 138.109 43.9948 138.096 45.2557C136.821 44.2814 135.203 43.6642 133.582 43.8685C132.295 43.9849 131.067 44.6527 130.298 45.6927C129.308 46.9819 129.079 48.694 129.25 50.2712C129.377 51.5055 129.888 52.7391 130.848 53.5573C131.845 54.4433 133.243 54.7572 134.548 54.6586C135.837 54.5103 137.054 53.9641 138.096 53.2019C138.107 54.3958 138.09 55.5896 138.105 56.7835C136.488 57.7457 134.55 57.9937 132.699 57.9032C130.806 57.8028 128.918 57.0857 127.548 55.7546C126.058 54.3192 125.25 52.272 125.154 50.2219C125.058 48.0899 125.492 45.8661 126.718 44.0859C127.746 42.5669 129.354 41.4918 131.106 40.9868ZM174.305 40.7353C176.133 40.4132 178.048 40.6495 179.778 41.3053C179.781 42.5179 179.778 43.7288 179.779 44.9404C178.57 44.109 177.093 43.6618 175.626 43.7135C174.887 43.7423 174.074 44.0554 173.737 44.7581C173.469 45.4532 173.655 46.3648 174.31 46.7812C175.431 47.5313 176.769 47.8498 177.931 48.5216C178.846 49.0359 179.733 49.7076 180.197 50.6766C181.068 52.4908 180.699 54.8884 179.167 56.2415C177.706 57.6074 175.601 57.9851 173.664 57.9128C172.289 57.8238 170.908 57.5524 169.644 56.9899C169.65 55.7152 169.636 54.4412 169.65 53.1672C170.714 53.9393 171.94 54.4915 173.238 54.7157C174.142 54.8625 175.125 54.8696 175.967 54.4653C176.774 54.0645 176.918 52.9189 176.44 52.2181C175.992 51.6779 175.334 51.3807 174.713 51.0884C173.548 50.5645 172.323 50.1261 171.3 49.3412C170.581 48.7798 170.036 47.9892 169.823 47.0972C169.507 45.7827 169.605 44.3012 170.37 43.1524C171.243 41.8135 172.759 41.0109 174.305 40.7353ZM146.951 41.256C148.042 40.6002 149.43 40.5452 150.621 40.9463C150.616 42.2654 150.621 43.5837 150.618 44.9028C149.838 44.3981 148.865 44.1814 147.945 44.275C146.822 44.4023 145.933 45.2642 145.472 46.253C144.971 47.2993 144.877 48.4829 144.908 49.6275C144.908 52.262 144.91 54.8969 144.908 57.5319H141.009C141.006 52.0251 141.014 46.5176 141.006 41.0109C142.308 40.9942 143.609 41.0009 144.911 41.0073C144.905 41.9533 144.911 42.8985 144.907 43.8455C145.33 42.8166 145.959 41.8171 146.951 41.2556V41.256ZM118.576 41.0073C119.887 41.002 121.2 40.9892 122.511 41.0141C122.496 46.5201 122.51 52.0262 122.504 57.5319H118.578C118.575 52.024 118.58 46.5162 118.576 41.0077V41.0073ZM157.899 40.7023C159.797 40.4608 161.799 40.5686 163.561 41.3702C165.089 42.0597 166.328 43.3347 167.015 44.8616C167.747 46.4861 167.925 48.312 167.801 50.0747C167.679 51.7953 167.139 53.5197 166.062 54.887C164.961 56.3391 163.301 57.323 161.522 57.6886C160.002 58.005 158.412 58.0036 156.892 57.6844C155.074 57.2953 153.39 56.2401 152.323 54.7047C151.072 52.9256 150.716 50.6635 150.875 48.5315C150.982 46.7226 151.545 44.8996 152.7 43.4809C153.966 41.8915 155.906 40.9538 157.899 40.7023ZM159.079 43.8412C158.133 43.8937 157.178 44.2136 156.477 44.8677C155.511 45.7434 155.069 47.0479 154.949 48.3162C154.818 49.7112 154.913 51.1817 155.55 52.4532C156.045 53.4406 156.956 54.2163 158.029 54.4983C159.083 54.7717 160.231 54.7487 161.252 54.3564C162.125 54.0163 162.817 53.2977 163.195 52.4479C163.766 51.187 163.822 49.7693 163.752 48.4088C163.654 47.1649 163.301 45.8618 162.386 44.9634C161.532 44.0991 160.267 43.7632 159.079 43.8412ZM189.42 40.6966C191.393 40.4523 193.489 40.5846 195.29 41.4943C196.861 42.2796 198.078 43.6986 198.686 45.339C199.162 46.5942 199.329 47.9495 199.301 49.2859C199.305 51.2824 198.766 53.3317 197.512 54.9154C196.34 56.4487 194.545 57.445 192.651 57.7578C190.798 58.0575 188.841 57.9798 187.08 57.2868C185.297 56.5852 183.814 55.1527 183.063 53.3888C182.28 51.5913 182.197 49.5682 182.441 47.6476C182.697 45.7263 183.567 43.8487 185.05 42.5715C186.265 41.5053 187.828 40.9013 189.42 40.6966ZM190.487 43.8444C189.393 43.9058 188.308 44.3771 187.601 45.2291C186.826 46.142 186.493 47.3465 186.402 48.5205C186.31 49.7328 186.402 50.9884 186.871 52.1216C187.262 53.0728 188.002 53.8996 188.957 54.3039C189.843 54.6852 190.84 54.7529 191.786 54.6114C192.668 54.4816 193.523 54.0603 194.097 53.3683C194.667 52.6798 194.968 51.8119 195.119 50.9423C195.311 49.7747 195.313 48.5723 195.086 47.4104C194.886 46.4197 194.447 45.4359 193.655 44.779C192.797 44.0246 191.604 43.7667 190.487 43.8444Z" fill="#D1D2F7"/>
<path fill-rule="evenodd" clip-rule="evenodd" d="M40 46.9326C46.0952 46.9347 52.1903 46.9319 58.2855 46.9347C58.2866 53.0299 58.2855 59.124 58.2855 65.2192H40V46.9326Z" fill="#D1D2F7"/>
<path fill-rule="evenodd" clip-rule="evenodd" d="M60.1537 46.9347C66.2478 46.9326 72.3429 46.9336 78.4381 46.9336V65.2191H60.1526C60.1537 59.124 60.1515 53.0288 60.1537 46.9347Z" fill="#D1D2F7"/>
</svg>
