<svg width="1440" height="5794" viewBox="0 0 1440 5794" fill="none" xmlns="http://www.w3.org/2000/svg">
<mask id="mask0" mask-type="alpha" maskUnits="userSpaceOnUse" x="0" y="0" width="1440" height="5794">
<rect width="1440" height="5794" fill="#C4C4C4"/>
</mask>
<g mask="url(#mask0)">
<circle opacity="0.03" cx="1393.54" cy="2466.34" r="349.16" transform="rotate(105 1393.54 2466.34)" stroke="url(#paint0_radial)" stroke-width="300"/>
<circle opacity="0.05" cx="1143.98" cy="4845.99" r="450" transform="rotate(105 1143.98 4845.99)" stroke="url(#paint1_radial)" stroke-width="891.369"/>
<circle opacity="0.03" cx="-101.141" cy="1307.86" r="660.901" transform="rotate(165 -101.141 1307.86)" stroke="url(#paint2_radial)" stroke-width="600"/>
<circle opacity="0.3" cx="-101.141" cy="1307.86" r="960.401" transform="rotate(165 -101.141 1307.86)" stroke="url(#paint3_radial)"/>
<mask id="mask1" mask-type="alpha" maskUnits="userSpaceOnUse" x="0" y="5590" width="1440" height="732">
<path fill-rule="evenodd" clip-rule="evenodd" d="M1440 5768.04V6322H0V5657.59C177.381 5613.44 362.954 5590 554 5590C868.164 5590 1167.53 5653.37 1440 5768.04Z" fill="#3A4A6C"/>
</mask>
<g mask="url(#mask1)">
<g opacity="0.05">
<rect x="-52" y="5706.33" width="55.6667" height="55.6667" rx="27.8333" transform="rotate(-90 -52 5706.33)" stroke="#F2F3FF" stroke-width="20"/>
<rect x="178.093" y="5627.57" width="49.48" height="49.48" rx="24.74" transform="rotate(-90 178.093 5627.57)" stroke="#F2F3FF" stroke-width="5"/>
<rect x="190.303" y="5615.36" width="25.0608" height="25.0608" rx="12.5304" transform="rotate(-90 190.303 5615.36)" fill="#F2F3FF"/>
<rect x="170" y="5787" width="65.6667" height="65.6667" rx="24" transform="rotate(-90 170 5787)" stroke="#F2F3FF" stroke-width="10"/>
<rect x="3.07324" y="5640.67" width="75.6667" height="10.5933" transform="rotate(-90 3.07324 5640.67)" fill="#F2F3FF"/>
<rect x="16.1665" y="5794.5" width="70.6667" height="5.59333" stroke="#F2F3FF" stroke-width="5"/>
<mask id="mask2" mask-type="alpha" maskUnits="userSpaceOnUse" x="-62" y="5716" width="76" height="77">
<rect x="-62" y="5792" width="75.6667" height="75.6667" transform="rotate(-90 -62 5792)" fill="#F9FAFC"/>
</mask>
<g mask="url(#mask2)">
<rect x="27.9688" y="5803.43" width="143.392" height="4.07009" transform="rotate(-135 27.9688 5803.43)" fill="#F2F3FF"/>
<rect x="33.9302" y="5797.46" width="143.392" height="4.07009" transform="rotate(-135 33.9302 5797.46)" fill="#F2F3FF"/>
<rect x="39.687" y="5791.71" width="143.392" height="4.07009" transform="rotate(-135 39.687 5791.71)" fill="#F2F3FF"/>
<rect x="45.6489" y="5785.75" width="143.392" height="4.07009" transform="rotate(-135 45.6489 5785.75)" fill="#F2F3FF"/>
<rect x="4.5332" y="5826.86" width="143.392" height="4.07009" transform="rotate(-135 4.5332 5826.86)" fill="#F2F3FF"/>
<rect x="10.4956" y="5820.9" width="143.392" height="4.07009" transform="rotate(-135 10.4956 5820.9)" fill="#F2F3FF"/>
<rect x="16.2515" y="5815.14" width="143.392" height="4.07009" transform="rotate(-135 16.2515 5815.14)" fill="#F2F3FF"/>
<rect x="22.2139" y="5809.18" width="143.392" height="4.07009" transform="rotate(-135 22.2139 5809.18)" fill="#F2F3FF"/>
</g>
<mask id="mask3" mask-type="alpha" maskUnits="userSpaceOnUse" x="89" y="5640" width="77" height="77">
<rect x="165" y="5716.33" width="75.6667" height="75.6667" transform="rotate(180 165 5716.33)" fill="#F9FAFC"/>
</mask>
<g mask="url(#mask3)">
<rect x="176.425" y="5626.36" width="143.392" height="4.07009" transform="rotate(135 176.425 5626.36)" fill="#F2F3FF"/>
<rect x="170.463" y="5620.4" width="143.392" height="4.07009" transform="rotate(135 170.463 5620.4)" fill="#F2F3FF"/>
<rect x="164.707" y="5614.65" width="143.392" height="4.07009" transform="rotate(135 164.707 5614.65)" fill="#F2F3FF"/>
<rect x="158.746" y="5608.69" width="143.392" height="4.07009" transform="rotate(135 158.746 5608.69)" fill="#F2F3FF"/>
<rect x="199.858" y="5649.8" width="143.392" height="4.07009" transform="rotate(135 199.858 5649.8)" fill="#F2F3FF"/>
<rect x="193.898" y="5643.84" width="143.392" height="4.07009" transform="rotate(135 193.898 5643.84)" fill="#F2F3FF"/>
<rect x="188.142" y="5638.08" width="143.392" height="4.07009" transform="rotate(135 188.142 5638.08)" fill="#F2F3FF"/>
<rect x="182.181" y="5632.12" width="143.392" height="4.07009" transform="rotate(135 182.181 5632.12)" fill="#F2F3FF"/>
</g>
<mask id="mask4" mask-type="alpha" maskUnits="userSpaceOnUse" x="240" y="5640" width="77" height="77">
<circle cx="278.5" cy="5678.5" r="37.9881" transform="rotate(-45 278.5 5678.5)" fill="#F9FAFC"/>
</mask>
<g mask="url(#mask4)">
<rect x="291.209" y="5792.05" width="143.978" height="2.90649" transform="rotate(-135 291.209 5792.05)" fill="#F2F3FF"/>
<rect x="295.466" y="5787.79" width="143.978" height="2.90649" transform="rotate(-135 295.466 5787.79)" fill="#F2F3FF"/>
<rect x="299.577" y="5783.68" width="143.978" height="2.90649" transform="rotate(-135 299.577 5783.68)" fill="#F2F3FF"/>
<rect x="303.834" y="5779.42" width="143.978" height="2.90649" transform="rotate(-135 303.834 5779.42)" fill="#F2F3FF"/>
<rect x="274.473" y="5808.78" width="143.978" height="2.90649" transform="rotate(-135 274.473 5808.78)" fill="#F2F3FF"/>
<rect x="278.731" y="5804.53" width="143.978" height="2.90649" transform="rotate(-135 278.731 5804.53)" fill="#F2F3FF"/>
<rect x="282.841" y="5800.42" width="143.978" height="2.90649" transform="rotate(-135 282.841 5800.42)" fill="#F2F3FF"/>
<rect x="287.099" y="5796.16" width="143.978" height="2.90649" transform="rotate(-135 287.099 5796.16)" fill="#F2F3FF"/>
<rect x="324.848" y="5758.41" width="143.978" height="2.90649" transform="rotate(-135 324.848 5758.41)" fill="#F2F3FF"/>
<rect x="329.104" y="5754.15" width="143.978" height="2.90649" transform="rotate(-135 329.104 5754.15)" fill="#F2F3FF"/>
<rect x="333.216" y="5750.04" width="143.978" height="2.90649" transform="rotate(-135 333.216 5750.04)" fill="#F2F3FF"/>
<rect x="337.473" y="5745.78" width="143.978" height="2.90649" transform="rotate(-135 337.473 5745.78)" fill="#F2F3FF"/>
<rect x="308.111" y="5775.14" width="143.978" height="2.90649" transform="rotate(-135 308.111 5775.14)" fill="#F2F3FF"/>
<rect x="312.37" y="5770.89" width="143.978" height="2.90649" transform="rotate(-135 312.37 5770.89)" fill="#F2F3FF"/>
<rect x="316.48" y="5766.78" width="143.978" height="2.90649" transform="rotate(-135 316.48 5766.78)" fill="#F2F3FF"/>
<rect x="320.737" y="5762.52" width="143.978" height="2.90649" transform="rotate(-135 320.737 5762.52)" fill="#F2F3FF"/>
<rect x="358.455" y="5724.8" width="143.978" height="2.90649" transform="rotate(-135 358.455 5724.8)" fill="#F2F3FF"/>
<rect x="362.712" y="5720.54" width="143.978" height="2.90649" transform="rotate(-135 362.712 5720.54)" fill="#F2F3FF"/>
<rect x="366.823" y="5716.43" width="143.978" height="2.90649" transform="rotate(-135 366.823 5716.43)" fill="#F2F3FF"/>
<rect x="371.08" y="5712.18" width="143.978" height="2.90649" transform="rotate(-135 371.08 5712.18)" fill="#F2F3FF"/>
<rect x="341.719" y="5741.54" width="143.978" height="2.90649" transform="rotate(-135 341.719 5741.54)" fill="#F2F3FF"/>
<rect x="345.977" y="5737.28" width="143.978" height="2.90649" transform="rotate(-135 345.977 5737.28)" fill="#F2F3FF"/>
<rect x="350.088" y="5733.17" width="143.978" height="2.90649" transform="rotate(-135 350.088 5733.17)" fill="#F2F3FF"/>
<rect x="354.345" y="5728.91" width="143.978" height="2.90649" transform="rotate(-135 354.345 5728.91)" fill="#F2F3FF"/>
<rect x="392.094" y="5691.16" width="143.978" height="2.90649" transform="rotate(-135 392.094 5691.16)" fill="#F2F3FF"/>
<rect x="396.351" y="5686.91" width="143.978" height="2.90649" transform="rotate(-135 396.351 5686.91)" fill="#F2F3FF"/>
<rect x="400.461" y="5682.8" width="143.978" height="2.90649" transform="rotate(-135 400.461 5682.8)" fill="#F2F3FF"/>
<rect x="404.719" y="5678.54" width="143.978" height="2.90649" transform="rotate(-135 404.719 5678.54)" fill="#F2F3FF"/>
<rect x="375.358" y="5707.9" width="143.978" height="2.90649" transform="rotate(-135 375.358 5707.9)" fill="#F2F3FF"/>
<rect x="379.616" y="5703.64" width="143.978" height="2.90649" transform="rotate(-135 379.616 5703.64)" fill="#F2F3FF"/>
<rect x="383.727" y="5699.53" width="143.978" height="2.90649" transform="rotate(-135 383.727 5699.53)" fill="#F2F3FF"/>
<rect x="387.984" y="5695.27" width="143.978" height="2.90649" transform="rotate(-135 387.984 5695.27)" fill="#F2F3FF"/>
</g>
<mask id="mask5" mask-type="alpha" maskUnits="userSpaceOnUse" x="316" y="5565" width="77" height="76">
<rect x="392" y="5640.67" width="75.6667" height="75.6667" transform="rotate(180 392 5640.67)" fill="#F9FAFC"/>
</mask>
<g mask="url(#mask5)">
<rect x="425.862" y="5600.61" width="143.392" height="4.45515" transform="rotate(180 425.862 5600.61)" fill="#F2F3FF"/>
<rect x="425.862" y="5591.38" width="143.392" height="4.45515" transform="rotate(180 425.862 5591.38)" fill="#F2F3FF"/>
<rect x="425.862" y="5636.88" width="143.392" height="4.45515" transform="rotate(180 425.862 5636.88)" fill="#F2F3FF"/>
<rect x="425.863" y="5627.66" width="143.392" height="4.45515" transform="rotate(180 425.863 5627.66)" fill="#F2F3FF"/>
<rect x="425.862" y="5618.75" width="143.392" height="4.45515" transform="rotate(180 425.862 5618.75)" fill="#F2F3FF"/>
<rect x="425.863" y="5609.52" width="143.392" height="4.45515" transform="rotate(180 425.863 5609.52)" fill="#F2F3FF"/>
</g>
<mask id="path-71-inside-1" fill="white">
<path fill-rule="evenodd" clip-rule="evenodd" d="M16.9268 5713.31L16.6934 5713.07V5703.58L76.5802 5643.69H86.2136L86.3067 5643.79V5652.48L25.4821 5713.31H16.9268Z"/>
</mask>
<path fill-rule="evenodd" clip-rule="evenodd" d="M16.9268 5713.31L16.6934 5713.07V5703.58L76.5802 5643.69H86.2136L86.3067 5643.79V5652.48L25.4821 5713.31H16.9268Z" fill="#F2F3FF"/>
<path d="M16.9268 5713.31L14.0984 5716.14L15.27 5717.31H16.9268V5713.31ZM16.6934 5713.07H12.6934V5714.73L13.865 5715.9L16.6934 5713.07ZM16.6934 5703.58L13.8649 5700.75L12.6934 5701.92V5703.58H16.6934ZM76.5802 5643.69V5639.69H74.9233L73.7517 5640.86L76.5802 5643.69ZM86.2136 5643.69L89.042 5640.86L87.8705 5639.69H86.2136V5643.69ZM86.3067 5643.79H90.3067V5642.13L89.1351 5640.96L86.3067 5643.79ZM86.3067 5652.48L89.1351 5655.31L90.3067 5654.14V5652.48H86.3067ZM25.4821 5713.31V5717.31H27.1389L28.3105 5716.14L25.4821 5713.31ZM19.7552 5710.48L19.5218 5710.24L13.865 5715.9L14.0984 5716.14L19.7552 5710.48ZM20.6934 5713.07V5703.58H12.6934V5713.07H20.6934ZM19.5218 5706.41L79.4086 5646.52L73.7517 5640.86L13.8649 5700.75L19.5218 5706.41ZM76.5802 5647.69H86.2136V5639.69H76.5802V5647.69ZM83.3852 5646.52L83.4783 5646.61L89.1351 5640.96L89.042 5640.86L83.3852 5646.52ZM82.3067 5643.79V5652.48H90.3067V5643.79H82.3067ZM83.4783 5649.65L22.6537 5710.48L28.3105 5716.14L89.1351 5655.31L83.4783 5649.65ZM25.4821 5709.31H16.9268V5717.31H25.4821V5709.31Z" fill="#F2F3FF" mask="url(#path-71-inside-1)"/>
<mask id="path-73-inside-2" fill="white">
<path fill-rule="evenodd" clip-rule="evenodd" d="M86.3067 5713.07L86.0722 5713.31L76.5804 5713.31L16.6934 5653.42L16.6934 5643.79L16.7854 5643.69L25.4823 5643.69L86.3067 5704.52L86.3067 5713.07Z"/>
</mask>
<path d="M86.3067 5713.07L88.428 5715.19L89.3067 5714.32L89.3067 5713.07L86.3067 5713.07ZM86.0722 5713.31L86.0722 5716.31L87.3148 5716.31L88.1935 5715.43L86.0722 5713.31ZM76.5804 5713.31L74.4591 5715.43L75.3377 5716.31L76.5804 5716.31L76.5804 5713.31ZM16.6934 5653.42L13.6934 5653.42L13.6934 5654.66L14.572 5655.54L16.6934 5653.42ZM16.6934 5643.79L14.5721 5641.66L13.6934 5642.54L13.6934 5643.79L16.6934 5643.79ZM16.7854 5643.69L16.7854 5640.69L15.5428 5640.69L14.6641 5641.57L16.7854 5643.69ZM25.4823 5643.69L27.6036 5641.57L26.7249 5640.69L25.4823 5640.69L25.4823 5643.69ZM86.3067 5704.52L89.3067 5704.52L89.3067 5703.28L88.428 5702.4L86.3067 5704.52ZM84.1854 5710.95L83.9509 5711.19L88.1935 5715.43L88.428 5715.19L84.1854 5710.95ZM86.0722 5710.31L76.5804 5710.31L76.5804 5716.31L86.0722 5716.31L86.0722 5710.31ZM78.7017 5711.19L18.8147 5651.3L14.572 5655.54L74.4591 5715.43L78.7017 5711.19ZM19.6934 5653.42L19.6934 5643.79L13.6934 5643.79L13.6934 5653.42L19.6934 5653.42ZM18.8146 5645.91L18.9067 5645.82L14.6641 5641.57L14.5721 5641.66L18.8146 5645.91ZM16.7854 5646.69L25.4823 5646.69L25.4823 5640.69L16.7854 5640.69L16.7854 5646.69ZM23.361 5645.82L84.1854 5706.64L88.428 5702.4L27.6036 5641.57L23.361 5645.82ZM83.3067 5704.52L83.3067 5713.07L89.3067 5713.07L89.3067 5704.52L83.3067 5704.52Z" fill="#F2F3FF" mask="url(#path-73-inside-2)"/>
<path fill-rule="evenodd" clip-rule="evenodd" d="M13.6667 5829.83C13.6667 5808.94 -3.2719 5792 -24.1667 5792C-45.0614 5792 -62 5808.94 -62 5829.83C-62 5832.69 -61.6843 5835.47 -61.086 5838.14C-58.2946 5828.53 -49.428 5821.51 -38.9217 5821.51C-26.1759 5821.51 -15.8433 5831.84 -15.8433 5844.59C-15.8433 5855.1 -22.864 5863.96 -32.4697 5866.75C-29.7978 5867.35 -27.0191 5867.67 -24.1667 5867.67C-3.2719 5867.67 13.6667 5850.73 13.6667 5829.83Z" fill="#F2F3FF"/>
<rect x="94.6167" y="5636.14" width="9.86333" height="9.86333" transform="rotate(-90 94.6167 5636.14)" stroke="#F2F3FF" stroke-width="3"/>
<rect x="93.1167" y="5616.45" width="8.32333" height="8.32333" transform="rotate(-90 93.1167 5616.45)" fill="#F2F3FF"/>
<rect x="93.1035" y="5599.82" width="12.89" height="12.89" transform="rotate(-90 93.1035 5599.82)" stroke="#F2F3FF" stroke-width="3"/>
<rect x="115.06" y="5633.86" width="5.29667" height="5.29667" transform="rotate(-90 115.06 5633.86)" fill="#F2F3FF"/>
<rect x="112.02" y="5617.98" width="11.3767" height="11.3767" transform="rotate(-90 112.02 5617.98)" stroke="#F2F3FF" stroke-width="3"/>
<rect x="115.817" y="5596.02" width="5.29667" height="5.29667" transform="rotate(-90 115.817 5596.02)" fill="#F2F3FF"/>
<rect x="130.937" y="5635.38" width="8.35" height="8.35" transform="rotate(-90 130.937 5635.38)" stroke="#F2F3FF" stroke-width="3"/>
<rect x="133.977" y="5615.7" width="6.81" height="6.81" transform="rotate(-90 133.977 5615.7)" fill="#F2F3FF"/>
<rect x="131.693" y="5599.06" width="11.3767" height="11.3767" transform="rotate(-90 131.693 5599.06)" stroke="#F2F3FF" stroke-width="3"/>
<rect width="8.32333" height="8.32333" transform="matrix(4.37114e-08 1 1 -4.37114e-08 152.137 5627.05)" fill="#F2F3FF"/>
<rect x="150.61" y="5617.98" width="11.3767" height="11.3767" transform="rotate(-90 150.61 5617.98)" stroke="#F2F3FF" stroke-width="3"/>
<rect width="5.29667" height="5.29667" transform="matrix(4.37114e-08 1 1 -4.37114e-08 153.65 5590.73)" fill="#F2F3FF"/>
<mask id="path-88-inside-3" fill="white">
<path d="M24.7473 5780.92C31.8424 5788.02 41.4655 5792 51.4995 5792C61.5335 5792 71.1566 5788.02 78.2517 5780.92C85.3468 5773.83 89.3328 5764.2 89.3328 5754.17C89.3328 5744.13 85.3468 5734.51 78.2517 5727.42L51.4995 5754.17L24.7473 5780.92Z"/>
</mask>
<path d="M24.7473 5780.92C31.8424 5788.02 41.4655 5792 51.4995 5792C61.5335 5792 71.1566 5788.02 78.2517 5780.92C85.3468 5773.83 89.3328 5764.2 89.3328 5754.17C89.3328 5744.13 85.3468 5734.51 78.2517 5727.42L51.4995 5754.17L24.7473 5780.92Z" stroke="#F2F3FF" stroke-width="20" mask="url(#path-88-inside-3)"/>
<circle cx="36.1995" cy="5738.87" r="11.1956" transform="rotate(135 36.1995 5738.87)" stroke="#F2F3FF" stroke-width="10"/>
<path fill-rule="evenodd" clip-rule="evenodd" d="M70.4165 5605.86L70.4165 5583.92L48.4732 5583.92L48.4732 5595.09L59.6443 5595.09L59.6443 5605.86L70.4165 5605.86Z" fill="#F2F3FF"/>
<path fill-rule="evenodd" clip-rule="evenodd" d="M54.5269 5621.75L54.5269 5599.81L32.5835 5599.81L32.5835 5610.98L43.7547 5610.98L43.7547 5621.75L54.5269 5621.75Z" fill="#F2F3FF"/>
<path fill-rule="evenodd" clip-rule="evenodd" d="M38.6367 5637.64L38.6367 5615.7L16.6934 5615.7L16.6934 5626.87L27.8646 5626.87L27.8646 5637.64L38.6367 5637.64Z" fill="#F2F3FF"/>
<path fill-rule="evenodd" clip-rule="evenodd" d="M171.81 5668.66L171.81 5710.28L213.427 5710.28L213.427 5689.09L192.24 5689.09L192.24 5668.66L171.81 5668.66Z" fill="#F2F3FF"/>
<path fill-rule="evenodd" clip-rule="evenodd" d="M213.427 5689.09L233.857 5689.09L233.857 5647.48L192.24 5647.48L192.24 5668.66L213.427 5668.66L213.427 5689.09Z" fill="#F2F3FF"/>
<path fill-rule="evenodd" clip-rule="evenodd" d="M128.9 5776.34C128.328 5776.39 127.75 5776.41 127.167 5776.41C114.884 5776.41 104.927 5766.45 104.927 5754.17C104.927 5741.88 114.884 5731.93 127.167 5731.93C139.45 5731.93 149.407 5741.88 149.407 5754.17C149.407 5754.75 149.384 5755.33 149.34 5755.9C151.079 5756.82 152.618 5758.06 153.875 5759.55C154.224 5757.81 154.407 5756.01 154.407 5754.17C154.407 5739.12 142.211 5726.93 127.167 5726.93C112.123 5726.93 99.9268 5739.12 99.9268 5754.17C99.9268 5769.21 112.123 5781.41 127.167 5781.41C129.01 5781.41 130.81 5781.22 132.55 5780.88C131.06 5779.62 129.816 5778.08 128.9 5776.34Z" fill="#F2F3FF"/>
<rect x="130.193" y="5781.41" width="24.2133" height="24.2133" rx="12.1067" transform="rotate(-90 130.193 5781.41)" fill="#F2F3FF"/>
<mask id="path-97-inside-4" fill="white">
<path fill-rule="evenodd" clip-rule="evenodd" d="M276.354 5637.64L276.229 5637.52V5632.46L308.126 5600.56H313.257L313.306 5600.61V5605.25L280.911 5637.64H276.354Z"/>
</mask>
<path fill-rule="evenodd" clip-rule="evenodd" d="M276.354 5637.64L276.229 5637.52V5632.46L308.126 5600.56H313.257L313.306 5600.61V5605.25L280.911 5637.64H276.354Z" fill="#F2F3FF"/>
<path d="M276.354 5637.64L273.525 5640.47L274.697 5641.64H276.354V5637.64ZM276.229 5637.52H272.229V5639.17L273.401 5640.34L276.229 5637.52ZM276.229 5632.46L273.401 5629.63L272.229 5630.8V5632.46H276.229ZM308.126 5600.56V5596.56H306.469L305.297 5597.74L308.126 5600.56ZM313.257 5600.56L316.085 5597.74L314.913 5596.56H313.257V5600.56ZM313.306 5600.61H317.306V5598.96L316.135 5597.79L313.306 5600.61ZM313.306 5605.25L316.135 5608.07L317.306 5606.9V5605.25H313.306ZM280.911 5637.64V5641.64H282.567L283.739 5640.47L280.911 5637.64ZM279.182 5634.81L279.058 5634.69L273.401 5640.34L273.525 5640.47L279.182 5634.81ZM280.229 5637.52V5632.46H272.229V5637.52H280.229ZM279.058 5635.29L310.954 5603.39L305.297 5597.74L273.401 5629.63L279.058 5635.29ZM308.126 5604.56H313.257V5596.56H308.126V5604.56ZM310.428 5603.39L310.478 5603.44L316.135 5597.79L316.085 5597.74L310.428 5603.39ZM309.306 5600.61V5605.25H317.306V5600.61H309.306ZM310.478 5602.42L278.082 5634.81L283.739 5640.47L316.135 5608.07L310.478 5602.42ZM280.911 5633.64H276.354V5641.64H280.911V5633.64Z" fill="#F2F3FF" mask="url(#path-97-inside-4)"/>
<mask id="path-99-inside-5" fill="white">
<path fill-rule="evenodd" clip-rule="evenodd" d="M276.229 5600.69L276.354 5600.56L281.41 5600.56L313.306 5632.46L313.306 5637.59L313.257 5637.64L308.625 5637.64L276.229 5605.24L276.229 5600.69Z"/>
</mask>
<path fill-rule="evenodd" clip-rule="evenodd" d="M276.229 5600.69L276.354 5600.56L281.41 5600.56L313.306 5632.46L313.306 5637.59L313.257 5637.64L308.625 5637.64L276.229 5605.24L276.229 5600.69Z" fill="#F2F3FF"/>
<path d="M276.229 5600.69L273.401 5597.86L272.229 5599.03L272.229 5600.69L276.229 5600.69ZM276.354 5600.56L276.354 5596.56L274.698 5596.56L273.526 5597.74L276.354 5600.56ZM281.41 5600.56L284.238 5597.74L283.067 5596.56L281.41 5596.56L281.41 5600.56ZM313.306 5632.46L317.306 5632.46L317.306 5630.8L316.135 5629.63L313.306 5632.46ZM313.306 5637.59L316.135 5640.42L317.306 5639.25L317.306 5637.59L313.306 5637.59ZM313.257 5637.64L313.257 5641.64L314.914 5641.64L316.086 5640.47L313.257 5637.64ZM308.625 5637.64L305.797 5640.47L306.968 5641.64L308.625 5641.64L308.625 5637.64ZM276.229 5605.24L272.229 5605.24L272.229 5606.9L273.401 5608.07L276.229 5605.24ZM279.058 5603.52L279.183 5603.39L273.526 5597.74L273.401 5597.86L279.058 5603.52ZM276.354 5604.56L281.41 5604.56L281.41 5596.56L276.354 5596.56L276.354 5604.56ZM278.581 5603.39L310.478 5635.29L316.135 5629.63L284.238 5597.74L278.581 5603.39ZM309.306 5632.46L309.306 5637.59L317.306 5637.59L317.306 5632.46L309.306 5632.46ZM310.478 5634.76L310.429 5634.81L316.086 5640.47L316.135 5640.42L310.478 5634.76ZM313.257 5633.64L308.625 5633.64L308.625 5641.64L313.257 5641.64L313.257 5633.64ZM311.454 5634.81L279.058 5602.42L273.401 5608.07L305.797 5640.47L311.454 5634.81ZM280.229 5605.24L280.229 5600.69L272.229 5600.69L272.229 5605.24L280.229 5605.24Z" fill="#F2F3FF" mask="url(#path-99-inside-5)"/>
<mask id="path-101-inside-6" fill="white">
<path fill-rule="evenodd" clip-rule="evenodd" d="M244.575 5605.86L244.45 5605.74V5600.68L276.345 5568.78H281.478L281.526 5568.83V5573.46L249.13 5605.86H244.575Z"/>
</mask>
<path fill-rule="evenodd" clip-rule="evenodd" d="M244.575 5605.86L244.45 5605.74V5600.68L276.345 5568.78H281.478L281.526 5568.83V5573.46L249.13 5605.86H244.575Z" fill="#F2F3FF"/>
<path d="M244.575 5605.86L241.746 5608.69L242.918 5609.86H244.575V5605.86ZM244.45 5605.74H240.45V5607.39L241.621 5608.56L244.45 5605.74ZM244.45 5600.68L241.621 5597.85L240.45 5599.02V5600.68H244.45ZM276.345 5568.78V5564.78H274.689L273.517 5565.96L276.345 5568.78ZM281.478 5568.78L284.306 5565.96L283.134 5564.78H281.478V5568.78ZM281.526 5568.83H285.526V5567.18L284.355 5566L281.526 5568.83ZM281.526 5573.46L284.355 5576.29L285.526 5575.12V5573.46H281.526ZM249.13 5605.86V5609.86H250.787L251.959 5608.69L249.13 5605.86ZM247.403 5603.03L247.278 5602.91L241.621 5608.56L241.746 5608.69L247.403 5603.03ZM248.45 5605.74V5600.68H240.45V5605.74H248.45ZM247.278 5603.51L279.174 5571.61L273.517 5565.96L241.621 5597.85L247.278 5603.51ZM276.345 5572.78H281.478V5564.78H276.345V5572.78ZM278.649 5571.61L278.698 5571.66L284.355 5566L284.306 5565.96L278.649 5571.61ZM277.526 5568.83V5573.46H285.526V5568.83H277.526ZM278.698 5570.64L246.302 5603.03L251.959 5608.69L284.355 5576.29L278.698 5570.64ZM249.13 5601.86H244.575V5609.86H249.13V5601.86Z" fill="#F2F3FF" mask="url(#path-101-inside-6)"/>
<mask id="path-103-inside-7" fill="white">
<path fill-rule="evenodd" clip-rule="evenodd" d="M244.45 5568.91L244.574 5568.78L249.631 5568.78L281.526 5600.68L281.526 5605.81L281.477 5605.86L276.846 5605.86L244.45 5573.46L244.45 5568.91Z"/>
</mask>
<path fill-rule="evenodd" clip-rule="evenodd" d="M244.45 5568.91L244.574 5568.78L249.631 5568.78L281.526 5600.68L281.526 5605.81L281.477 5605.86L276.846 5605.86L244.45 5573.46L244.45 5568.91Z" fill="#F2F3FF"/>
<path d="M244.45 5568.91L241.621 5566.08L240.45 5567.25L240.45 5568.91L244.45 5568.91ZM244.574 5568.78L244.574 5564.78L242.917 5564.78L241.745 5565.96L244.574 5568.78ZM249.631 5568.78L252.459 5565.96L251.288 5564.78L249.631 5564.78L249.631 5568.78ZM281.526 5600.68L285.526 5600.68L285.526 5599.02L284.355 5597.85L281.526 5600.68ZM281.526 5605.81L284.355 5608.64L285.526 5607.47L285.526 5605.81L281.526 5605.81ZM281.477 5605.86L281.477 5609.86L283.134 5609.86L284.305 5608.69L281.477 5605.86ZM276.846 5605.86L274.018 5608.69L275.189 5609.86L276.846 5609.86L276.846 5605.86ZM244.45 5573.46L240.45 5573.46L240.45 5575.12L241.621 5576.29L244.45 5573.46ZM247.278 5571.74L247.402 5571.61L241.745 5565.96L241.621 5566.08L247.278 5571.74ZM244.574 5572.78L249.631 5572.78L249.631 5564.78L244.574 5564.78L244.574 5572.78ZM246.802 5571.61L278.698 5603.51L284.355 5597.85L252.459 5565.96L246.802 5571.61ZM277.526 5600.68L277.526 5605.81L285.526 5605.81L285.526 5600.68L277.526 5600.68ZM278.698 5602.98L278.648 5603.03L284.305 5608.69L284.355 5608.64L278.698 5602.98ZM281.477 5601.86L276.846 5601.86L276.846 5609.86L281.477 5609.86L281.477 5601.86ZM279.675 5603.03L247.278 5570.64L241.621 5576.29L274.018 5608.69L279.675 5603.03ZM248.45 5573.46L248.45 5568.91L240.45 5568.91L240.45 5573.46L248.45 5573.46Z" fill="#F2F3FF" mask="url(#path-103-inside-7)"/>
</g>
</g>
<circle opacity="0.05" cx="88.3487" cy="3965.75" r="370.415" transform="rotate(-39.6939 88.3487 3965.75)" stroke="url(#paint4_radial)" stroke-width="300"/>
<circle opacity="0.5" cx="88.4049" cy="3965.35" r="519.415" transform="rotate(-39.6939 88.4049 3965.35)" stroke="url(#paint5_radial)" stroke-width="2"/>
<g opacity="0.2">
<circle r="422.055" transform="matrix(0.98415 -0.177339 -0.177339 -0.98415 1426.37 491.373)" stroke="url(#paint6_radial)" stroke-width="2"/>
<circle opacity="0.4" r="255.355" transform="matrix(1.4665e-08 -1 -1 -1.4665e-08 1426.37 491.39)" stroke="url(#paint7_radial)" stroke-width="2"/>
</g>
<g opacity="0.3">
<circle r="421.055" transform="matrix(0.98415 -0.177339 -0.177339 -0.98415 192.374 2973.37)" stroke="url(#paint8_radial)" stroke-width="4"/>
<circle opacity="0.4" r="254.355" transform="matrix(-0.965926 0.258819 0.258819 0.965926 192.373 2973.37)" stroke="url(#paint9_radial)" stroke-width="4"/>
</g>
<g opacity="0.3">
<circle opacity="0.1" r="462.379" transform="matrix(0.977495 -0.210959 -0.210959 -0.977495 1584.89 3549.89)" stroke="url(#paint10_radial)" stroke-width="4"/>
<circle opacity="0.5" r="279.396" transform="matrix(-0.242192 -0.970228 -0.970228 0.242192 1584.89 3549.89)" stroke="url(#paint11_radial)" stroke-width="4"/>
</g>
</g>
<defs>
<radialGradient id="paint0_radial" cx="0" cy="0" r="1" gradientUnits="userSpaceOnUse" gradientTransform="translate(859.799 2836.46) rotate(-24.8234) scale(985.409)">
<stop stop-color="#565BEA"/>
<stop offset="1" stop-color="#464BDE" stop-opacity="0"/>
</radialGradient>
<radialGradient id="paint1_radial" cx="0" cy="0" r="1" gradientUnits="userSpaceOnUse" gradientTransform="translate(1069.77 4809.43) rotate(75) scale(792.974)">
<stop stop-color="#565BEA"/>
<stop offset="1" stop-color="#464BDE" stop-opacity="0"/>
</radialGradient>
<radialGradient id="paint2_radial" cx="0" cy="0" r="1" gradientUnits="userSpaceOnUse" gradientTransform="translate(-1128.6 2020.35) rotate(-24.8234) scale(1896.95)">
<stop stop-color="#565BEA"/>
<stop offset="1" stop-color="#464BDE" stop-opacity="0"/>
</radialGradient>
<radialGradient id="paint3_radial" cx="0" cy="0" r="1" gradientUnits="userSpaceOnUse" gradientTransform="translate(-1128.6 2020.35) rotate(-24.8234) scale(1896.95)">
<stop stop-color="#565BEA"/>
<stop offset="1" stop-color="#464BDE" stop-opacity="0"/>
</radialGradient>
<radialGradient id="paint4_radial" cx="0" cy="0" r="1" gradientUnits="userSpaceOnUse" gradientTransform="translate(-468.115 4351.63) rotate(-24.8234) scale(1027.37)">
<stop stop-color="#565BEA"/>
<stop offset="1" stop-color="#464BDE" stop-opacity="0"/>
</radialGradient>
<radialGradient id="paint5_radial" cx="0" cy="0" r="1" gradientUnits="userSpaceOnUse" gradientTransform="translate(-468.059 4351.23) rotate(-24.8234) scale(1027.37)">
<stop stop-color="#565BEA"/>
<stop offset="1" stop-color="#464BDE" stop-opacity="0"/>
</radialGradient>
<radialGradient id="paint6_radial" cx="0" cy="0" r="1" gradientUnits="userSpaceOnUse" gradientTransform="translate(-29.3046 736.744) rotate(-24.8234) scale(835.168)">
<stop stop-color="#565BEA"/>
<stop offset="1" stop-color="#464BDE" stop-opacity="0"/>
</radialGradient>
<radialGradient id="paint7_radial" cx="0" cy="0" r="1" gradientUnits="userSpaceOnUse" gradientTransform="translate(-17.7575 446.439) rotate(-24.8234) scale(506.08)">
<stop stop-color="#565BEA"/>
<stop offset="1" stop-color="#464BDE" stop-opacity="0"/>
</radialGradient>
<radialGradient id="paint8_radial" cx="0" cy="0" r="1" gradientUnits="userSpaceOnUse" gradientTransform="translate(-29.3046 736.744) rotate(-24.8234) scale(835.168)">
<stop stop-color="#565BEA"/>
<stop offset="1" stop-color="#464BDE" stop-opacity="0"/>
</radialGradient>
<radialGradient id="paint9_radial" cx="0" cy="0" r="1" gradientUnits="userSpaceOnUse" gradientTransform="translate(-17.7575 446.439) rotate(-24.8234) scale(506.08)">
<stop stop-color="#565BEA"/>
<stop offset="1" stop-color="#464BDE" stop-opacity="0"/>
</radialGradient>
<radialGradient id="paint10_radial" cx="0" cy="0" r="1" gradientUnits="userSpaceOnUse" gradientTransform="translate(-32.1671 808.708) rotate(-24.8234) scale(916.747)">
<stop stop-color="#565BEA"/>
<stop offset="1" stop-color="#464BDE" stop-opacity="0"/>
</radialGradient>
<radialGradient id="paint11_radial" cx="0" cy="0" r="1" gradientUnits="userSpaceOnUse" gradientTransform="translate(-19.492 490.047) rotate(-24.8234) scale(555.514)">
<stop stop-color="#565BEA"/>
<stop offset="1" stop-color="#464BDE" stop-opacity="0"/>
</radialGradient>
</defs>
</svg>
