<svg width="48" height="48" viewBox="0 0 48 48" fill="none" xmlns="http://www.w3.org/2000/svg">
<path d="M15 30.5963V21.6663C15 21.3371 15.0812 21.013 15.2364 20.7227C15.3917 20.4325 15.6162 20.185 15.89 20.0023L22.89 15.3363C23.2187 15.117 23.6049 15 24 15C24.3951 15 24.7813 15.117 25.11 15.3363L32.11 20.0023C32.3838 20.185 32.6083 20.4325 32.7636 20.7227C32.9188 21.013 33 21.3371 33 21.6663V30.5963M15 30.5963C15 31.1267 15.2107 31.6354 15.5858 32.0105C15.9609 32.3856 16.4696 32.5963 17 32.5963H31C31.5304 32.5963 32.0391 32.3856 32.4142 32.0105C32.7893 31.6354 33 31.1267 33 30.5963M15 30.5963L21.75 26.0963M33 30.5963L26.25 26.0963M21.75 26.0963L15 21.5963M21.75 26.0963L22.89 26.8563C23.2187 27.0756 23.6049 27.1926 24 27.1926C24.3951 27.1926 24.7813 27.0756 25.11 26.8563L26.25 26.0963M26.25 26.0963L33 21.5963" stroke="white" stroke-width="2" stroke-linecap="round" stroke-linejoin="round"/>
<rect x="1" y="1" width="46" height="46" rx="5" stroke="white" stroke-width="2"/>
</svg>
