<svg width="24" height="24" viewBox="0 0 24 24" fill="none" xmlns="http://www.w3.org/2000/svg">
<g clip-path="url(#clip0)">
<g clip-path="url(#clip1)">
<path d="M13.8089 12.0026L1.75663 23.6081C1.19225 23.2223 0.857159 22.5808 0.863084 21.8972V2.10793C0.857159 1.42437 1.19225 0.782803 1.75663 0.397095L13.8089 12.0026Z" fill="#25D9F8"/>
<path d="M18.0261 7.94886L13.8089 12.0026L1.75665 0.397127C1.80206 0.361932 1.84936 0.32919 1.8983 0.299052C2.53527 -0.0870137 3.3309 -0.0994774 3.97967 0.266361L18.0261 7.94886Z" fill="#5BC980"/>
<path d="M23.1369 12.0026C23.1448 12.7743 22.7254 13.4871 22.0472 13.8551L18.0261 16.0564L13.8089 12.0026L18.0261 7.94885L22.0472 10.1501C22.7254 10.5182 23.1448 11.2309 23.1369 12.0026Z" fill="#FF9100"/>
<path d="M18.0261 16.0564L3.97967 23.7389C3.32947 24.0991 2.53686 24.0866 1.8983 23.7062C1.84936 23.6761 1.80206 23.6434 1.75665 23.6082L13.8089 12.0027L18.0261 16.0564Z" fill="#E63950"/>
</g>
</g>
<defs>
<clipPath id="clip0">
<rect width="24" height="24" fill="white" transform="translate(0 0.000488281)"/>
</clipPath>
<clipPath id="clip1">
<rect width="24" height="24" fill="white" transform="translate(0 0.000488281)"/>
</clipPath>
</defs>
</svg>
