<svg width="232" height="232" viewBox="0 0 232 232" fill="none" xmlns="http://www.w3.org/2000/svg">
<path d="M189.45 43.47H17.1901C12.7718 43.47 9.19006 47.0517 9.19006 51.47V170.52C9.19006 174.938 12.7718 178.52 17.1901 178.52H189.45C193.868 178.52 197.45 174.938 197.45 170.52V51.47C197.45 47.0517 193.868 43.47 189.45 43.47Z" fill="white"/>
<path d="M17.1901 43.47H189.45C191.572 43.47 193.607 44.3128 195.107 45.8131C196.607 47.3134 197.45 49.3482 197.45 51.47V76.16H9.19006V51.47C9.19006 49.3482 10.0329 47.3134 11.5332 45.8131C13.0335 44.3128 15.0683 43.47 17.1901 43.47Z" fill="#BFC0F3"/>
<path d="M26.45 65.0401C29.3385 65.0401 31.68 62.6985 31.68 59.8101C31.68 56.9216 29.3385 54.5801 26.45 54.5801C23.5616 54.5801 21.22 56.9216 21.22 59.8101C21.22 62.6985 23.5616 65.0401 26.45 65.0401Z" fill="white"/>
<path d="M41.9201 65.0401C44.8085 65.0401 47.1501 62.6985 47.1501 59.8101C47.1501 56.9216 44.8085 54.5801 41.9201 54.5801C39.0316 54.5801 36.6901 56.9216 36.6901 59.8101C36.6901 62.6985 39.0316 65.0401 41.9201 65.0401Z" fill="white"/>
<path d="M57.3801 65.0401C60.2685 65.0401 62.6101 62.6985 62.6101 59.8101C62.6101 56.9216 60.2685 54.5801 57.3801 54.5801C54.4916 54.5801 52.1501 56.9216 52.1501 59.8101C52.1501 62.6985 54.4916 65.0401 57.3801 65.0401Z" fill="white"/>
<path d="M73.2501 124.17H46.3501C45.866 124.195 45.3818 124.122 44.927 123.955C44.4722 123.787 44.0562 123.529 43.7045 123.195C43.3528 122.862 43.0727 122.46 42.8813 122.014C42.6899 121.569 42.5912 121.09 42.5912 120.605C42.5912 120.12 42.6899 119.64 42.8813 119.195C43.0727 118.75 43.3528 118.348 43.7045 118.014C44.0562 117.681 44.4722 117.422 44.927 117.255C45.3818 117.087 45.866 117.014 46.3501 117.04H47.6201L41.7401 94.3198L35.2901 93.6398C35.0249 93.6119 34.7816 93.4799 34.6137 93.2726C34.4459 93.0654 34.3672 92.8 34.3951 92.5348C34.4229 92.2696 34.555 92.0263 34.7622 91.8584C34.9695 91.6906 35.2349 91.6119 35.5001 91.6398L42.6401 92.3998C42.8415 92.4215 43.0316 92.5039 43.1852 92.636C43.3388 92.7682 43.4486 92.9438 43.5001 93.1398L49.8801 117.78C49.9175 117.927 49.9208 118.082 49.8896 118.231C49.8584 118.38 49.7936 118.52 49.7001 118.64C49.6069 118.761 49.4873 118.859 49.3504 118.926C49.2134 118.994 49.0628 119.029 48.9101 119.03H46.3501C46.1341 119.012 45.9168 119.04 45.7119 119.111C45.5071 119.182 45.3192 119.294 45.1599 119.441C45.0007 119.588 44.8736 119.767 44.7867 119.965C44.6998 120.164 44.6549 120.378 44.6549 120.595C44.6549 120.812 44.6998 121.026 44.7867 121.224C44.8736 121.423 45.0007 121.601 45.1599 121.748C45.3192 121.895 45.5071 122.008 45.7119 122.079C45.9168 122.149 46.1341 122.177 46.3501 122.16H73.2501C73.5153 122.16 73.7697 122.265 73.9572 122.453C74.1447 122.64 74.2501 122.895 74.2501 123.16C74.2501 123.425 74.1447 123.679 73.9572 123.867C73.7697 124.054 73.5153 124.16 73.2501 124.16V124.17Z" fill="#4448DB"/>
<path d="M35.3901 95.2898C36.8481 95.2898 38.0301 94.1078 38.0301 92.6498C38.0301 91.1917 36.8481 90.0098 35.3901 90.0098C33.932 90.0098 32.7501 91.1917 32.7501 92.6498C32.7501 94.1078 33.932 95.2898 35.3901 95.2898Z" fill="#BFC0F3"/>
<path d="M73.2501 129.85C72.491 129.85 71.749 129.625 71.1177 129.203C70.4865 128.782 69.9943 128.183 69.7034 127.482C69.4124 126.781 69.3358 126.009 69.4832 125.264C69.6305 124.52 69.9952 123.836 70.5313 123.298C71.0673 122.761 71.7506 122.394 72.4948 122.245C73.2391 122.096 74.0108 122.17 74.7127 122.459C75.4145 122.748 76.0149 123.239 76.4381 123.869C76.8612 124.499 77.0881 125.241 77.0901 126C77.0901 127.019 76.6858 127.997 75.966 128.719C75.2461 129.44 74.2694 129.847 73.2501 129.85ZM73.2501 124.17C72.8857 124.17 72.5296 124.278 72.2268 124.481C71.924 124.683 71.6882 124.971 71.5492 125.308C71.4102 125.645 71.3744 126.015 71.4462 126.373C71.518 126.73 71.6943 127.058 71.9526 127.315C72.2109 127.571 72.5397 127.746 72.8973 127.816C73.2549 127.886 73.6251 127.848 73.9612 127.707C74.2972 127.566 74.5839 127.329 74.7849 127.025C74.9858 126.721 75.0921 126.364 75.0901 126C75.0874 125.514 74.8924 125.048 74.5476 124.705C74.2029 124.362 73.7364 124.17 73.2501 124.17Z" fill="#4448DB"/>
<path d="M57.8101 129.85C57.0515 129.848 56.3104 129.621 55.6805 129.199C55.0505 128.776 54.5599 128.176 54.2705 127.475C53.9811 126.774 53.9059 126.002 54.0544 125.258C54.2029 124.514 54.5684 123.831 55.1048 123.295C55.6412 122.758 56.3246 122.393 57.0685 122.244C57.8125 122.096 58.5837 122.171 59.285 122.46C59.9862 122.75 60.5861 123.24 61.0088 123.87C61.4315 124.5 61.6581 125.241 61.6601 126C61.6601 127.021 61.2545 128 60.5325 128.722C59.8104 129.444 58.8312 129.85 57.8101 129.85ZM57.8101 124.17C57.4462 124.172 57.091 124.282 56.7896 124.486C56.4881 124.689 56.2538 124.978 56.1164 125.315C55.9789 125.652 55.9445 126.022 56.0175 126.379C56.0904 126.735 56.2674 127.062 56.5261 127.318C56.7849 127.574 57.1137 127.747 57.471 127.816C57.8283 127.886 58.198 127.847 58.5335 127.706C58.8689 127.565 59.155 127.327 59.3555 127.024C59.5561 126.72 59.6621 126.364 59.6601 126C59.6588 125.758 59.6099 125.519 59.5162 125.297C59.4225 125.074 59.2859 124.872 59.1141 124.702C58.9423 124.532 58.7387 124.397 58.515 124.306C58.2913 124.215 58.0517 124.169 57.8101 124.17Z" fill="#4448DB"/>
<path d="M44.41 100.65L48.91 118.04H76.19L80.69 100.65H44.41Z" fill="#4448DB"/>
<path d="M76.1901 119H48.9101C48.683 119.007 48.4602 118.937 48.2785 118.8C48.0967 118.664 47.9668 118.47 47.9101 118.25L43.4401 100.9C43.4012 100.75 43.3978 100.592 43.4303 100.44C43.4628 100.288 43.5303 100.146 43.6273 100.025C43.7244 99.9034 43.8484 99.8064 43.9894 99.7413C44.1305 99.6763 44.2848 99.645 44.4401 99.6499H80.6901C80.8454 99.645 80.9997 99.6763 81.1407 99.7413C81.2818 99.8064 81.4058 99.9034 81.5028 100.025C81.5999 100.146 81.6673 100.288 81.6998 100.44C81.7323 100.592 81.729 100.75 81.6901 100.9L77.1801 118.29C77.1163 118.501 76.9847 118.685 76.8057 118.813C76.6267 118.941 76.4103 119.007 76.1901 119ZM49.6901 117H75.4101L79.4101 101.61H45.7001L49.6901 117Z" fill="#4448DB"/>
<path d="M101.35 143.03H27.66V149.67H101.35V143.03Z" fill="#BFC0F3"/>
<path d="M101.35 156.9H27.66V163.54H101.35V156.9Z" fill="#BFC0F3"/>
<path d="M157.77 125.79H133.52C133.255 125.79 133 125.685 132.813 125.497C132.625 125.31 132.52 125.055 132.52 124.79V91.0901C132.519 90.9211 132.56 90.7545 132.641 90.6059C132.721 90.4572 132.838 90.3314 132.98 90.2401L145.11 82.5001C145.271 82.3967 145.459 82.3418 145.65 82.3418C145.841 82.3418 146.029 82.3967 146.19 82.5001L158.31 90.2401C158.452 90.3314 158.569 90.4572 158.65 90.6059C158.73 90.7545 158.771 90.9211 158.77 91.0901V124.79C158.77 124.921 158.744 125.051 158.694 125.173C158.644 125.294 158.57 125.404 158.477 125.497C158.384 125.59 158.274 125.664 158.153 125.714C158.031 125.764 157.901 125.79 157.77 125.79ZM134.52 123.79H156.77V91.6401L145.65 84.5301L134.52 91.6401V123.79Z" fill="#4448DB"/>
<path d="M152.26 111.33C151.771 111.871 151.176 112.305 150.512 112.606C149.848 112.907 149.129 113.068 148.4 113.08C147.22 113.02 146.086 112.606 145.144 111.893C144.203 111.179 143.498 110.199 143.12 109.08H149.58C149.845 109.08 150.1 108.975 150.287 108.787C150.475 108.6 150.58 108.345 150.58 108.08C150.58 107.815 150.475 107.56 150.287 107.373C150.1 107.185 149.845 107.08 149.58 107.08H142.58C142.487 106.366 142.487 105.644 142.58 104.93H149.58C149.845 104.93 150.1 104.825 150.287 104.637C150.475 104.45 150.58 104.195 150.58 103.93C150.58 103.665 150.475 103.41 150.287 103.223C150.1 103.035 149.845 102.93 149.58 102.93H143.17C143.553 101.83 144.255 100.869 145.187 100.169C146.118 99.469 147.237 99.0621 148.4 99C149.129 99.0116 149.848 99.173 150.512 99.474C151.176 99.7751 151.771 100.209 152.26 100.75C152.446 100.945 152.701 101.058 152.97 101.065C153.239 101.071 153.5 100.971 153.695 100.785C153.89 100.599 154.003 100.344 154.01 100.075C154.016 99.8056 153.916 99.5449 153.73 99.35C153.049 98.6148 152.225 98.027 151.309 97.6228C150.392 97.2186 149.402 97.0067 148.4 97C146.702 97.0698 145.071 97.6782 143.742 98.7372C142.414 99.7962 141.457 101.251 141.01 102.89H138.3C138.035 102.89 137.78 102.995 137.593 103.183C137.405 103.37 137.3 103.625 137.3 103.89C137.3 104.155 137.405 104.41 137.593 104.597C137.78 104.785 138.035 104.89 138.3 104.89H140.58C140.536 105.268 140.513 105.649 140.51 106.03C140.51 106.364 140.53 106.698 140.57 107.03H138.3C138.035 107.03 137.78 107.135 137.593 107.323C137.405 107.51 137.3 107.765 137.3 108.03C137.3 108.295 137.405 108.55 137.593 108.737C137.78 108.925 138.035 109.03 138.3 109.03H141C142.09 112.53 145 115.03 148.43 115.03C149.434 115.018 150.424 114.8 151.341 114.391C152.258 113.982 153.081 113.389 153.76 112.65C153.855 112.557 153.931 112.446 153.983 112.323C154.034 112.2 154.061 112.068 154.061 111.935C154.061 111.802 154.034 111.67 153.983 111.547C153.931 111.424 153.855 111.313 153.76 111.22C153.659 111.12 153.537 111.043 153.403 110.994C153.27 110.945 153.127 110.925 152.985 110.935C152.843 110.945 152.705 110.986 152.58 111.054C152.455 111.122 152.346 111.216 152.26 111.33Z" fill="#4448DB"/>
<path d="M145.65 84.3401C145.385 84.3401 145.13 84.2348 144.943 84.0472C144.755 83.8597 144.65 83.6053 144.65 83.3401V37.0001C144.683 36.1803 144.551 35.3622 144.26 34.5949C143.969 33.8277 143.526 33.1271 142.958 32.5352C142.389 31.9434 141.707 31.4725 140.952 31.1509C140.198 30.8292 139.386 30.6634 138.565 30.6634C137.745 30.6634 136.932 30.8292 136.178 31.1509C135.423 31.4725 134.741 31.9434 134.172 32.5352C133.604 33.1271 133.161 33.8277 132.87 34.5949C132.58 35.3622 132.447 36.1803 132.48 37.0001V43.4601C132.48 43.7253 132.375 43.9797 132.187 44.1672C132 44.3548 131.745 44.4601 131.48 44.4601C131.215 44.4601 130.96 44.3548 130.773 44.1672C130.585 43.9797 130.48 43.7253 130.48 43.4601V37.0001C130.442 35.9145 130.623 34.8322 131.012 33.818C131.401 32.8037 131.99 31.8782 132.745 31.0967C133.499 30.3151 134.404 29.6936 135.404 29.269C136.404 28.8445 137.479 28.6257 138.565 28.6257C139.651 28.6257 140.727 28.8445 141.727 29.269C142.726 29.6936 143.631 30.3151 144.385 31.0967C145.14 31.8782 145.729 32.8037 146.118 33.818C146.507 34.8322 146.688 35.9145 146.65 37.0001V83.3401C146.65 83.4714 146.624 83.6015 146.574 83.7228C146.524 83.8441 146.45 83.9544 146.357 84.0472C146.264 84.1401 146.154 84.2137 146.033 84.264C145.911 84.3143 145.781 84.3401 145.65 84.3401Z" fill="#4448DB"/>
<path d="M99.0001 221.25L90.9001 208.43L103.73 200.35L111.8 213.18L99.0001 221.25ZM96.4501 209.68L100.26 215.74L106.26 211.92L102.45 205.92L96.4501 209.68Z" fill="#BFC0F3"/>
<path d="M199.86 36.9999L185.54 31.9999L190.54 17.6799L204.86 22.6799L199.86 36.9999ZM190.63 29.5699L197.39 31.9099L199.73 25.1499L193 22.8199L190.63 29.5699Z" fill="#BFC0F3"/>
<path d="M13.2001 29.9999L8.20007 15.6799L22.5201 10.6799L27.5201 24.9999L13.2001 29.9999ZM13.3301 18.1499L15.6701 24.9099L22.4301 22.5699L20.0901 15.8099L13.3301 18.1499Z" fill="#BFC0F3"/>
<path d="M189.45 180.52H17.1901C14.5379 180.52 11.9944 179.466 10.119 177.591C8.24363 175.716 7.19006 173.172 7.19006 170.52V51.52C7.19006 48.8679 8.24363 46.3243 10.119 44.449C11.9944 42.5736 14.5379 41.52 17.1901 41.52H189.45C192.102 41.52 194.646 42.5736 196.521 44.449C198.396 46.3243 199.45 48.8679 199.45 51.52V170.52C199.45 173.172 198.396 175.716 196.521 177.591C194.646 179.466 192.102 180.52 189.45 180.52ZM17.1901 45.47C15.5988 45.47 14.0726 46.1022 12.9474 47.2274C11.8222 48.3526 11.1901 49.8787 11.1901 51.47V170.52C11.1901 172.111 11.8222 173.637 12.9474 174.763C14.0726 175.888 15.5988 176.52 17.1901 176.52H189.45C191.041 176.52 192.567 175.888 193.693 174.763C194.818 173.637 195.45 172.111 195.45 170.52V51.52C195.45 49.9287 194.818 48.4026 193.693 47.2774C192.567 46.1522 191.041 45.52 189.45 45.52L17.1901 45.47Z" fill="#4448DB"/>
<path d="M182.25 215.71C205.374 215.71 224.12 196.964 224.12 173.84C224.12 150.716 205.374 131.97 182.25 131.97C159.126 131.97 140.38 150.716 140.38 173.84C140.38 196.964 159.126 215.71 182.25 215.71Z" fill="#BFC0F3"/>
<path d="M182.21 201.31C175.212 201.304 168.481 198.626 163.392 193.823C158.303 189.021 155.24 182.456 154.83 175.47C154.822 175.339 154.84 175.207 154.883 175.083C154.926 174.958 154.993 174.843 155.08 174.745C155.167 174.646 155.273 174.566 155.392 174.509C155.51 174.451 155.639 174.418 155.77 174.41C155.901 174.402 156.033 174.42 156.158 174.463C156.282 174.506 156.397 174.573 156.495 174.66C156.594 174.747 156.674 174.853 156.731 174.972C156.789 175.09 156.822 175.219 156.83 175.35C157.158 180.817 159.239 186.032 162.764 190.223C166.29 194.414 171.071 197.358 176.401 198.618C181.73 199.878 187.324 199.388 192.353 197.22C197.381 195.051 201.578 191.321 204.32 186.58C204.453 186.349 204.671 186.181 204.928 186.111C205.185 186.042 205.459 186.078 205.69 186.21C205.921 186.343 206.089 186.562 206.159 186.818C206.228 187.075 206.193 187.349 206.06 187.58C205.128 189.189 204.036 190.7 202.8 192.09C200.409 194.794 197.506 196.996 194.259 198.57C191.011 200.144 187.483 201.059 183.88 201.26C183.32 201.3 182.76 201.31 182.21 201.31Z" fill="white"/>
<path d="M151 183.63C150.818 183.63 150.64 183.581 150.484 183.488C150.328 183.394 150.201 183.26 150.116 183.1C150.03 182.939 149.99 182.759 150 182.577C150.009 182.396 150.068 182.22 150.17 182.07L155.02 174.85C155.093 174.741 155.188 174.647 155.297 174.575C155.407 174.502 155.53 174.452 155.659 174.427C155.788 174.401 155.921 174.402 156.05 174.428C156.179 174.455 156.301 174.506 156.41 174.58L163.63 179.43C163.85 179.578 164.002 179.808 164.053 180.069C164.104 180.33 164.049 180.6 163.9 180.82C163.752 181.04 163.522 181.192 163.261 181.243C163 181.293 162.73 181.238 162.51 181.09L156.12 176.8L151.83 183.19C151.738 183.326 151.615 183.437 151.47 183.513C151.325 183.59 151.164 183.63 151 183.63Z" fill="white"/>
<path d="M208.67 173.28C208.415 173.28 208.169 173.183 207.983 173.009C207.797 172.834 207.685 172.595 207.67 172.34C207.373 167.311 205.591 162.483 202.55 158.467C199.508 154.45 195.344 151.426 190.584 149.777C185.824 148.127 180.681 147.926 175.807 149.2C170.933 150.473 166.545 153.163 163.2 156.93C162.063 158.219 161.057 159.62 160.2 161.11C160.138 161.23 160.051 161.335 159.947 161.421C159.843 161.506 159.722 161.569 159.593 161.607C159.463 161.644 159.327 161.655 159.193 161.639C159.059 161.623 158.93 161.58 158.814 161.512C158.697 161.445 158.595 161.354 158.514 161.246C158.433 161.139 158.375 161.015 158.343 160.884C158.311 160.753 158.305 160.617 158.327 160.484C158.349 160.351 158.398 160.224 158.47 160.11C161.422 154.99 165.947 150.958 171.373 148.614C176.799 146.27 182.836 145.739 188.588 147.099C194.34 148.459 199.5 151.638 203.301 156.163C207.103 160.689 209.343 166.32 209.69 172.22C209.698 172.351 209.68 172.483 209.637 172.608C209.595 172.732 209.527 172.847 209.44 172.945C209.353 173.044 209.247 173.124 209.128 173.181C209.01 173.239 208.881 173.272 208.75 173.28H208.67Z" fill="white"/>
<path d="M208.67 173.28C208.471 173.28 208.276 173.221 208.11 173.11L200.9 168.26C200.777 168.194 200.67 168.103 200.584 167.994C200.499 167.884 200.437 167.758 200.403 167.623C200.369 167.488 200.364 167.347 200.387 167.21C200.411 167.073 200.462 166.942 200.539 166.826C200.616 166.71 200.716 166.612 200.833 166.537C200.951 166.462 201.082 166.412 201.22 166.39C201.357 166.369 201.498 166.377 201.632 166.413C201.766 166.449 201.892 166.513 202 166.6L208.39 170.89L212.68 164.5C212.829 164.28 213.059 164.128 213.319 164.077C213.58 164.026 213.85 164.081 214.07 164.23C214.29 164.378 214.442 164.608 214.493 164.869C214.544 165.13 214.489 165.4 214.34 165.62L209.49 172.84C209.416 172.948 209.322 173.041 209.212 173.114C209.102 173.186 208.979 173.235 208.85 173.26L208.67 173.28Z" fill="white"/>
<path d="M196.85 183.44C196.529 183.441 196.213 183.362 195.93 183.21L181.33 175.62C181.004 175.451 180.731 175.196 180.54 174.882C180.35 174.568 180.249 174.207 180.25 173.84V142.47C180.25 141.94 180.461 141.431 180.836 141.056C181.211 140.681 181.72 140.47 182.25 140.47C182.78 140.47 183.289 140.681 183.664 141.056C184.039 141.431 184.25 141.94 184.25 142.47V172.63L197.78 179.63C198.176 179.838 198.49 180.173 198.673 180.58C198.856 180.988 198.898 181.445 198.791 181.879C198.684 182.313 198.434 182.699 198.083 182.974C197.731 183.25 197.297 183.4 196.85 183.4V183.44Z" fill="#4448DB"/>
<path d="M142.09 163C141.997 163.015 141.903 163.015 141.81 163C141.684 162.963 141.566 162.902 141.464 162.82C141.362 162.738 141.276 162.636 141.213 162.521C141.086 162.288 141.056 162.015 141.13 161.76C142.931 155.711 146.041 150.132 150.24 145.42C150.325 145.314 150.431 145.227 150.551 145.163C150.67 145.099 150.802 145.061 150.937 145.049C151.072 145.038 151.209 145.055 151.337 145.098C151.466 145.141 151.585 145.209 151.686 145.3C151.787 145.39 151.869 145.5 151.926 145.623C151.984 145.746 152.015 145.88 152.02 146.015C152.024 146.151 152 146.286 151.95 146.413C151.901 146.539 151.826 146.654 151.73 146.75C147.729 151.244 144.765 156.563 143.05 162.33C142.981 162.528 142.851 162.7 142.678 162.82C142.506 162.94 142.3 163.003 142.09 163Z" fill="#4448DB"/>
<path d="M182.25 216.72C181.985 216.72 181.73 216.615 181.543 216.427C181.355 216.239 181.25 215.985 181.25 215.72C181.25 215.455 181.355 215.2 181.543 215.013C181.73 214.825 181.985 214.72 182.25 214.72C192.215 214.717 201.837 211.075 209.307 204.48C216.777 197.884 221.582 188.788 222.82 178.9C222.852 178.635 222.988 178.393 223.198 178.228C223.408 178.063 223.675 177.988 223.94 178.02C224.205 178.052 224.447 178.188 224.612 178.398C224.777 178.608 224.852 178.875 224.82 179.14C223.523 189.516 218.482 199.061 210.642 205.981C202.803 212.901 192.707 216.72 182.25 216.72Z" fill="#4448DB"/>
<path d="M90.3701 26.37C91.9828 26.37 93.2901 25.0627 93.2901 23.45C93.2901 21.8374 91.9828 20.53 90.3701 20.53C88.7574 20.53 87.4501 21.8374 87.4501 23.45C87.4501 25.0627 88.7574 26.37 90.3701 26.37Z" fill="#BFC0F3"/>
<path d="M53.7601 199.04C55.3728 199.04 56.6801 197.733 56.6801 196.12C56.6801 194.508 55.3728 193.2 53.7601 193.2C52.1474 193.2 50.8401 194.508 50.8401 196.12C50.8401 197.733 52.1474 199.04 53.7601 199.04Z" fill="#BFC0F3"/>
<path d="M214.66 89.4298C216.273 89.4298 217.58 88.1225 217.58 86.5098C217.58 84.8972 216.273 83.5898 214.66 83.5898C213.047 83.5898 211.74 84.8972 211.74 86.5098C211.74 88.1225 213.047 89.4298 214.66 89.4298Z" fill="#BFC0F3"/>
</svg>
