<svg width="260" height="92" viewBox="0 0 260 92" fill="none" xmlns="http://www.w3.org/2000/svg">
<rect width="260" height="92" rx="12" fill="white"/>
<path d="M51.9477 51.5361C52.1953 52.1582 52.1168 52.9556 51.996 53.4388C51.7846 54.2965 51.2047 55.1723 49.4893 55.1723C47.8826 55.1723 46.904 54.2421 46.904 52.8408V50.3462H40V52.3274C40 58.0656 44.5121 59.7992 49.3503 59.7992C54.0013 59.7992 57.8309 58.2166 58.4409 53.922C58.755 51.6992 58.5255 50.2435 58.4168 49.7059C57.3295 44.318 47.5685 42.7113 46.8376 39.6972C46.7361 39.2526 46.7277 38.7917 46.8134 38.3441C46.9946 37.5166 47.5564 36.6166 49.1631 36.6166C50.6732 36.6166 51.549 37.5468 51.549 38.9482V40.5428H57.9698V38.7307C57.9698 33.1254 52.9383 32.2495 49.302 32.2495C44.7235 32.2495 40.9846 33.7656 40.302 37.9636C40.1208 39.1113 40.0906 40.1381 40.3624 41.4307C41.4799 46.6858 50.6188 48.2079 51.9477 51.5361Z" fill="#034EA2"/>
<path d="M67.5435 33.071L62.7717 58.7965H69.7241L73.2456 35.4508H73.3905L76.8154 58.7965H83.7315L78.9898 33.0649L67.5435 33.071ZM106.413 33.071L103.242 52.7381H103.091L99.9254 33.071H89.4335L88.8657 58.7965H95.3046L95.4617 35.6683H95.6066L99.9013 58.7965H106.431L110.731 35.6743H110.87L111.033 58.7965H117.466L116.899 33.0649L106.413 33.071Z" fill="#034EA2"/>
<path d="M135.587 51.4877C135.835 52.1099 135.756 52.9072 135.636 53.3904C135.424 54.2482 134.844 55.124 133.129 55.124C131.522 55.124 130.544 54.1938 130.544 52.7924V50.2978H123.64V52.279C123.64 58.0173 128.152 59.7508 132.99 59.7508C137.641 59.7508 141.471 58.1683 142.081 53.8737C142.395 51.6508 142.165 50.1951 142.056 49.6575C140.969 44.2696 131.208 42.6629 130.477 39.6488C130.376 39.2043 130.367 38.7434 130.453 38.2958C130.634 37.4683 131.196 36.5683 132.803 36.5683C134.313 36.5683 135.189 37.4985 135.189 38.8998V40.4945H141.609V38.6824C141.609 33.077 136.578 32.2012 132.942 32.2012C128.363 32.2012 124.624 33.7173 123.942 37.9153C123.76 39.0629 123.73 40.0898 124.002 41.3824C125.12 46.6374 134.258 48.1596 135.587 51.4877Z" fill="#034EA2"/>
<path d="M157.181 54.9426C158.969 54.9426 159.519 53.7104 159.646 53.0822C159.7 52.8043 159.706 52.4298 159.706 52.0976V33.0708H166.217V51.5117C166.219 52.0759 166.199 52.64 166.157 53.203C165.704 58.005 161.911 59.5634 157.181 59.5634C152.446 59.5634 148.652 58.005 148.199 53.203C148.181 52.9493 148.133 51.9829 148.139 51.5117V33.0647H154.65V52.0916C154.644 52.4298 154.656 52.8043 154.711 53.0822C154.832 53.7104 155.387 54.9426 157.181 54.9426ZM188.639 33.0708L188.989 53.2634H188.85L182.931 33.0708H173.387V58.5245H179.711L179.361 37.6312H179.5L185.848 58.5245H195.011V33.0708H188.639ZM210.837 54.6768C212.697 54.6768 213.35 53.499 213.464 52.8043C213.519 52.5205 213.525 52.158 213.525 51.8379V48.0929H210.885V44.348H220V51.246C220 51.7292 219.988 52.0795 219.909 52.9372C219.487 57.6245 215.422 59.2976 210.861 59.2976C206.301 59.2976 202.242 57.6245 201.813 52.9372C201.74 52.0795 201.722 51.7292 201.722 51.246V40.4218C201.722 39.9627 201.783 39.1533 201.831 38.7305C202.405 33.9164 206.301 32.3701 210.861 32.3701C215.422 32.3701 219.42 33.9043 219.891 38.7245C219.976 39.546 219.952 40.4158 219.952 40.4158V41.2795H213.464V39.8359C213.464 39.8359 213.464 39.2319 213.386 38.8574C213.265 38.2896 212.782 36.9849 210.813 36.9849C208.94 36.9849 208.391 38.2231 208.252 38.8574C208.173 39.1956 208.143 39.6547 208.143 40.0715V51.8319C208.143 52.158 208.155 52.5205 208.203 52.8104C208.324 53.499 208.977 54.6768 210.837 54.6768Z" fill="#034EA2"/>
</svg>
