<svg width="232" height="232" viewBox="0 0 232 232" fill="none" xmlns="http://www.w3.org/2000/svg">
<path d="M172.026 17.3498L41.3632 78.2787C35.3567 81.0795 32.758 88.2193 35.5589 94.2258L68.0033 163.803C70.8042 169.81 77.9439 172.408 83.9504 169.607L214.613 108.678C220.619 105.878 223.218 98.7378 220.417 92.7313L187.973 23.1541C185.172 17.1476 178.032 14.5489 172.026 17.3498Z" fill="#BFC0F3"/>
<path d="M190.453 28.4893L38.0389 99.561L46.8125 118.376L199.226 47.3043L190.453 28.4893Z" fill="#4448DB"/>
<path d="M179.96 69.96H35.7899C29.1625 69.96 23.7899 75.3325 23.7899 81.96V158.73C23.7899 165.357 29.1625 170.73 35.7899 170.73H179.96C186.587 170.73 191.96 165.357 191.96 158.73V81.96C191.96 75.3325 186.587 69.96 179.96 69.96Z" fill="white"/>
<path d="M180 172.73H35.7899C32.0769 172.73 28.5159 171.255 25.8904 168.63C23.2649 166.004 21.7899 162.443 21.7899 158.73V82C21.7899 78.287 23.2649 74.726 25.8904 72.1005C28.5159 69.475 32.0769 68 35.7899 68H180C183.713 68 187.274 69.475 189.899 72.1005C192.525 74.726 194 78.287 194 82V158.77C193.989 162.476 192.51 166.027 189.885 168.644C187.261 171.261 183.706 172.73 180 172.73ZM35.7899 72C33.1378 72 30.5942 73.0536 28.7188 74.9289C26.8435 76.8043 25.7899 79.3478 25.7899 82V158.77C25.7899 161.422 26.8435 163.966 28.7188 165.841C30.5942 167.716 33.1378 168.77 35.7899 168.77H180C182.652 168.77 185.196 167.716 187.071 165.841C188.946 163.966 190 161.422 190 158.77V82C190 79.3478 188.946 76.8043 187.071 74.9289C185.196 73.0536 182.652 72 180 72H35.7899Z" fill="#4448DB"/>
<path d="M176.96 137.94H152.08V144.58H176.96V137.94Z" fill="#BFC0F3"/>
<path d="M65.9599 116.44H38.7899V123.08H65.9599V116.44Z" fill="#BFC0F3"/>
<path d="M102.96 116.44H75.7899V123.08H102.96V116.44Z" fill="#BFC0F3"/>
<path d="M139.96 116.44H112.79V123.08H139.96V116.44Z" fill="#BFC0F3"/>
<path d="M176.96 116.44H149.79V123.08H176.96V116.44Z" fill="#BFC0F3"/>
<path d="M176.96 150.22H134.77V156.86H176.96V150.22Z" fill="#BFC0F3"/>
<path d="M71.4699 82.3501H41.6299C40.0614 82.3501 38.7899 83.6216 38.7899 85.1901V101.75C38.7899 103.319 40.0614 104.59 41.6299 104.59H71.4699C73.0384 104.59 74.3099 103.319 74.3099 101.75V85.1901C74.3099 83.6216 73.0384 82.3501 71.4699 82.3501Z" fill="#BFC0F3"/>
<path d="M121.17 154.79C120.544 170.315 115.324 185.305 106.17 197.86C99.25 207.223 90.3039 214.9 79.9999 220.32C69.6815 214.905 60.7213 207.227 53.7899 197.86C44.6312 185.308 39.4102 170.316 38.7899 154.79C45.1299 151.63 52.0399 148.47 59.4999 145.43C66.6499 142.52 73.4999 140.05 79.9799 137.94C86.4599 140.05 93.3099 142.52 100.45 145.43C107.92 148.43 114.83 151.63 121.17 154.79Z" fill="#BFC0F3"/>
<path d="M89.8599 170.61H70.6099C69.1905 170.61 68.0399 171.76 68.0399 173.18V189.64C68.0399 191.059 69.1905 192.21 70.6099 192.21H89.8599C91.2793 192.21 92.4299 191.059 92.4299 189.64V173.18C92.4299 171.76 91.2793 170.61 89.8599 170.61Z" fill="white"/>
<path d="M88.0599 179.14H72.4099C72.1447 179.14 71.8903 179.035 71.7028 178.847C71.5153 178.66 71.4099 178.405 71.4099 178.14V164.36C71.487 162.071 72.4505 159.901 74.0971 158.309C75.7437 156.717 77.9445 155.827 80.2349 155.827C82.5253 155.827 84.7261 156.717 86.3727 158.309C88.0193 159.901 88.9828 162.071 89.0599 164.36V178.14C89.0599 178.405 88.9545 178.66 88.767 178.847C88.5795 179.035 88.3251 179.14 88.0599 179.14ZM73.4099 177.14H87.0599V164.36C86.9923 162.595 86.2437 160.925 84.9712 159.7C83.6986 158.476 82.0011 157.791 80.2349 157.791C78.4687 157.791 76.7712 158.476 75.4986 159.7C74.2261 160.925 73.4775 162.595 73.4099 164.36V177.14Z" fill="white"/>
<path d="M95.34 144.4C95.2165 144.401 95.0941 144.377 94.98 144.33C90.06 142.43 84.98 140.64 79.98 138.99C78.23 139.57 76.45 140.16 74.64 140.79C74.3949 140.855 74.1343 140.824 73.911 140.704C73.6876 140.585 73.5182 140.384 73.4369 140.144C73.3556 139.904 73.3685 139.642 73.473 139.411C73.5776 139.18 73.7659 138.997 74 138.9C75.93 138.23 77.82 137.6 79.69 136.99C79.8907 136.92 80.1092 136.92 80.31 136.99C85.48 138.67 90.66 140.51 95.72 142.47C95.9358 142.555 96.1153 142.713 96.2276 142.916C96.3399 143.119 96.3781 143.355 96.3355 143.583C96.293 143.812 96.1723 144.018 95.9944 144.167C95.8164 144.316 95.5921 144.398 95.36 144.4H95.34Z" fill="#4448DB"/>
<path d="M79.9999 221.32C79.8366 221.322 79.6753 221.285 79.5299 221.21C69.0913 215.709 60.024 207.931 52.9999 198.45C52.9218 198.344 52.8652 198.224 52.8335 198.097C52.8018 197.969 52.7955 197.837 52.815 197.707C52.8345 197.577 52.8794 197.452 52.9471 197.339C53.0149 197.226 53.1042 197.128 53.2099 197.05C53.3156 196.972 53.4357 196.915 53.5633 196.884C53.6908 196.852 53.8234 196.846 53.9534 196.865C54.0834 196.885 54.2083 196.93 54.3209 196.997C54.4336 197.065 54.5318 197.154 54.6099 197.26C61.3507 206.355 70.0216 213.844 79.9999 219.19C83.7213 217.197 87.2732 214.903 90.6199 212.33C90.8308 212.168 91.0972 212.097 91.3607 212.132C91.4912 212.149 91.617 212.191 91.731 212.257C91.8449 212.323 91.9448 212.411 92.0249 212.515C92.105 212.619 92.1638 212.739 92.1978 212.866C92.2319 212.993 92.2406 213.125 92.2234 213.256C92.2062 213.386 92.1635 213.512 92.0977 213.626C92.0319 213.74 91.9443 213.84 91.8399 213.92C88.259 216.667 84.4521 219.105 80.4599 221.21C80.3188 221.286 80.1602 221.324 79.9999 221.32Z" fill="#4448DB"/>
<path d="M176.96 203.2C178.573 203.2 179.88 201.893 179.88 200.28C179.88 198.667 178.573 197.36 176.96 197.36C175.347 197.36 174.04 198.667 174.04 200.28C174.04 201.893 175.347 203.2 176.96 203.2Z" fill="#BFC0F3"/>
<path d="M65.9599 36.5299C67.5726 36.5299 68.8799 35.2226 68.8799 33.6099C68.8799 31.9973 67.5726 30.6899 65.9599 30.6899C64.3472 30.6899 63.0399 31.9973 63.0399 33.6099C63.0399 35.2226 64.3472 36.5299 65.9599 36.5299Z" fill="#BFC0F3"/>
<path d="M38.7899 206.11C40.4026 206.11 41.7099 204.803 41.7099 203.19C41.7099 201.577 40.4026 200.27 38.7899 200.27C37.1773 200.27 35.8699 201.577 35.8699 203.19C35.8699 204.803 37.1773 206.11 38.7899 206.11Z" fill="#BFC0F3"/>
<path d="M204.58 193.72C203.782 193.72 202.996 193.532 202.284 193.173C201.572 192.813 200.954 192.292 200.48 191.65L194.76 183.93C194.188 183.161 193.845 182.247 193.769 181.292C193.693 180.337 193.887 179.38 194.33 178.53C194.775 177.686 195.445 176.981 196.265 176.494C197.086 176.007 198.026 175.756 198.98 175.77L206.84 175.93C207.621 175.948 208.387 176.144 209.081 176.504C209.774 176.864 210.376 177.378 210.84 178.006C211.305 178.635 211.619 179.361 211.759 180.129C211.9 180.898 211.862 181.688 211.65 182.44L209.52 190C209.261 190.921 208.749 191.75 208.042 192.394C207.335 193.038 206.461 193.469 205.52 193.64C205.21 193.697 204.895 193.724 204.58 193.72ZM198.87 179.77C198.665 179.771 198.463 179.828 198.289 179.936C198.114 180.044 197.973 180.198 197.881 180.381C197.788 180.565 197.749 180.77 197.766 180.975C197.784 181.179 197.858 181.375 197.98 181.54L203.7 189.27C203.819 189.441 203.986 189.573 204.18 189.649C204.374 189.726 204.586 189.743 204.79 189.7C204.997 189.668 205.191 189.577 205.348 189.436C205.504 189.296 205.616 189.113 205.67 188.91L207.8 181.35C207.853 181.182 207.865 181.003 207.836 180.83C207.806 180.656 207.736 180.491 207.63 180.35C207.527 180.213 207.394 180.102 207.242 180.024C207.089 179.946 206.921 179.904 206.75 179.9L198.9 179.74L198.87 179.77Z" fill="#BFC0F3"/>
<path d="M18.9999 62.62C18.0442 62.6134 17.1097 62.338 16.3033 61.8251C15.4968 61.3122 14.8511 60.5827 14.4399 59.72L10.9999 52.64C10.6615 51.9358 10.4888 51.1635 10.4949 50.3822C10.501 49.601 10.6859 48.8315 11.0353 48.1327C11.3847 47.4339 11.8894 46.8243 12.5107 46.3506C13.132 45.877 13.8535 45.5518 14.6199 45.4L22.3299 43.89C23.2688 43.7034 24.2413 43.7843 25.1364 44.1235C26.0316 44.4627 26.8135 45.0465 27.393 45.8085C27.9725 46.5704 28.3263 47.4798 28.4142 48.433C28.5021 49.3862 28.3204 50.345 27.8899 51.2L23.5899 59.79C23.1666 60.6442 22.512 61.3624 21.7005 61.8627C20.889 62.3631 19.9532 62.6254 18.9999 62.62ZM23.3199 47.79H23.0799L15.3699 49.31C15.2032 49.3415 15.046 49.4112 14.9107 49.5135C14.7754 49.6159 14.6656 49.7481 14.5899 49.9C14.5124 50.0553 14.4721 50.2264 14.4721 50.4C14.4721 50.5735 14.5124 50.7447 14.5899 50.9L17.9999 58C18.0903 58.1885 18.2322 58.3477 18.4091 58.4591C18.586 58.5706 18.7908 58.6298 18.9999 58.63C19.2093 58.631 19.4146 58.5723 19.5917 58.4607C19.7689 58.3491 19.9105 58.1893 19.9999 58L24.2999 49.41C24.388 49.2397 24.4305 49.0495 24.4233 48.858C24.416 48.6664 24.3593 48.48 24.2586 48.3168C24.1579 48.1537 24.0167 48.0194 23.8487 47.9271C23.6807 47.8348 23.4916 47.7875 23.2999 47.79H23.3199Z" fill="#BFC0F3"/>
<path d="M117.34 27.6C117.15 27.61 116.96 27.61 116.77 27.6L107.21 26.6C106.261 26.4942 105.36 26.125 104.61 25.5344C103.86 24.9437 103.29 24.1549 102.964 23.2573C102.639 22.3596 102.571 21.3888 102.768 20.4545C102.965 19.5202 103.419 18.6596 104.08 17.97L109.53 12.3C110.073 11.747 110.734 11.3244 111.464 11.0641C112.194 10.8038 112.973 10.7126 113.744 10.7973C114.514 10.882 115.255 11.1405 115.911 11.5532C116.567 11.966 117.12 12.5222 117.53 13.18L121.64 19.87C122.113 20.6441 122.372 21.5299 122.39 22.4369C122.409 23.3439 122.186 24.2395 121.744 25.0319C121.302 25.8244 120.658 26.4854 119.877 26.9472C119.097 27.4089 118.207 27.6549 117.3 27.66L117.34 27.6ZM107 20.68C106.854 20.8288 106.754 21.0161 106.712 21.2199C106.669 21.4237 106.686 21.6354 106.76 21.83C106.827 22.0289 106.951 22.2039 107.116 22.3336C107.281 22.4632 107.481 22.5419 107.69 22.56L117.24 23.56C117.448 23.5843 117.658 23.5482 117.846 23.456C118.034 23.3637 118.192 23.2193 118.3 23.04C118.423 22.8697 118.489 22.665 118.489 22.455C118.489 22.245 118.423 22.0403 118.3 21.87L114.19 15.17C114.105 15.0211 113.985 14.8951 113.84 14.8028C113.696 14.7105 113.531 14.6546 113.36 14.64C113.191 14.6232 113.02 14.645 112.861 14.704C112.701 14.7629 112.557 14.8573 112.44 14.98L107 20.68Z" fill="#BFC0F3"/>
</svg>
