<svg width="240" height="92" viewBox="0 0 240 92" fill="none" xmlns="http://www.w3.org/2000/svg">
<path d="M67.1638 35.2915C68.3414 35.2915 69.4562 35.2915 70.6025 35.2915C70.6025 38.1021 70.6025 40.8813 70.6025 43.7233C69.5819 43.7233 68.5769 43.7233 67.4935 43.7233C66.7712 40.7086 64.416 39.4839 61.6996 38.6831C57.8056 37.5212 53.8802 37.3798 49.9391 38.4005C49.1069 38.6203 48.2904 39.0599 47.5524 39.5153C46.8458 39.9706 46.5632 40.7243 46.7516 41.5722C46.9243 42.373 47.5367 42.8126 48.3061 42.9382C50.4415 43.268 52.5926 43.5349 54.7438 43.8489C58.1981 44.3514 61.6839 44.791 65.1069 45.4505C66.4886 45.7174 67.839 46.3612 69.0637 47.0835C73.0676 49.4073 74.0097 55.8136 69.1579 58.844C66.363 60.5869 63.2541 61.3092 60.0352 61.6232C55.1677 62.11 50.52 61.1679 46.0293 59.3622C44.9459 58.9226 44.7418 59.0639 44.7261 60.2101C44.7261 60.4456 44.7104 60.6654 44.6947 60.9481C43.4229 60.9481 42.1824 60.9481 40.8792 60.9481C40.8792 57.7292 40.8792 54.5261 40.8792 51.2444C41.9783 51.2444 43.1088 51.2444 44.2864 51.2444C44.6476 54.4947 46.9714 55.9706 49.7506 56.8656C53.9116 58.216 58.1667 58.7027 62.469 57.4309C63.207 57.2111 63.9449 56.897 64.6044 56.4888C65.468 55.9706 65.7663 55.1227 65.6721 54.1335C65.5779 53.16 64.997 52.5006 64.102 52.2964C62.3748 51.9039 60.6319 51.6056 58.8733 51.3386C54.8223 50.742 50.7398 50.2866 46.7045 49.5644C44.2393 49.1404 42.1039 47.9471 40.8478 45.6389C39.2462 42.687 39.9528 39.374 42.6378 37.3327C44.7575 35.7155 47.2541 34.9618 49.8448 34.475C55.4346 33.4387 60.8046 34.1767 65.9705 36.532C66.8498 36.9245 67.101 36.7675 67.1324 35.8254C67.1481 35.6684 67.1481 35.5113 67.1638 35.2915Z" fill="#D1D2F7"/>
<path d="M158.626 38.6828C157.496 38.6828 156.459 38.6671 155.407 38.6828C154.245 38.6985 153.9 39.0283 153.9 40.1902C153.916 42.8124 153.963 45.4502 153.994 48.0724C154.041 51.9193 154.104 55.7662 154.151 59.6289C154.151 59.8644 154.151 60.0842 154.151 60.4453C152.879 60.4453 151.655 60.3825 150.445 60.461C149.488 60.5238 148.797 60.2098 148.075 59.566C142.076 54.1961 136.031 48.8575 130.002 43.5032C129.813 43.3305 129.609 43.1892 129.327 42.938C129.311 43.2834 129.295 43.5032 129.295 43.7231C129.295 47.4915 129.295 51.2756 129.295 55.044C129.295 55.3109 129.295 55.5621 129.311 55.829C129.405 57.0538 129.672 57.3207 130.913 57.3521C132.012 57.3835 133.095 57.3521 134.257 57.3521C134.257 58.3884 134.257 59.3619 134.257 60.3825C129.484 60.3825 124.726 60.3825 119.921 60.3825C119.921 59.3933 119.921 58.4355 119.921 57.3521C120.864 57.3521 121.79 57.3521 122.716 57.3521C124.145 57.3521 124.444 57.1009 124.444 55.672C124.459 50.6789 124.475 45.6858 124.444 40.6926C124.444 39.2167 123.878 38.6985 122.371 38.6828C121.539 38.6671 120.691 38.6671 119.859 38.6671C119.812 38.6671 119.764 38.6357 119.607 38.5729C119.607 38.1333 119.607 37.6465 119.607 37.1598C119.607 36.673 119.607 36.1705 119.607 35.5582C119.937 35.5582 120.204 35.5582 120.487 35.5582C123.988 35.5582 127.49 35.5739 130.991 35.5425C131.682 35.5425 132.153 35.7623 132.655 36.202C137.963 40.991 143.286 45.7486 148.608 50.5219C148.718 50.6318 148.844 50.7103 149.032 50.8673C149.064 50.6632 149.111 50.5219 149.111 50.3806C149.064 47.2402 149.001 44.0842 148.954 40.9439C148.954 40.6612 148.922 40.3786 148.907 40.0803C148.813 39.0597 148.451 38.6985 147.399 38.6828C146.285 38.6514 145.17 38.6828 144.008 38.6828C144.008 37.6151 144.008 36.6416 144.008 35.6053C148.875 35.6053 153.711 35.6053 158.61 35.6053C158.626 36.6259 158.626 37.5994 158.626 38.6828Z" fill="#D1D2F7"/>
<path d="M96.7144 61.9999C92.3964 61.9685 87.9842 61.0421 84.0431 58.4356C76.0353 53.1442 76.3336 42.0588 84.6398 37.2227C89.1619 34.6005 94.0922 33.7526 99.2737 34.0823C102.885 34.3179 106.339 35.1658 109.433 37.1128C113.531 39.6878 115.902 43.2992 115.776 48.2138C115.635 53.2541 113.091 56.8969 108.695 59.2835C105.052 61.2462 101.127 61.9685 96.7144 61.9999ZM107.831 48.0411C107.894 43.4091 105.272 39.6878 100.891 38.259C99.1795 37.7094 97.4209 37.521 95.6309 37.7408C91.7997 38.2119 88.7065 39.892 87.1363 43.5347C85.5348 47.256 85.8017 50.9302 88.2355 54.259C90.2139 56.9754 93.1187 58.1059 96.3846 58.2786C102.76 58.6241 107.91 54.4003 107.831 48.0411Z" fill="#D1D2F7"/>
<path d="M178.928 35.6212C178.928 36.6261 178.928 37.5996 178.928 38.683C178.285 38.683 177.657 38.6516 177.044 38.6987C176.809 38.7144 176.479 38.8243 176.4 38.997C176.322 39.1697 176.416 39.5152 176.557 39.6879C178.489 42.0118 180.436 44.3199 182.414 46.6752C182.54 46.5652 182.65 46.5024 182.728 46.4082C184.565 44.2728 186.402 42.1374 188.224 39.9862C188.428 39.735 188.632 39.2797 188.538 39.0598C188.444 38.84 187.957 38.7301 187.627 38.6987C187.093 38.6359 186.544 38.683 185.963 38.683C185.963 37.631 185.963 36.6575 185.963 35.6212C190.626 35.6212 195.289 35.6212 200 35.6212C200 36.6104 200 37.5839 200 38.683C199.026 38.683 198.053 38.7144 197.064 38.6673C195.98 38.6202 195.148 38.997 194.442 39.7978C191.348 43.3307 188.239 46.8322 185.146 50.365C184.942 50.6006 184.801 50.9617 184.801 51.26C184.769 52.8459 184.769 54.4318 184.785 56.0177C184.801 56.9912 185.068 57.2738 186.057 57.2895C187.203 57.3209 188.349 57.2895 189.543 57.2895C189.543 58.3572 189.543 59.3307 189.543 60.367C183.859 60.367 178.206 60.367 172.491 60.367C172.491 59.3778 172.491 58.4043 172.491 57.3052C173.496 57.3052 174.5 57.3209 175.521 57.3052C176.887 57.2895 177.123 57.0383 177.123 55.7036C177.123 54.3219 177.154 52.9401 177.107 51.5741C177.091 51.1972 176.95 50.7419 176.714 50.4593C173.668 46.9892 170.606 43.5505 167.545 40.0804C166.665 39.0755 165.598 38.5574 164.232 38.6516C163.431 38.6987 162.63 38.6673 161.782 38.6673C161.782 37.6153 161.782 36.6261 161.782 35.6055C167.482 35.6212 173.182 35.6212 178.928 35.6212Z" fill="#D1D2F7"/>
</svg>
