<svg width="232" height="232" viewBox="0 0 232 232" fill="none" xmlns="http://www.w3.org/2000/svg">
<path d="M196.42 187.35L108.29 146.43V68.46L196.42 109.38V187.35Z" fill="white"/>
<path d="M35.58 99.67L108.29 68.46V146.43L35.58 177.64V99.67Z" fill="#BFC0F3"/>
<path d="M123.71 142.59C123.419 142.592 123.132 142.527 122.87 142.4L34.73 101.48C34.3805 101.316 34.0857 101.055 33.8813 100.728C33.6768 100.401 33.5714 100.021 33.5778 99.6355C33.5841 99.2496 33.7019 98.8739 33.917 98.5535C34.1321 98.2331 34.4353 97.9818 34.79 97.8299L107.5 66.6299C107.756 66.5154 108.034 66.4563 108.315 66.4563C108.596 66.4563 108.874 66.5154 109.13 66.6299L197.27 107.55C197.62 107.713 197.914 107.975 198.119 108.302C198.323 108.629 198.429 109.008 198.422 109.394C198.416 109.78 198.298 110.156 198.083 110.476C197.868 110.797 197.565 111.048 197.21 111.2L124.5 142.43C124.249 142.533 123.981 142.587 123.71 142.59ZM40.48 99.7399L123.74 138.4L191.52 109.31L108.26 70.6499L40.48 99.7399Z" fill="#4448DB"/>
<path d="M123.71 140.59L196.42 109.38V187.35L123.71 218.56" fill="#BFC0F3"/>
<path d="M123.71 220.56C123.248 220.562 122.801 220.403 122.442 220.112C122.084 219.821 121.838 219.415 121.745 218.963C121.652 218.511 121.718 218.041 121.932 217.632C122.146 217.223 122.495 216.901 122.92 216.72L194.42 186V112.42L124.5 142.42C124.258 142.524 123.999 142.579 123.736 142.582C123.473 142.586 123.212 142.537 122.968 142.44C122.723 142.342 122.501 142.198 122.312 142.014C122.124 141.831 121.974 141.612 121.87 141.37C121.766 141.128 121.711 140.869 121.708 140.606C121.704 140.343 121.753 140.082 121.85 139.838C121.948 139.593 122.092 139.371 122.276 139.183C122.46 138.994 122.678 138.844 122.92 138.74L195.63 107.53C195.934 107.4 196.267 107.347 196.596 107.377C196.926 107.406 197.244 107.518 197.52 107.7C197.797 107.882 198.024 108.13 198.181 108.422C198.338 108.713 198.42 109.039 198.42 109.37V187.37C198.421 187.762 198.306 188.145 198.091 188.472C197.876 188.799 197.57 189.056 197.21 189.21L124.5 220.4C124.25 220.507 123.981 220.561 123.71 220.56Z" fill="#4448DB"/>
<path d="M123.71 140.59L35.58 99.6699V177.64L123.71 218.56" fill="white"/>
<path d="M123.71 220.56C123.419 220.56 123.132 220.495 122.87 220.37L34.73 179.45C34.3863 179.289 34.0956 179.033 33.8919 178.712C33.6883 178.392 33.5801 178.02 33.58 177.64V99.64C33.5809 99.3046 33.666 98.9748 33.8277 98.681C33.9893 98.3872 34.2223 98.1387 34.5051 97.9584C34.7879 97.7782 35.1115 97.672 35.4461 97.6495C35.7808 97.6271 36.1157 97.6891 36.42 97.83L124.55 138.74C125.028 138.965 125.397 139.37 125.578 139.866C125.758 140.363 125.735 140.91 125.513 141.389C125.291 141.869 124.889 142.241 124.394 142.425C123.898 142.608 123.351 142.589 122.87 142.37L37.58 102.8V176.36L124.58 216.74C124.997 216.93 125.335 217.257 125.54 217.666C125.744 218.075 125.802 218.543 125.704 218.99C125.606 219.437 125.357 219.836 125 220.122C124.642 220.408 124.198 220.562 123.74 220.56H123.71Z" fill="#4448DB"/>
<path d="M12.68 126.25L100.81 167.17L123.71 140.59L35.58 99.6699L12.68 126.25Z" fill="white"/>
<path d="M100.81 169.17C100.531 169.167 100.256 169.109 100 169L11.83 128.07C11.5496 127.939 11.3034 127.746 11.1105 127.504C10.9177 127.262 10.7835 126.979 10.7186 126.677C10.6537 126.374 10.6597 126.061 10.7363 125.761C10.8129 125.462 10.9579 125.184 11.16 124.95L34.06 98.36C34.3453 98.0311 34.7302 97.8043 35.1561 97.7141C35.5821 97.6238 36.0258 97.6751 36.42 97.86L124.55 138.77C124.831 138.901 125.077 139.096 125.27 139.339C125.463 139.582 125.596 139.867 125.66 140.17C125.724 140.471 125.718 140.783 125.641 141.081C125.565 141.38 125.421 141.656 125.22 141.89L102.32 168.48C102.132 168.696 101.9 168.87 101.64 168.989C101.379 169.108 101.096 169.17 100.81 169.17ZM15.92 125.55L100.28 164.72L120.47 141.29L36.11 102.12L15.92 125.55Z" fill="#4448DB"/>
<path d="M219.32 135.97L146.61 167.17L123.71 140.59L196.42 109.38L219.32 135.97Z" fill="white"/>
<path d="M146.61 169.17C146.322 169.171 146.037 169.11 145.775 168.991C145.512 168.872 145.279 168.698 145.09 168.48L122.19 141.89C121.986 141.652 121.841 141.37 121.767 141.066C121.692 140.762 121.69 140.445 121.76 140.14C121.83 139.833 121.972 139.548 122.174 139.306C122.375 139.065 122.631 138.874 122.92 138.75L195.63 107.54C196.022 107.372 196.458 107.333 196.874 107.43C197.289 107.528 197.663 107.755 197.94 108.08L220.84 134.66C221.044 134.898 221.19 135.181 221.264 135.486C221.339 135.791 221.341 136.109 221.27 136.415C221.199 136.72 221.057 137.005 220.855 137.246C220.654 137.486 220.398 137.676 220.11 137.8L147.4 169C147.151 169.11 146.882 169.168 146.61 169.17ZM127 141.35L147.17 164.76L216 135.2L195.83 111.8L127 141.35Z" fill="#4448DB"/>
<path d="M167 86.5999L175.57 50.5999C175.778 49.7195 175.628 48.7928 175.154 48.0225C174.679 47.2523 173.919 46.7012 173.04 46.4899L140 38.6299C139.121 38.4194 138.194 38.5665 137.423 39.0391C136.653 39.5116 136.101 40.2709 135.89 41.1499L127.32 77.1499L120 75.4099C119.668 75.3318 119.321 75.3545 119.002 75.4753C118.683 75.596 118.408 75.8092 118.211 76.0876C118.015 76.3659 117.906 76.6967 117.898 77.0375C117.891 77.3782 117.986 77.7134 118.17 77.9999L136.68 107.64C137.508 108.983 138.832 109.946 140.365 110.321C141.897 110.695 143.516 110.451 144.87 109.64L174.76 91.5299C175.055 91.3559 175.291 91.0974 175.437 90.7878C175.583 90.4783 175.633 90.132 175.58 89.7937C175.528 89.4554 175.374 89.1408 175.141 88.8905C174.907 88.6402 174.604 88.4659 174.27 88.3899L167 86.5999Z" fill="#BFC0F3"/>
<path d="M155.41 69.26C154.745 69.7146 153.993 70.0282 153.202 70.1812C152.411 70.3343 151.597 70.3237 150.81 70.15C149.559 69.7834 148.448 69.0498 147.619 68.0443C146.79 67.0388 146.282 65.8076 146.16 64.51L153.09 66.16C153.233 66.1942 153.382 66.1998 153.527 66.1766C153.672 66.1533 153.812 66.1017 153.937 66.0246C154.062 65.9476 154.171 65.8465 154.258 65.7274C154.344 65.6082 154.406 65.4732 154.44 65.33C154.474 65.1869 154.48 65.0384 154.457 64.8931C154.433 64.7478 154.382 64.6085 154.305 64.4831C154.228 64.3578 154.127 64.2488 154.007 64.1625C153.888 64.0762 153.753 64.0142 153.61 63.98L146.12 62.2C146.162 61.8261 146.229 61.4553 146.32 61.09C146.415 60.6818 146.538 60.2807 146.69 59.89L154.17 61.67C154.455 61.7272 154.751 61.6712 154.996 61.5139C155.241 61.3566 155.415 61.1102 155.481 60.827C155.547 60.5438 155.501 60.2459 155.351 59.9964C155.202 59.7469 154.961 59.5653 154.68 59.49L147.8 57.85C148.496 56.7738 149.495 55.9283 150.672 55.4209C151.849 54.9135 153.15 54.767 154.41 55C155.19 55.1978 155.921 55.5537 156.557 56.0457C157.194 56.5376 157.722 57.1552 158.11 57.86C158.26 58.1173 158.506 58.3045 158.794 58.3804C159.081 58.4564 159.388 58.4149 159.645 58.265C159.902 58.1152 160.089 57.8693 160.165 57.5814C160.241 57.2935 160.2 56.9873 160.05 56.73C159.511 55.7613 158.779 54.914 157.898 54.2412C157.017 53.5685 156.006 53.0847 154.93 52.82C151.3 51.95 147.57 53.82 145.48 57.26L142.57 56.56C142.427 56.5259 142.278 56.5203 142.133 56.5435C141.988 56.5667 141.848 56.6184 141.723 56.6954C141.598 56.7725 141.489 56.8735 141.402 56.9927C141.316 57.1119 141.254 57.2469 141.22 57.39C141.186 57.5332 141.18 57.6816 141.203 57.8269C141.227 57.9723 141.278 58.1116 141.355 58.2369C141.432 58.3623 141.533 58.4712 141.653 58.5576C141.772 58.6439 141.907 58.7059 142.05 58.74L144.5 59.32C144.36 59.72 144.24 60.12 144.14 60.53C144.051 60.8961 143.981 61.2666 143.93 61.64L141.5 61.06C141.353 61.0108 141.197 60.9927 141.042 61.007C140.887 61.0212 140.737 61.0675 140.602 61.1428C140.466 61.2182 140.347 61.321 140.253 61.4446C140.159 61.5683 140.092 61.7102 140.056 61.8612C140.019 62.0123 140.015 62.1692 140.043 62.322C140.071 62.4749 140.13 62.6203 140.217 62.749C140.304 62.8777 140.416 62.987 140.548 63.0698C140.679 63.1526 140.826 63.2072 140.98 63.23L143.85 63.92C144.13 67.92 146.62 71.41 150.29 72.29C151.372 72.533 152.493 72.5527 153.583 72.3481C154.673 72.1435 155.71 71.7188 156.63 71.1C156.879 70.9382 157.054 70.6841 157.116 70.3934C157.178 70.1027 157.122 69.7993 156.96 69.55C156.88 69.4266 156.776 69.3201 156.655 69.2367C156.534 69.1533 156.397 69.0947 156.253 69.064C155.963 69.0021 155.659 69.0582 155.41 69.22V69.26Z" fill="white"/>
<path d="M206.05 37.64C205.346 37.0939 204.678 36.5027 204.05 35.87C199.57 31.34 198.73 25.4 200.58 19.22C200.612 19.1544 200.631 19.083 200.636 19.01C200.64 18.937 200.63 18.8639 200.607 18.7947C200.583 18.7255 200.546 18.6617 200.498 18.6068C200.449 18.552 200.391 18.5072 200.325 18.475C200.259 18.4428 200.188 18.4239 200.115 18.4193C200.042 18.4147 199.969 18.4245 199.9 18.4482C199.83 18.4719 199.767 18.509 199.712 18.5573C199.657 18.6057 199.612 18.6644 199.58 18.73C195.1 24.73 188.87 27.46 181.58 25.34C181.447 25.275 181.294 25.2654 181.155 25.3132C181.015 25.361 180.9 25.4624 180.835 25.595C180.77 25.7276 180.76 25.8806 180.808 26.0203C180.856 26.16 180.957 26.275 181.09 26.34C187.09 30.9 188.72 37.54 186.6 44.67C186.535 44.8026 186.525 44.9556 186.573 45.0953C186.621 45.235 186.722 45.35 186.855 45.415C186.988 45.48 187.141 45.4896 187.28 45.4418C187.42 45.394 187.535 45.2926 187.6 45.16C189.89 42.08 193.86 38.33 199.76 37.94C201.742 37.8338 203.728 38.0706 205.63 38.64C205.763 38.7037 205.915 38.712 206.054 38.6633C206.193 38.6145 206.306 38.5126 206.37 38.38C206.434 38.2474 206.442 38.0949 206.393 37.9562C206.344 37.8174 206.243 37.7037 206.11 37.64H206.05Z" fill="#BFC0F3"/>
<path d="M70.23 17.15C69.5722 17.3061 68.9037 17.4131 68.23 17.47C63.59 17.87 59.86 15.55 57.23 11.62C57.1743 11.5468 57.0956 11.4945 57.0066 11.4714C56.9175 11.4483 56.8233 11.4558 56.7391 11.4927C56.6548 11.5297 56.5854 11.5939 56.5421 11.675C56.4987 11.7561 56.4839 11.8495 56.5 11.94C57.78 17.27 56.39 22.04 51.77 25.16C51.6943 25.2127 51.6391 25.2899 51.6137 25.3786C51.5884 25.4672 51.5945 25.5619 51.6309 25.6467C51.6674 25.7314 51.732 25.8009 51.8139 25.8434C51.8957 25.8859 51.9897 25.8989 52.08 25.88C57.46 24.63 61.95 26.88 64.96 31.37C65.0113 31.4483 65.089 31.5054 65.179 31.5311C65.2689 31.5568 65.3651 31.5494 65.45 31.51C65.5376 31.4743 65.6092 31.408 65.6516 31.3233C65.6939 31.2387 65.704 31.1416 65.68 31.05C65.1898 29.3335 65.0826 27.5302 65.366 25.7677C65.6494 24.0052 66.3164 22.3264 67.32 20.85C68.1795 19.6709 69.2429 18.6549 70.46 17.85C70.5435 17.8008 70.6063 17.7228 70.6367 17.6306C70.667 17.5385 70.6628 17.4385 70.6249 17.3492C70.587 17.2599 70.5179 17.1874 70.4305 17.1453C70.3432 17.1031 70.2435 17.0942 70.15 17.12L70.23 17.15Z" fill="#BFC0F3"/>
<path d="M204.18 87.9999C205.687 88.3729 207.274 88.2447 208.701 87.6348C210.128 87.0249 211.318 85.9665 212.09 84.6199C212.117 84.565 212.165 84.5227 212.222 84.5016C212.28 84.4806 212.344 84.4824 212.4 84.5067C212.456 84.5311 212.501 84.576 212.525 84.6324C212.55 84.6888 212.551 84.7523 212.53 84.8099C211.75 88.0699 212.6 90.9899 215.43 92.8999C215.477 92.9328 215.511 92.9806 215.526 93.0355C215.542 93.0903 215.538 93.1489 215.516 93.2014C215.494 93.2539 215.454 93.2973 215.404 93.3243C215.354 93.3513 215.296 93.3604 215.24 93.3499C211.94 92.5799 209.24 93.9299 207.35 96.7099C207.318 96.7568 207.27 96.7913 207.216 96.8077C207.161 96.8241 207.103 96.8213 207.05 96.7999C206.996 96.7758 206.953 96.7335 206.927 96.6805C206.901 96.6274 206.895 96.567 206.91 96.5099C207.211 95.4585 207.277 94.3537 207.105 93.2738C206.932 92.1938 206.524 91.165 205.91 90.2599C205.384 89.5468 204.738 88.9309 204 88.4399C203.954 88.4046 203.921 88.3549 203.907 88.2987C203.892 88.2425 203.897 88.1831 203.92 88.1299C203.942 88.0816 203.979 88.0423 204.027 88.0186C204.074 87.9949 204.128 87.9883 204.18 87.9999Z" fill="#BFC0F3"/>
<path d="M190.87 72.8C192.483 72.8 193.79 71.4926 193.79 69.88C193.79 68.2673 192.483 66.96 190.87 66.96C189.257 66.96 187.95 68.2673 187.95 69.88C187.95 71.4926 189.257 72.8 190.87 72.8Z" fill="#BFC0F3"/>
<path d="M25.61 58.4899C27.2227 58.4899 28.53 57.1826 28.53 55.5699C28.53 53.9572 27.2227 52.6499 25.61 52.6499C23.9973 52.6499 22.69 53.9572 22.69 55.5699C22.69 57.1826 23.9973 58.4899 25.61 58.4899Z" fill="#BFC0F3"/>
<path d="M138.37 25.49C136.986 25.49 135.632 25.0795 134.481 24.3103C133.33 23.5411 132.433 22.4479 131.903 21.1688C131.373 19.8897 131.234 18.4822 131.504 17.1244C131.775 15.7665 132.441 14.5192 133.42 13.5402C134.399 12.5613 135.646 11.8946 137.004 11.6245C138.362 11.3544 139.77 11.493 141.049 12.0228C142.328 12.5526 143.421 13.4499 144.19 14.601C144.959 15.7521 145.37 17.1055 145.37 18.49C145.37 20.3465 144.633 22.127 143.32 23.4397C142.007 24.7525 140.227 25.49 138.37 25.49ZM138.37 15.49C137.777 15.49 137.197 15.6659 136.703 15.9956C136.21 16.3252 135.825 16.7938 135.598 17.3419C135.371 17.8901 135.312 18.4933 135.428 19.0753C135.543 19.6572 135.829 20.1918 136.249 20.6113C136.668 21.0309 137.203 21.3166 137.785 21.4323C138.367 21.5481 138.97 21.4887 139.518 21.2616C140.066 21.0346 140.535 20.6501 140.864 20.1567C141.194 19.6634 141.37 19.0833 141.37 18.49C141.359 17.7013 141.039 16.9485 140.477 16.3945C139.916 15.8405 139.159 15.5299 138.37 15.53V15.49Z" fill="#BFC0F3"/>
<path d="M49.13 78.49C47.7455 78.49 46.3922 78.0794 45.241 77.3103C44.0899 76.5411 43.1927 75.4479 42.6628 74.1688C42.133 72.8897 41.9944 71.4822 42.2645 70.1244C42.5346 68.7665 43.2013 67.5192 44.1803 66.5402C45.1592 65.5613 46.4065 64.8946 47.7644 64.6245C49.1222 64.3544 50.5297 64.493 51.8088 65.0228C53.0879 65.5526 54.1811 66.4499 54.9503 67.601C55.7195 68.7521 56.13 70.1055 56.13 71.49C56.13 73.3465 55.3925 75.127 54.0798 76.4397C52.767 77.7525 50.9865 78.49 49.13 78.49ZM49.13 68.49C48.5367 68.49 47.9566 68.6659 47.4633 68.9956C46.97 69.3252 46.5854 69.7938 46.3584 70.3419C46.1313 70.8901 46.0719 71.4933 46.1877 72.0753C46.3034 72.6572 46.5891 73.1918 47.0087 73.6113C47.4282 74.0309 47.9628 74.3166 48.5447 74.4324C49.1267 74.5481 49.7299 74.4887 50.2781 74.2616C50.8262 74.0346 51.2948 73.65 51.6244 73.1567C51.9541 72.6634 52.13 72.0833 52.13 71.49C52.1195 70.7013 51.7988 69.9485 51.2373 69.3945C50.6758 68.8405 49.9188 68.5299 49.13 68.53V68.49Z" fill="#BFC0F3"/>
<path d="M85.14 110L113.29 120.41C114.91 121.01 116.677 121.093 118.346 120.647C120.015 120.201 121.505 119.248 122.61 117.92L141.79 94.82C142.64 93.7921 143.232 92.5762 143.517 91.2735C143.802 89.9708 143.772 88.6188 143.43 87.33L129.19 34.23C128.618 32.0983 127.224 30.2804 125.314 29.1745C123.404 28.0686 121.134 27.7649 119 28.33L71.64 41C69.5032 41.5741 67.6816 42.973 66.5754 44.8892C65.4691 46.8054 65.1687 49.0824 65.74 51.22L80 104.34C80.3471 105.623 80.9942 106.805 81.8878 107.789C82.7815 108.774 83.8961 109.531 85.14 110Z" fill="white"/>
<path d="M116.18 121.94C115.077 121.94 113.984 121.743 112.95 121.36L84.79 110.94C83.3882 110.423 82.1308 109.578 81.1233 108.475C80.1158 107.372 79.3877 106.043 79 104.6L64.78 51.49C64.4612 50.3048 64.3793 49.0683 64.5391 47.8514C64.6989 46.6345 65.0972 45.4611 65.7112 44.3984C66.3252 43.3357 67.1429 42.4046 68.1174 41.6584C69.0918 40.9123 70.204 40.3657 71.39 40.05L118.72 27.36C119.907 27.0444 121.145 26.9658 122.362 27.1288C123.58 27.2917 124.753 27.6929 125.816 28.3096C126.878 28.9262 127.809 29.7462 128.554 30.7225C129.3 31.6989 129.845 32.8126 130.16 34L144.39 87.11C144.775 88.5532 144.81 90.0674 144.491 91.5267C144.173 92.986 143.511 94.3483 142.56 95.5L123.38 118.59C122.499 119.642 121.397 120.488 120.153 121.066C118.909 121.645 117.552 121.944 116.18 121.94ZM121.18 29.04C120.531 29.0428 119.886 29.1302 119.26 29.3L71.9 42C70.9671 42.2483 70.0925 42.6783 69.3263 43.2655C68.5601 43.8527 67.9174 44.5855 67.4352 45.4217C66.9529 46.258 66.6406 47.1813 66.5162 48.1385C66.3917 49.0958 66.4576 50.0683 66.71 51L80.94 104.11C81.2452 105.246 81.8174 106.292 82.6088 107.162C83.4003 108.031 84.3881 108.699 85.49 109.11L113.64 119.52C115.066 120.046 116.619 120.118 118.087 119.726C119.556 119.334 120.867 118.497 121.84 117.33L141 94.19C141.749 93.2867 142.271 92.2169 142.522 91.0702C142.772 89.9236 142.744 88.7336 142.44 87.6L128.23 34.49C127.818 32.9234 126.902 31.5362 125.622 30.5436C124.342 29.5511 122.77 29.0085 121.15 29L121.18 29.04Z" fill="#4448DB"/>
<path d="M85.4 65.66L96.67 61.49L98.4 49.6C98.4424 49.4249 98.5313 49.2645 98.6574 49.1358C98.7834 49.0071 98.9418 48.9148 99.116 48.8687C99.2901 48.8226 99.4735 48.8244 99.6467 48.874C99.8199 48.9235 99.9765 49.0188 100.1 49.15L107.55 58.58L119.39 56.58C119.574 56.5564 119.76 56.5843 119.929 56.6606C120.098 56.7369 120.242 56.8586 120.346 57.012C120.449 57.1655 120.509 57.3447 120.516 57.5297C120.524 57.7148 120.48 57.8984 120.39 58.06L113.72 68.06L119.3 78.7C119.369 78.8659 119.393 79.0475 119.368 79.2256C119.342 79.4037 119.27 79.5717 119.157 79.7119C119.045 79.8522 118.896 79.9595 118.728 80.0225C118.559 80.0855 118.377 80.1019 118.2 80.07L106.63 76.82L98.2 85.37C98.0631 85.4866 97.8973 85.5642 97.7201 85.5946C97.5428 85.6249 97.3606 85.6069 97.1928 85.5424C97.0249 85.4779 96.8775 85.3693 96.7662 85.2281C96.6548 85.0869 96.5836 84.9183 96.56 84.74L96.08 72.74L85.31 67.42C85.1552 67.3265 85.0287 67.1927 84.944 67.033C84.8592 66.8733 84.8193 66.6936 84.8285 66.5131C84.8377 66.3325 84.8958 66.1578 84.9964 66.0076C85.097 65.8574 85.2365 65.7372 85.4 65.66Z" fill="#4448DB"/>
<path d="M113.99 109.84C116.994 109.84 119.43 107.404 119.43 104.4C119.43 101.396 116.994 98.96 113.99 98.96C110.986 98.96 108.55 101.396 108.55 104.4C108.55 107.404 110.986 109.84 113.99 109.84Z" fill="white"/>
<path d="M114 110.84C112.582 110.838 111.204 110.368 110.08 109.504C108.955 108.64 108.147 107.43 107.78 106.06C107.433 104.76 107.502 103.384 107.977 102.125C108.453 100.867 109.31 99.7885 110.429 99.042C111.549 98.2956 112.874 97.9185 114.218 97.9636C115.563 98.0087 116.86 98.4738 117.927 99.2936C118.993 100.113 119.777 101.247 120.166 102.534C120.556 103.822 120.533 105.2 120.099 106.473C119.666 107.747 118.845 108.853 117.751 109.636C116.657 110.42 115.345 110.84 114 110.84ZM109.72 105.55C109.948 106.398 110.423 107.16 111.084 107.738C111.745 108.316 112.563 108.686 113.434 108.799C114.304 108.913 115.19 108.765 115.977 108.376C116.764 107.986 117.418 107.372 117.856 106.611C118.294 105.849 118.496 104.975 118.438 104.099C118.379 103.223 118.061 102.383 117.525 101.687C116.989 100.992 116.259 100.47 115.427 100.189C114.595 99.9086 113.698 99.881 112.85 100.11C112.287 100.261 111.759 100.521 111.296 100.876C110.834 101.232 110.446 101.675 110.155 102.18C109.865 102.685 109.677 103.243 109.602 103.822C109.527 104.4 109.567 104.987 109.72 105.55Z" fill="#4448DB"/>
</svg>
