<svg width="48" height="48" viewBox="0 0 48 48" fill="none" xmlns="http://www.w3.org/2000/svg">
<rect x="1" y="1" width="46" height="46" rx="5" stroke="white" stroke-width="2"/>
<path d="M17 16H21L23 21L20.5 22.5C21.571 24.6715 23.3285 26.429 25.5 27.5L27 25L32 27V31C32 31.5304 31.7893 32.0391 31.4142 32.4142C31.0391 32.7893 30.5304 33 30 33C26.0993 32.763 22.4202 31.1065 19.6568 28.3432C16.8935 25.5798 15.237 21.9007 15 18C15 17.4696 15.2107 16.9609 15.5858 16.5858C15.9609 16.2107 16.4696 16 17 16" stroke="white" stroke-width="2" stroke-linecap="round" stroke-linejoin="round"/>
<path d="M27 19C27.5304 19 28.0391 19.2107 28.4142 19.5858C28.7893 19.9609 29 20.4696 29 21" stroke="white" stroke-width="2" stroke-linecap="round" stroke-linejoin="round"/>
<path d="M27 15C28.5913 15 30.1174 15.6321 31.2426 16.7574C32.3679 17.8826 33 19.4087 33 21" stroke="white" stroke-width="2" stroke-linecap="round" stroke-linejoin="round"/>
</svg>
