<svg width="260" height="92" viewBox="0 0 260 92" fill="none" xmlns="http://www.w3.org/2000/svg">
<rect width="260" height="92" rx="12" fill="white"/>
<path fill-rule="evenodd" clip-rule="evenodd" d="M212.226 59.2378H220L211.979 32.7645L200.931 32.7642L192.91 59.2375H200.686L202.104 54.3372H210.802L212.226 59.2375V59.2378ZM203.786 48.4504L206.432 39.3039H206.477L209.123 48.4504H203.786Z" fill="#FF0000"/>
<path fill-rule="evenodd" clip-rule="evenodd" d="M78.808 59.7126C86.791 59.7126 90.6495 58.3065 91.1963 51.1029C91.327 49.3889 91.3515 47.6289 91.3515 45.9981C91.3536 44.3723 91.3266 42.6108 91.1963 40.8969C90.6495 33.6915 86.791 32.2871 78.808 32.2871C70.8246 32.2871 66.9683 33.6911 66.424 40.8969C66.2912 42.6108 66.2642 44.3723 66.2642 45.9981C66.2663 47.6292 66.2912 49.3889 66.424 51.1029C66.9687 58.3061 70.825 59.7126 78.808 59.7126ZM73.7882 45.9981C73.7882 44.5444 73.8242 43.6851 73.8558 43.0475C74.0585 38.9611 75.6717 38.4849 78.8084 38.4849C81.9468 38.4849 83.5604 38.9611 83.7605 43.0475C83.7922 43.6851 83.8304 44.5444 83.8304 45.9981C83.8304 47.4564 83.7922 48.3172 83.7605 48.9533C83.5604 53.0404 81.9468 53.5174 78.8084 53.5174C75.6717 53.5174 74.0585 53.04 73.8558 48.9533C73.8242 48.3172 73.7882 47.4564 73.7882 45.9981Z" fill="#FF0000"/>
<path fill-rule="evenodd" clip-rule="evenodd" d="M40 32.7764V39.3759H47.9135V59.2493H55.8303V39.3759H63.7442V32.7764H40Z" fill="#FF0000"/>
<path fill-rule="evenodd" clip-rule="evenodd" d="M161.466 59.2377V32.7637H153.953V59.2377H161.466Z" fill="#FF0000"/>
<path fill-rule="evenodd" clip-rule="evenodd" d="M131.237 42.4298V32.7642H123.767V59.2382H131.237V49.0293H139.918V59.2382H147.385V32.7642H139.918V42.4298H131.237Z" fill="#FF0000"/>
<path fill-rule="evenodd" clip-rule="evenodd" d="M186.176 45.4011C189.503 44.5504 190.48 42.5625 190.48 39.689C190.48 33.8707 186.819 32.7637 181.615 32.7637H168.126V59.237H182.283C188.802 59.237 190.993 56.429 190.993 52.1101C190.993 49.0987 190.305 46.4419 186.176 45.4L186.176 45.4011ZM175.594 48.3628H180.774C182.866 48.3628 183.303 49.2794 183.303 50.7705C183.303 52.2627 182.484 53.1818 180.774 53.1818H175.594V48.3628ZM175.594 38.8171H180.774C182.126 38.8171 182.963 39.4586 182.963 41.0016C182.963 42.3242 182.135 43.1382 180.774 43.1382H175.594V38.8171Z" fill="#FF0000"/>
<path fill-rule="evenodd" clip-rule="evenodd" d="M95.7058 50.5502H102.827C102.834 51.8346 102.998 52.6929 103.621 53.167C104.33 53.7012 104.964 53.8776 107.068 53.8776C109.093 53.8776 111.311 53.8776 111.311 51.3836C111.311 49.4165 110.072 48.9676 107.783 48.8456C102.109 48.545 100.057 48.3844 97.9443 46.8148C96.5043 45.7445 95.7573 43.6608 95.7573 40.8428C95.7573 36.0512 97.4291 34.37 99.8408 33.1971C102.329 31.9864 112.097 31.9864 114.725 33.1971C118.03 34.7199 118.127 38.0164 118.127 41.0746H111.023C111.01 39.5154 110.659 39.0752 110.373 38.785C109.635 38.1305 108.584 37.9926 107.068 37.9926C105.232 37.9926 103.108 38.0754 103.108 40.3049C103.108 42.0059 103.844 42.7169 105.774 42.8422C108.427 43.0118 113.654 43.1792 115.517 44.2782C118.129 45.8234 118.806 47.9139 118.806 51.3249C118.806 56.254 117.042 57.7008 114.588 58.7855C111.755 60.0365 102.294 60.0365 99.218 58.6887C95.7756 57.1878 95.7058 54.197 95.7058 50.5498" fill="#FF0000"/>
</svg>
