<svg width="232" height="232" viewBox="0 0 232 232" fill="none" xmlns="http://www.w3.org/2000/svg">
<path d="M56.49 77.1101C66.863 61.6468 82.4454 50.4239 100.399 45.4857C118.352 40.5475 137.483 42.2226 154.305 50.2059C171.127 58.1892 184.521 71.9494 192.049 88.9803C199.577 106.011 200.736 125.179 195.317 142.993C189.897 160.808 178.259 176.082 162.522 186.035C146.785 195.988 127.997 199.958 109.579 197.22C91.161 194.482 74.3392 185.22 62.1776 171.12C50.016 157.02 43.3238 139.02 43.32 120.4C43.3126 104.982 47.8975 89.9116 56.49 77.1101Z" fill="white"/>
<path d="M198.67 120.4C198.682 109.658 196.459 99.0311 192.143 89.1942C187.827 79.3573 181.512 70.5256 173.6 63.2602C173.45 63.2602 163.97 62.4902 163.77 72.3202C163.57 82.1502 152.34 79.5102 145.36 90.9302C140.36 99.1102 145.68 104.72 142.7 118.74C140.51 129.06 151.7 132.6 165.08 129.27C180.2 125.49 167.66 147.62 174.64 155.06C179.02 159.72 179.17 169.8 176.95 174.24C190.903 159.793 198.692 140.486 198.67 120.4Z" fill="#BFC0F3"/>
<path d="M121 42.7198C101.753 42.7206 83.192 49.8657 68.9126 62.7705C54.6332 75.6754 45.6523 93.4213 43.71 112.57C48.06 121.88 53.12 109.03 60 118.74C66.88 128.45 61.39 133.61 73.13 137.66C84.87 141.71 93.78 141.3 94.18 135.44C94.58 129.58 82.05 126.06 76.38 120.44C70.71 114.82 77.38 110.01 83.87 109.38C90.14 108.77 85.1 123 95.6 120.44C106.93 117.67 102.97 95.4398 110.6 89.9598C118.23 84.4798 123.54 71.5598 116.46 70.9598C109.38 70.3598 91.13 67.9998 98.23 58.5698C104.9 49.6698 111.34 62.2698 113 63.2398C118.46 66.4598 126.18 61.4798 128 55.7398C130.83 46.6598 136.57 44.2998 136.6 44.2898C131.466 43.2402 126.24 42.7142 121 42.7198Z" fill="#BFC0F3"/>
<path d="M124.27 156.08C117.09 155.47 116.49 148.59 106.99 147.78C97.49 146.97 76.82 151.08 74.48 156.68C69.86 167.81 77.95 180.15 85.48 183.38C88.93 184.87 90.79 188.22 91.37 192.19C98.5426 195.155 106.121 197.022 113.85 197.73C117.45 195.99 122.93 192.29 124.52 185.41C126.95 174.89 131.2 177.32 131.8 170.84C132.4 164.36 131.45 156.68 124.27 156.08Z" fill="#BFC0F3"/>
<path d="M121 200.07C106.558 200.07 92.3883 196.145 80.0047 188.715C67.6211 181.285 57.4897 170.629 50.6937 157.886C43.8977 145.144 40.6926 130.793 41.4212 116.37C42.1497 101.947 46.7845 87.9929 54.83 76C62.4955 64.5735 72.9893 55.3267 85.2896 49.1601C97.5899 42.9935 111.277 40.1173 125.019 40.8114C138.761 41.5056 152.09 45.7465 163.706 53.1212C175.322 60.4959 184.831 70.753 191.306 82.8938C197.781 95.0346 201.002 108.645 200.654 122.4C200.307 136.155 196.404 149.586 189.325 161.385C182.246 173.184 172.232 182.948 160.258 189.727C148.285 196.507 134.76 200.07 121 200.07ZM58.15 78.23C48.7454 92.2449 44.2955 109.001 45.5078 125.836C46.72 142.67 53.5248 158.616 64.8405 171.139C76.1561 183.662 91.3331 192.043 107.959 194.949C124.585 197.856 141.705 195.122 156.598 187.181C171.491 179.24 183.303 166.549 190.155 151.124C197.007 135.7 198.506 118.428 194.415 102.053C190.323 85.6787 180.875 71.1419 167.573 60.7536C154.271 50.3653 137.878 44.7217 121 44.72C108.572 44.6861 96.3295 47.7283 85.3631 53.5753C74.3968 59.4223 65.0478 67.8923 58.15 78.23Z" fill="#4448DB"/>
<path d="M182.94 220.77L153 211.69V176.33L182.94 185.41V220.77Z" fill="white"/>
<path d="M182.94 220.77L212.87 211.69V176.33L182.94 185.41V220.77Z" fill="#BFC0F3"/>
<path d="M153 176.33L182.94 167.25L212.87 176.33L182.94 185.41L153 176.33Z" fill="white"/>
<path d="M182.94 221.77C182.841 221.769 182.743 221.752 182.65 221.72L152.71 212.65C152.497 212.586 152.312 212.453 152.184 212.272C152.055 212.09 151.991 211.872 152 211.65V176.33C151.991 176.108 152.055 175.889 152.184 175.708C152.312 175.527 152.497 175.394 152.71 175.33L182.65 166.25C182.84 166.2 183.04 166.2 183.23 166.25L213.16 175.33C213.373 175.394 213.558 175.527 213.686 175.708C213.815 175.889 213.879 176.108 213.87 176.33V211.69C213.879 211.912 213.815 212.13 213.686 212.312C213.558 212.493 213.373 212.626 213.16 212.69L183.23 221.76C183.134 221.777 183.037 221.781 182.94 221.77ZM154 211L182.94 219.77L211.87 211V177.07L182.94 168.29L154 177.07V211Z" fill="#4448DB"/>
<path d="M48 59.9998L29.13 45.4398C25.5925 42.7164 23.0884 38.869 22.0305 34.5317C20.9725 30.1945 21.4238 25.6262 23.31 21.5798C25.5133 16.8583 29.5017 13.2051 34.398 11.4236C39.2943 9.64206 44.6977 9.87812 49.42 12.0798C53.4636 13.9647 56.7445 17.1708 58.7222 21.1698C60.6999 25.1688 61.2564 29.7222 60.3 34.0798L55.19 57.3798C55.0292 58.1272 54.6814 58.8216 54.1793 59.398C53.6771 59.9744 53.037 60.414 52.3187 60.6758C51.6004 60.9375 50.8275 61.0128 50.0722 60.8946C49.3169 60.7764 48.604 60.4685 48 59.9998Z" fill="#BFC0F3"/>
<path d="M40.61 36.8601C45.2326 36.8601 48.98 33.1127 48.98 28.4901C48.98 23.8675 45.2326 20.1201 40.61 20.1201C35.9874 20.1201 32.24 23.8675 32.24 28.4901C32.24 33.1127 35.9874 36.8601 40.61 36.8601Z" fill="white"/>
<path d="M32.61 79.1102C32.2474 79.1113 31.8913 79.0138 31.5798 78.8282C31.2684 78.6426 31.0132 78.3758 30.8417 78.0563C30.6701 77.7369 30.5887 77.3768 30.606 77.0146C30.6233 76.6524 30.7388 76.3018 30.94 76.0002L37.68 65.7202C37.8206 65.4987 38.0048 65.3082 38.2214 65.1604C38.4381 65.0125 38.6826 64.9104 38.94 64.8602C39.1977 64.805 39.4638 64.8014 39.723 64.8494C39.9821 64.8975 40.2292 64.9963 40.45 65.1402L50.72 71.9002C51.1642 72.1906 51.4749 72.6456 51.5837 73.165C51.6925 73.6845 51.5904 74.2259 51.3 74.6701C51.0096 75.1144 50.5546 75.4251 50.0351 75.5338C49.5156 75.6426 48.9742 75.5406 48.53 75.2502L39.92 69.6001L34.28 78.2101C34.0979 78.4867 33.85 78.7137 33.5585 78.8708C33.267 79.0278 32.9411 79.1101 32.61 79.1102Z" fill="#4448DB"/>
<path d="M197.06 158.84C198.165 158.84 199.06 157.944 199.06 156.84C199.06 155.735 198.165 154.84 197.06 154.84C195.955 154.84 195.06 155.735 195.06 156.84C195.06 157.944 195.955 158.84 197.06 158.84Z" fill="#4448DB"/>
<path d="M63.82 49.6299C64.9246 49.6299 65.82 48.7345 65.82 47.6299C65.82 46.5253 64.9246 45.6299 63.82 45.6299C62.7154 45.6299 61.82 46.5253 61.82 47.6299C61.82 48.7345 62.7154 49.6299 63.82 49.6299Z" fill="#4448DB"/>
<path d="M72.85 51.8599C73.9546 51.8599 74.85 50.9644 74.85 49.8599C74.85 48.7553 73.9546 47.8599 72.85 47.8599C71.7454 47.8599 70.85 48.7553 70.85 49.8599C70.85 50.9644 71.7454 51.8599 72.85 51.8599Z" fill="#4448DB"/>
<path d="M200.81 168.06C201.915 168.06 202.81 167.165 202.81 166.06C202.81 164.955 201.915 164.06 200.81 164.06C199.705 164.06 198.81 164.955 198.81 166.06C198.81 167.165 199.705 168.06 200.81 168.06Z" fill="#4448DB"/>
<path d="M171.57 193.72C171.394 193.721 171.219 193.698 171.05 193.65C149.81 188.04 121.79 171.38 96.05 149.07C63.15 120.51 40.1 88.3298 37.31 67.0698C37.241 66.5394 37.3856 66.0033 37.7119 65.5794C38.0382 65.1556 38.5196 64.8788 39.05 64.8098C39.5804 64.7408 40.1165 64.8854 40.5404 65.2117C40.9642 65.5381 41.241 66.0194 41.31 66.5498C44 86.5898 67 118.52 98.72 146.05C124 168 151.39 184.32 172.07 189.78C172.545 189.899 172.959 190.187 173.235 190.591C173.511 190.995 173.63 191.486 173.568 191.972C173.506 192.457 173.269 192.903 172.901 193.225C172.533 193.547 172.059 193.723 171.57 193.72Z" fill="#4448DB"/>
<path d="M53.59 184.87C52.6575 184.704 51.7384 184.47 50.84 184.17C44.46 182.02 40.84 176.81 39.67 170.1C39.645 169.967 39.5744 169.847 39.4703 169.761C39.3662 169.675 39.2352 169.627 39.1 169.627C38.9648 169.627 38.8338 169.675 38.7297 169.761C38.6257 169.847 38.555 169.967 38.53 170.1C37.15 177.9 32.53 183.41 24.65 184.88C24.5171 184.905 24.3971 184.976 24.3108 185.08C24.2245 185.184 24.1772 185.315 24.1772 185.45C24.1772 185.585 24.2245 185.716 24.3108 185.82C24.3971 185.925 24.5171 185.995 24.65 186.02C32.49 187.47 37.16 192.97 38.53 200.7C38.5535 200.834 38.6235 200.956 38.7277 201.044C38.8319 201.132 38.9637 201.18 39.1 201.18C39.2368 201.182 39.3697 201.134 39.4743 201.046C39.579 200.958 39.6484 200.835 39.67 200.7C40.37 196.7 42.34 191.3 47.67 188.13C49.503 187.078 51.5069 186.357 53.59 186C53.7242 185.977 53.8459 185.907 53.9337 185.802C54.0214 185.698 54.0697 185.566 54.07 185.43C54.0655 185.296 54.0155 185.168 53.9283 185.066C53.8411 184.964 53.7217 184.895 53.59 184.87Z" fill="#BFC0F3"/>
<path d="M212.29 34.9298C211.15 34.7259 210.027 34.4385 208.93 34.0698C201.16 31.4498 196.76 25.0698 195.31 16.9198C195.277 16.7602 195.189 16.6169 195.063 16.514C194.936 16.4111 194.778 16.355 194.615 16.355C194.452 16.355 194.294 16.4111 194.167 16.514C194.041 16.6169 193.953 16.7602 193.92 16.9198C192.24 26.4198 186.64 33.1498 176.99 34.9198C176.83 34.9532 176.687 35.0405 176.584 35.167C176.481 35.2936 176.425 35.4517 176.425 35.6148C176.425 35.7779 176.481 35.936 176.584 36.0626C176.687 36.1892 176.83 36.2765 176.99 36.3098C186.55 38.0798 192.25 44.7898 193.92 54.2198C193.953 54.3795 194.041 54.5228 194.167 54.6256C194.294 54.7285 194.452 54.7846 194.615 54.7846C194.778 54.7846 194.936 54.7285 195.063 54.6256C195.189 54.5228 195.277 54.3795 195.31 54.2198C196.17 49.3598 198.56 42.7498 205.13 38.8898C207.348 37.6169 209.771 36.7404 212.29 36.2998C212.453 36.2694 212.601 36.1827 212.707 36.0548C212.813 35.9269 212.87 35.7659 212.87 35.5998C212.865 35.4384 212.805 35.2835 212.7 35.1613C212.594 35.0392 212.449 34.9574 212.29 34.9298Z" fill="#BFC0F3"/>
<path d="M81.75 211C81.193 210.904 80.6446 210.763 80.11 210.58C76.31 209.31 74.11 206.2 73.45 202.2C73.4314 202.124 73.3878 202.056 73.3261 202.008C73.2645 201.959 73.1884 201.933 73.11 201.933C73.0316 201.933 72.9555 201.959 72.8939 202.008C72.8322 202.056 72.7886 202.124 72.77 202.2C71.95 206.85 69.22 210.13 64.5 211.01C64.4239 211.029 64.3562 211.072 64.3078 211.134C64.2594 211.196 64.2331 211.272 64.2331 211.35C64.2331 211.428 64.2594 211.505 64.3078 211.566C64.3562 211.628 64.4239 211.671 64.5 211.69C69.17 212.55 71.96 215.83 72.78 220.44C72.794 220.52 72.8356 220.593 72.8977 220.646C72.9598 220.699 73.0384 220.729 73.12 220.73C73.2005 220.725 73.2773 220.695 73.3387 220.642C73.4001 220.59 73.4427 220.519 73.46 220.44C73.6649 218.925 74.2001 217.473 75.0278 216.187C75.8555 214.902 76.9555 213.814 78.25 213C79.3344 212.377 80.5187 211.948 81.75 211.73C81.8294 211.716 81.9012 211.674 81.9525 211.612C82.0038 211.549 82.0313 211.471 82.03 211.39C82.0418 211.302 82.0195 211.212 81.9674 211.139C81.9154 211.067 81.8376 211.017 81.75 211Z" fill="#BFC0F3"/>
<path d="M153 17.4401C154.613 17.4401 155.92 16.1328 155.92 14.5201C155.92 12.9074 154.613 11.6001 153 11.6001C151.387 11.6001 150.08 12.9074 150.08 14.5201C150.08 16.1328 151.387 17.4401 153 17.4401Z" fill="#BFC0F3"/>
<path d="M21.05 143.25C22.6627 143.25 23.97 141.943 23.97 140.33C23.97 138.717 22.6627 137.41 21.05 137.41C19.4373 137.41 18.13 138.717 18.13 140.33C18.13 141.943 19.4373 143.25 21.05 143.25Z" fill="#BFC0F3"/>
<path d="M206.3 80.0299C207.913 80.0299 209.22 78.7226 209.22 77.1099C209.22 75.4973 207.913 74.1899 206.3 74.1899C204.687 74.1899 203.38 75.4973 203.38 77.1099C203.38 78.7226 204.687 80.0299 206.3 80.0299Z" fill="#BFC0F3"/>
<path d="M110.28 27.4699C111.893 27.4699 113.2 26.1626 113.2 24.5499C113.2 22.9372 111.893 21.6299 110.28 21.6299C108.667 21.6299 107.36 22.9372 107.36 24.5499C107.36 26.1626 108.667 27.4699 110.28 27.4699Z" fill="#BFC0F3"/>
</svg>
